<svg width="184" height="214" viewBox="0 0 184 214" fill="none" xmlns="http://www.w3.org/2000/svg">
<path d="M22.7151 19.1656C22.794 19.1382 22.8824 19.1314 22.9515 19.0833C23.0062 19.0453 23.0255 18.9694 23.0697 18.9186C23.1572 18.8181 23.261 18.7336 23.3456 18.6305C23.3791 18.5897 23.8796 17.9676 23.8972 17.9307C23.9029 17.9184 23.8879 17.8993 23.8972 17.8895C23.9065 17.8798 23.9308 17.9018 23.9366 17.8895C23.9484 17.865 23.9366 17.8346 23.9366 17.8072C23.9629 17.766 23.9869 17.7233 24.0154 17.6837C24.0883 17.5822 24.028 17.715 24.173 17.6014C24.1965 17.583 24.1917 17.5407 24.2124 17.5191C24.3314 17.3948 24.4824 17.3085 24.6064 17.1897C24.8988 16.9098 25.1261 16.6469 25.3945 16.3664C25.4828 16.2743 25.6158 16.2465 25.7097 16.1606C26.005 15.8907 26.1842 15.5003 26.4584 15.2139C26.4791 15.1922 26.5164 15.1944 26.5372 15.1727C26.7666 14.933 26.9022 14.5595 27.0888 14.2671C27.3132 13.9154 27.5948 13.6172 27.8374 13.2791C27.984 13.0749 28.1259 12.8672 28.2709 12.6617C28.3098 12.6064 28.3553 12.5559 28.3891 12.497C28.3956 12.4853 28.3773 12.462 28.3891 12.4559C28.514 12.3906 28.5215 12.5019 28.6649 12.3735C28.8585 12.2002 28.9179 12.0647 29.0983 11.8384C29.4211 11.4338 29.0248 11.9564 29.3347 11.6326C29.3441 11.6228 29.3238 11.599 29.3347 11.5914C29.4514 11.5102 29.4484 11.5759 29.5712 11.5502C29.8919 11.4832 29.547 11.5486 29.65 11.4679C29.697 11.4311 29.7617 11.4239 29.8076 11.3856C29.8306 11.3664 29.8226 11.3202 29.847 11.3032C29.8688 11.288 29.9072 11.3226 29.9258 11.3032C29.9551 11.2726 29.9422 11.2158 29.9652 11.1797C30.0572 11.0357 30.2264 10.8962 30.2804 10.7269C30.3016 10.6605 30.2935 10.5854 30.3199 10.5211C30.3491 10.4498 30.4498 10.4285 30.4774 10.3565C30.4921 10.3183 30.4774 10.2741 30.4774 10.233C30.5168 10.1781 30.5663 10.1297 30.5957 10.0683C30.6199 10.0177 30.6037 9.86506 30.635 9.82133C30.676 9.76424 30.9343 9.54992 30.9897 9.49203C31.0917 9.38543 31.1287 9.20158 31.1867 9.08036C31.2481 8.9519 31.3622 8.83711 31.4231 8.7099C31.4417 8.67111 31.4411 8.62362 31.4625 8.58642C31.5428 8.44659 31.6748 8.35032 31.7777 8.21593C32.0254 7.8925 32.1918 7.60114 32.5264 7.35148C32.556 7.32937 32.7732 7.35148 32.8022 7.35148C32.9507 7.35148 33.1287 7.32598 33.275 7.35148C33.5736 7.40349 33.2911 7.35995 33.4326 7.43381C33.5724 7.50683 33.7272 7.55012 33.8661 7.59848C34.0872 7.67547 34.3047 7.84271 34.5359 7.88663C34.6134 7.90137 34.6938 7.8807 34.7723 7.88663C35.1186 7.91441 34.9541 7.92551 35.2451 7.96896C35.2971 7.97658 35.3545 7.94736 35.4028 7.96896C35.6538 8.08137 35.8806 8.22109 36.1514 8.29827C36.2467 8.32537 36.3733 8.30689 36.4666 8.33942C36.5115 8.35509 36.5413 8.4023 36.5848 8.42178C36.6844 8.46633 36.7932 8.48548 36.9001 8.50411C36.9719 8.51665 37.0677 8.48014 37.1365 8.50411C37.1922 8.52351 37.2384 8.56705 37.2941 8.58644C37.545 8.67382 37.8616 8.6359 38.0821 8.75108C38.1554 8.78937 38.2747 8.73372 38.3579 8.75108C38.5599 8.79327 38.7482 8.9085 38.949 8.9569C39.4964 9.08889 40.2502 9.08039 40.8009 9.08039C40.8984 9.08039 41.0656 9.11173 41.1555 9.08039C41.2005 9.06472 41.2298 9.01644 41.2737 8.99806C41.3357 8.97214 41.4505 8.99468 41.5101 8.9569C41.7375 8.81439 41.6015 8.8349 41.8648 8.7099C42.2059 8.54792 42.0155 8.6911 42.2588 8.62757C42.3568 8.60199 42.4844 8.46859 42.574 8.42175C42.6452 8.38457 42.7241 8.43218 42.8104 8.3806C43.427 8.0125 42.1456 8.62892 43.3621 8.05127C43.544 7.96486 43.8323 7.94588 43.9925 7.84545C44.0402 7.81546 44.0609 7.748 44.1107 7.72196C44.2937 7.62641 44.5151 7.60281 44.7018 7.51614C44.7606 7.48878 44.8739 7.36827 44.9382 7.35148C44.9764 7.34148 45.0211 7.36986 45.0564 7.35148C45.1062 7.32547 45.1247 7.25403 45.1746 7.22799C45.2098 7.20961 45.2546 7.23799 45.2928 7.22799C45.3565 7.21139 45.3646 7.11186 45.411 7.06335C45.5648 6.9027 45.4321 7.07291 45.5292 7.02217C45.6835 6.94162 45.8173 6.7878 45.9627 6.69287C45.9905 6.56736 46.0718 6.67704 46.1202 6.65171C46.1465 6.63799 46.1334 6.58308 46.1597 6.56935C46.1832 6.55707 46.2122 6.56935 46.2385 6.56935C46.3173 6.54191 46.4019 6.52861 46.4749 6.48702C46.5487 6.44492 46.5984 6.36505 46.6719 6.32238C46.7505 6.27673 46.9132 6.2568 46.9871 6.19887C47.0803 6.12577 47.1274 6.05042 47.2235 5.99305C47.3864 5.89582 47.4281 5.94403 47.5387 5.82841C47.6505 5.74913 47.7564 5.65985 47.874 5.59051C47.9413 5.45005 48.0679 5.57654 48.1526 5.53232C48.2357 5.48895 48.2944 5.4048 48.3755 5.35768C48.91 5.04749 49.487 4.7935 50.0472 4.54267C50.2998 4.42962 50.4991 4.19619 50.7716 4.13517C51.0285 4.07766 51.2969 4.08528 51.5518 4.01874C51.7572 3.96512 51.9611 3.90488 52.1647 3.8441C52.2446 3.8203 52.3054 3.73994 52.3876 3.72767C52.6932 3.6821 53.0344 3.74792 53.3349 3.66948C53.6878 3.57733 53.35 3.60595 54.0593 3.55305C54.1334 3.54712 54.2098 3.5705 54.2822 3.55305C54.2895 3.55136 55.4178 3.25096 55.5081 3.20376C55.5248 3.19512 55.4915 3.15422 55.5081 3.14558C55.5955 3.09992 55.7494 3.17802 55.8425 3.14558C56.1159 3.05036 56.8041 3.10896 56.9569 3.02912C57.0169 2.99786 57.06 2.9328 57.1241 2.91269C57.5336 2.78436 58.2174 2.81543 58.6287 2.8545C58.7808 2.8689 59.7528 3.21385 59.8546 3.32022C59.8839 3.35088 59.8809 3.40597 59.9103 3.43665C60.0485 3.58106 60.2983 3.59878 60.4675 3.66951C60.5241 3.69314 60.5772 3.76593 60.6347 3.78594C60.6937 3.80643 63.0331 3.82397 63.1423 3.78594C63.4973 3.66229 63.3787 3.48074 63.5323 3.32022C63.5586 3.29277 63.6175 3.34766 63.6438 3.32022C63.685 3.2771 63.7359 3.14611 63.8109 3.08736C64.0437 2.90501 64.2776 2.81449 64.5353 2.67986C64.5852 2.65385 64.6496 2.69824 64.7025 2.67986C64.7274 2.67122 64.7397 2.64107 64.7582 2.62167C64.8325 2.58287 64.8994 2.52077 64.9811 2.50524C65.1091 2.48093 65.2418 2.51879 65.3712 2.50524C65.5057 2.49118 65.6271 2.40634 65.7613 2.38881C65.8811 2.37314 67.2431 2.34781 67.3215 2.38881C67.4392 2.37365 67.3427 2.48118 67.3772 2.50524C67.4261 2.53929 67.4919 2.53598 67.5444 2.56343C67.5914 2.58799 67.6089 2.65531 67.6559 2.67986C67.6891 2.69722 67.741 2.65241 67.7673 2.67986C67.8264 2.74161 67.9226 2.87591 68.0459 2.91272C68.1316 2.9383 68.7241 3.01731 68.826 3.02915C69.0629 3.05668 69.482 3.07836 69.7176 3.02915C69.8756 2.99611 69.9204 2.87556 69.9962 2.79629C70.0632 2.72632 70.1869 2.77486 70.2749 2.7381C70.3237 2.71768 70.3393 2.64622 70.3863 2.62167C70.548 2.53722 70.7578 2.39525 70.9435 2.3306C71.0616 2.28951 71.154 2.30477 71.2779 2.27241C71.3673 2.24903 71.4658 2.17177 71.5565 2.15598C71.7954 2.11439 71.9888 2.19656 72.2252 2.09779C72.7654 1.87206 72.9682 2.0617 73.5068 1.98136C73.6482 1.96027 74.096 1.78185 74.1755 1.86493C74.2873 1.98172 74.1999 2.14143 74.2312 2.27243C74.3088 2.59675 74.2407 2.31639 74.3984 2.56351C74.4479 2.6411 74.3303 2.6217 74.4541 2.6217C74.5859 2.69336 74.9254 2.75572 75.0671 2.85442C75.098 2.87594 75.0606 2.93252 75.0671 2.97085C75.12 3.30218 75.1411 3.26154 75.29 3.49479C75.3209 3.54324 75.2765 3.61295 75.29 3.66943C75.3254 3.81716 75.4504 3.9464 75.5129 4.07693C75.5466 4.14749 75.5005 4.29011 75.5129 4.368C75.5431 4.55737 75.6059 4.73686 75.6801 4.89194C75.7318 5 75.7139 6.40373 75.6801 6.58016C75.6605 6.68236 75.5307 6.99004 75.5129 7.04588C75.4894 7.11949 75.5251 7.20218 75.5129 7.27873C75.4633 7.58979 75.4913 8.2328 75.29 8.44305C75.2769 8.45678 75.2474 8.42933 75.2343 8.44305C75.1136 8.56918 75.355 9.07372 75.2343 9.19984C75.2212 9.21357 75.1917 9.18612 75.1786 9.19984C75.1129 9.26845 75.2042 9.39763 75.1786 9.49092C75.1602 9.55817 75.0883 9.59918 75.0672 9.66556C75.0145 9.83086 74.9751 11.1259 75.0114 11.3538C75.03 11.4704 75.0763 11.7221 75.1229 11.8195C75.1943 11.9688 75.3193 12.0839 75.4015 12.227C75.4997 12.3979 75.5401 12.6629 75.6801 12.8091C75.7954 12.9296 75.6753 12.6251 75.7916 12.8673C75.8644 13.0195 75.9628 13.2417 76.0702 13.3913C76.1836 13.5492 76.321 13.6825 76.4045 13.857C76.4397 13.9304 76.4251 14.0746 76.4603 14.1481C76.5383 14.3112 76.7944 14.3516 76.906 14.4974C77.04 14.6723 77.4021 14.9531 77.6304 15.0213C77.7215 15.0485 77.8204 15.0448 77.9091 15.0795C77.9717 15.1041 78.0127 15.1738 78.0762 15.1959C78.1834 15.2333 78.3024 15.2202 78.4106 15.2541C78.773 15.3677 78.4931 15.3645 78.8006 15.4288C79.0114 15.4728 79.2631 15.4254 79.4693 15.4869C79.5891 15.5227 79.6815 15.6361 79.8037 15.6616C79.9676 15.6958 80.1388 15.6442 80.3052 15.6616C80.5159 15.6836 80.7098 15.7966 80.9181 15.8362C81.1593 15.8821 81.4236 15.8764 81.6425 15.9527C81.9632 16.0643 83.201 15.8353 83.4257 15.9527C83.5088 15.996 83.5132 16.1356 83.5929 16.1855C83.6406 16.2155 83.7054 16.1741 83.76 16.1855C84.1515 16.2673 84.7081 16.5242 85.0974 16.6512C85.2705 16.9264 85.5089 16.715 85.7103 16.7677C85.7613 16.781 85.7699 16.8751 85.8218 16.8841C85.9134 16.9 86.0098 16.863 86.1004 16.8841C86.5297 16.9838 87.0817 17.4084 87.4378 17.6409C87.5516 17.7152 87.4362 17.6976 87.5492 17.8155C87.7389 18.0137 87.8875 18.1087 88.1065 18.223C88.1789 18.2609 88.3276 18.5517 88.4408 18.6305C88.5098 18.6786 88.6511 18.7339 88.7194 18.8052C89.0196 19.1189 88.3946 18.6804 88.9423 19.038C89.1082 19.1464 89.2526 19.186 89.3881 19.2709C89.5982 19.4026 89.7326 19.6097 89.9453 19.7366C89.9963 19.767 90.0655 19.7581 90.1125 19.7948C90.1457 19.8208 90.1337 19.8872 90.1682 19.9113C90.3354 20.0277 90.2239 19.8531 90.3354 19.9113C90.7403 20.1227 90.303 19.9275 90.614 20.1441C90.7235 20.2203 90.9045 20.3076 91.0041 20.377C91.1329 20.4667 91.1839 20.6231 91.2827 20.7263C91.3929 20.8414 91.5964 20.9742 91.6728 21.1338C91.8486 21.5011 92.1306 21.9123 92.4529 22.1816C92.6724 22.3651 92.9491 22.3721 93.233 22.4145C93.821 22.5022 93.1297 22.417 93.6231 22.5891C93.7714 22.6408 93.9708 22.6205 94.1246 22.6473C94.2916 22.6764 94.1959 22.7427 94.3475 22.822C94.4611 22.8813 94.6655 22.8468 94.7933 22.8801C94.9087 22.9103 95.0273 23.0199 95.1276 23.0548C95.2338 23.0918 95.4089 23.0406 95.5177 23.0548C95.9004 23.1048 96.2654 23.1782 96.6321 23.2876C96.7179 23.3132 96.8231 23.2694 96.9108 23.2876C97.1934 23.3467 97.4578 23.3458 97.7466 23.3458C97.9428 23.3458 98.4666 23.3592 98.6382 23.4041C98.8436 23.4578 99.0417 23.5459 99.2511 23.5787C99.4165 23.6046 99.5855 23.5787 99.7527 23.5787C99.8084 23.5787 99.8735 23.611 99.9198 23.5787C100.113 23.4442 99.9849 23.3648 100.031 23.1712C100.047 23.1057 100.169 23.0576 100.198 22.9965C100.223 22.9445 100.176 22.8754 100.198 22.8219C100.47 22.1603 100.252 22.7678 100.477 22.4144C100.593 22.2331 100.374 22.1723 100.644 21.8905C100.608 21.7918 100.551 21.6988 100.535 21.5943C100.519 21.4873 100.613 21.3091 100.653 21.2238C100.732 21.0592 100.574 20.771 100.653 20.6064C100.706 20.4972 100.697 20.3866 100.732 20.2771C100.736 20.264 100.766 20.2893 100.772 20.2771C100.801 20.2157 100.759 20.1385 100.772 20.0712C100.819 19.8212 100.854 19.55 100.89 19.2891C100.895 19.2484 100.877 19.2047 100.89 19.1656C101.009 18.7933 101.43 17.9792 101.678 17.6837C101.794 17.5455 101.946 17.4861 102.072 17.3544C102.093 17.3327 102.086 17.2878 102.111 17.2721C102.158 17.2429 102.22 17.2563 102.269 17.2309C102.279 17.225 102.381 17.0305 102.387 17.0251C102.432 16.9858 102.494 16.9744 102.545 16.9428C102.592 16.9128 102.616 16.8516 102.663 16.8193C103.114 16.5047 103.555 16.3117 104.081 16.243C104.254 16.2205 104.624 16.259 104.751 16.3253C104.935 16.4214 105.047 16.6025 105.263 16.6546C105.328 16.6703 105.779 16.6434 105.854 16.6958C105.879 16.7128 105.87 16.7597 105.894 16.7781C105.933 16.8084 106.142 16.8462 106.17 16.8604C106.172 16.8613 106.358 17.0156 106.367 17.0251C106.588 17.2567 106.778 17.4871 107.076 17.6426C107.124 17.6679 107.188 17.6523 107.234 17.6837C107.279 17.7154 107.306 17.7756 107.352 17.8072C107.47 17.8896 107.431 17.8072 107.588 17.9307C107.599 17.9392 107.588 17.9582 107.588 17.9719C107.601 17.9856 107.611 18.0044 107.628 18.013C107.685 18.0433 107.971 18.2487 108.022 18.3012C108.055 18.3362 108.063 18.3938 108.1 18.4247C108.237 18.5386 108.561 18.6124 108.731 18.6717C108.776 18.6874 108.805 18.7367 108.849 18.754C109.11 18.8561 109.408 18.9721 109.676 19.0421C110.468 19.249 109.597 18.994 110.11 19.0833C110.512 19.1534 110.934 19.2116 111.331 19.3303C111.499 19.3804 111.719 19.3269 111.883 19.4126C111.958 19.4519 111.999 19.5549 112.08 19.5773C112.258 19.6263 112.448 19.6072 112.632 19.6184C112.684 19.6218 112.766 19.5693 112.789 19.6184C112.801 19.643 112.766 19.6871 112.789 19.7008C112.936 19.7886 113.113 19.7657 113.262 19.8243C113.356 19.861 113.441 19.9224 113.538 19.9478C113.602 19.9644 113.669 19.9478 113.735 19.9478C113.814 19.9615 113.895 19.965 113.971 19.9889C114.028 20.0066 114.073 20.0519 114.129 20.0713C114.242 20.1106 114.414 20.1083 114.523 20.1536C114.567 20.172 114.599 20.2138 114.641 20.236C114.775 20.3059 114.931 20.3165 115.075 20.3594C115.246 20.4106 115.413 20.4878 115.587 20.5241C115.771 20.5626 115.953 20.6135 116.139 20.6476C116.283 20.6743 116.601 20.6799 116.769 20.7299C117.033 20.8088 117.337 20.9557 117.636 21.0181C117.7 21.0315 117.768 21.0046 117.833 21.0181C117.939 21.0402 118.04 21.0901 118.148 21.1004C118.328 21.1175 118.695 21.0327 118.857 21.1004C119.124 21.212 119.31 21.1826 119.566 21.2651C119.662 21.2958 119.747 21.3578 119.842 21.3885C120.317 21.5411 119.9 21.3781 120.197 21.4297C120.455 21.4747 120.192 21.4478 120.394 21.5532C120.438 21.5763 120.543 21.5396 120.591 21.5532C121.001 21.6701 121.382 21.8002 121.812 21.8002C122.375 21.8169 123.041 21.9452 123.586 21.7178C123.598 21.7127 123.574 21.6827 123.586 21.6766C123.685 21.6246 124.291 21.6766 124.452 21.6766C124.71 21.6766 125.548 21.7404 125.792 21.6766C125.828 21.6672 125.836 21.6087 125.871 21.5943C125.96 21.5571 126.101 21.6388 126.186 21.5943C126.326 21.5212 126.228 21.5778 126.501 21.5119C126.66 21.4737 126.82 21.4421 126.974 21.3884C127.019 21.3728 127.047 21.3218 127.092 21.3061C127.13 21.2931 127.173 21.3169 127.211 21.3061C127.513 21.2201 127.817 21.1375 128.117 21.0591C128.348 20.9988 128.641 21.1375 128.865 21.0591C129.038 20.9989 129.173 20.9522 129.338 20.8945C129.502 20.8375 129.758 20.9123 129.929 20.8945C130.398 20.8455 130.669 20.8561 131.151 20.9356C131.333 20.9657 131.525 20.9239 131.702 20.9768C131.774 20.9981 131.796 21.103 131.86 21.1415C131.921 21.1781 131.994 21.1908 132.057 21.2238C132.158 21.2766 132.232 21.3768 132.333 21.4296C132.356 21.4419 132.388 21.4173 132.412 21.4296C132.423 21.4355 132.402 21.4611 132.412 21.4708C132.554 21.6191 132.728 21.7395 132.845 21.9236C132.901 22.0113 132.895 22.1264 132.963 22.2117C133.011 22.2714 133.075 22.3158 133.121 22.3764C133.146 22.4085 133.111 22.4599 133.121 22.4999C133.15 22.6227 133.247 22.6154 133.279 22.7469C133.313 22.8924 133.228 23.1006 133.279 23.2408C133.302 23.305 133.367 23.3441 133.397 23.4055C133.498 23.6167 133.436 23.9653 133.436 24.1876C132.912 24.4892 133.273 24.3309 133.075 24.7432C132.964 24.9756 132.91 24.909 132.852 25.2671C132.84 25.3437 132.905 25.4451 132.852 25.5C132.811 25.5433 132.727 25.5148 132.685 25.5581C132.62 25.6268 132.697 25.7529 132.685 25.8492C132.593 26.6189 132.675 25.7869 132.574 26.3149C132.554 26.4173 132.617 26.5733 132.574 26.6642C132.417 26.992 132.408 27.8941 132.462 28.2942C132.494 28.5244 132.66 28.7238 132.741 28.9346C132.832 29.1729 132.885 29.4452 132.964 29.6914C132.972 29.7165 133.207 30.0836 133.243 30.1571C133.263 30.2009 133.217 30.2914 133.243 30.3318C133.301 30.4231 133.426 30.4627 133.465 30.5646C133.522 30.7132 133.523 30.8805 133.577 31.0303C133.583 31.0486 133.619 31.0166 133.633 31.0303C133.708 31.1088 133.742 31.337 133.8 31.4379C133.89 31.5947 134.019 31.6953 134.134 31.8454C134.446 32.2528 134.177 31.9428 134.58 32.5439C134.749 32.7964 135.032 32.9325 135.249 33.1261C135.384 33.2476 136.332 34.0189 136.363 34.1157C136.429 34.3223 136.273 34.1452 136.419 34.3486C136.609 34.6135 136.761 34.782 136.865 35.1054C136.894 35.5702 136.803 36.1804 136.943 36.6192C136.951 36.6452 137.003 36.5998 137.022 36.6192C137.048 36.6465 137.016 36.9319 137.022 36.9485C137.095 37.1767 137.277 37.4379 137.337 37.6895C137.366 37.8113 137.363 37.9915 137.416 38.1011C137.428 38.1257 137.468 38.1011 137.495 38.1011C137.521 38.156 137.555 38.2075 137.573 38.2657C137.601 38.3516 137.596 38.7012 137.652 38.7597C137.719 38.8297 137.83 38.8471 137.889 38.9244C137.972 39.0336 137.873 39.2371 137.968 39.336C138.005 39.3748 138.075 39.3186 138.125 39.336C138.211 39.3658 138.474 39.7596 138.519 39.83C138.7 40.1141 138.841 40.6602 139.071 40.9002C139.089 40.9196 139.131 40.8808 139.15 40.9002C139.219 40.9732 139.17 41.3028 139.228 41.3942C139.29 41.4911 139.43 41.5307 139.465 41.6412C139.49 41.7193 139.421 41.8197 139.465 41.8882C139.527 41.9851 139.651 42.031 139.701 42.1352C139.713 42.1605 139.75 42.4992 139.78 42.5468C139.881 42.7042 140.038 42.8614 140.095 43.0408C140.112 43.0929 140.072 43.1563 140.095 43.2054C140.107 43.23 140.156 43.186 140.174 43.2054C140.177 43.2088 140.363 43.5432 140.41 43.6171C140.518 43.7863 140.651 44.3626 140.726 44.4403C140.767 44.4837 140.842 44.4793 140.883 44.5227C140.936 44.5776 140.831 44.7971 140.883 44.852C140.942 44.913 141.124 44.9826 141.199 45.099C141.256 45.1893 141.407 45.6413 141.435 45.7576C141.454 45.8375 141.4 45.9309 141.435 46.0046C141.681 46.5189 141.76 47.0073 142.065 47.4865C142.131 47.5897 142.13 47.8829 142.223 47.9805C142.264 48.0238 142.339 48.0194 142.381 48.0628C142.489 48.1757 142.646 48.6956 142.853 48.8037C143.002 48.8813 143.775 49.576 143.799 49.627C143.835 49.7024 143.789 49.9958 143.799 50.0387C143.808 50.0763 143.861 50.0863 143.878 50.121C143.909 50.1869 143.846 50.3021 143.878 50.368C144.015 50.6537 144.036 50.9346 144.036 51.2736C144.036 51.4108 143.957 51.85 144.036 51.9322C144.054 51.9516 144.103 51.9077 144.114 51.9322C144.18 52.07 144.091 52.4471 144.114 52.5908C144.169 52.9335 144.186 52.7337 144.272 53.0025C144.405 53.419 144.189 53.9701 144.272 54.4021C144.32 54.6551 144.286 55.1058 144.351 55.3077C144.359 55.3337 144.411 55.2883 144.43 55.3077C144.537 55.4194 144.367 55.9012 144.508 56.0486C144.527 56.068 144.575 56.0241 144.587 56.0486C144.769 56.4276 144.81 56.8425 144.981 57.2012C145.019 57.2798 145.158 57.5632 145.218 57.6129C145.309 57.6895 145.441 57.7008 145.533 57.7775C145.579 57.8159 145.57 57.8988 145.612 57.9422C145.875 58.2169 146.185 58.3652 146.478 58.5185C146.609 58.5868 146.62 58.7652 146.715 58.8478C146.905 59.0135 147.115 59.1633 147.345 59.2594C147.394 59.2798 147.453 59.2421 147.503 59.2594C147.673 59.3188 147.823 59.4974 147.976 59.5887C148.388 59.8347 148.4 59.6767 148.606 60.0004C148.668 60.0973 148.816 60.1344 148.843 60.2474C148.862 60.3272 148.821 60.4152 148.843 60.4944C148.875 60.6124 148.97 60.7051 149 60.8237C149.097 61.2033 149.145 61.5951 149.237 61.9762C149.342 62.4173 149.151 62.9292 149.237 63.3758C149.303 63.7207 149.318 63.546 149.473 63.8698C149.538 64.0047 149.427 64.2185 149.473 64.3638C149.582 64.7037 149.651 64.8481 149.867 65.187C149.96 65.3333 150.107 65.4415 150.182 65.5987C150.307 65.8592 150.138 66.2573 150.498 66.2573C150.692 66.2573 150.618 66.2961 150.734 66.175C150.735 66.4735 150.601 66.8786 150.684 67.1817C150.817 67.6687 150.745 67.1933 150.851 67.4146C150.859 67.4319 150.836 67.462 150.851 67.4728C150.9 67.5068 150.973 67.4927 151.018 67.531C151.143 67.6354 151.215 67.8305 151.353 67.9385C151.472 68.0322 151.618 68.0843 151.743 68.1713C151.919 68.2941 151.991 68.5308 152.133 68.6953C152.27 68.8541 152.754 69.0277 152.802 69.1028C152.834 69.1538 152.807 69.2458 152.857 69.2774C152.989 69.3599 153.283 69.1982 153.414 69.3356C153.428 69.3493 153.401 69.3801 153.414 69.3938C153.541 69.5261 153.834 69.4725 153.972 69.5684C154.037 69.6141 154.062 69.7231 154.139 69.7431C154.211 69.7619 154.302 69.6965 154.362 69.7431C154.425 69.7925 154.458 69.8809 154.529 69.9177C155.015 70.1717 154.369 69.6316 154.863 69.9759C154.879 69.9867 154.849 70.022 154.863 70.0341C155.005 70.1527 155.125 70.2 155.253 70.267C155.331 70.3075 155.315 70.4304 155.365 70.4998C155.43 70.5907 155.548 70.5912 155.588 70.6745C155.766 71.0462 155.443 70.6395 155.866 71.082C156.062 71.286 156.286 71.4623 156.479 71.6641C156.503 71.6885 156.518 71.8035 156.535 71.8388C156.587 71.9482 156.743 71.9604 156.814 72.0716C157.076 72.4826 157.312 72.9415 157.649 73.2941C157.679 73.3248 157.732 73.3217 157.761 73.3523C157.807 73.4006 157.856 73.6732 157.872 73.7016C157.881 73.7165 158.102 73.9155 158.151 73.9927C158.221 74.1026 158.251 74.2371 158.318 74.342C158.328 74.3582 158.361 74.3283 158.374 74.342C158.387 74.3557 158.358 74.3894 158.374 74.4002C158.423 74.4342 158.494 74.4216 158.541 74.4584C158.574 74.4844 158.567 74.5441 158.597 74.5748C158.667 74.6484 158.799 74.6515 158.875 74.6912C159.099 74.808 159.214 75.0455 159.377 75.2152C159.547 75.3925 159.77 75.5674 159.934 75.7391C160.099 75.911 160.154 76.1807 160.268 76.3795C160.295 76.4265 160.356 76.4468 160.38 76.4959C160.418 76.5763 160.408 76.7003 160.436 76.787C160.452 76.839 160.524 76.8543 160.547 76.9034C160.597 77.0075 160.52 77.1397 160.547 77.2527C160.552 77.2715 160.584 77.2527 160.603 77.2527C160.621 77.3109 160.647 77.3671 160.658 77.4273C160.734 77.8227 160.872 78.1651 161.048 78.5334C161.1 78.6414 161.109 78.8347 161.16 78.9409C161.168 78.9583 161.207 78.9235 161.216 78.9409C161.232 78.9756 161.199 79.0226 161.216 79.0573C161.263 79.1555 161.376 79.2024 161.439 79.2902C161.474 79.3393 161.442 79.4374 161.494 79.4649C161.648 79.5452 161.594 79.3238 161.717 79.5813C161.734 79.616 161.703 79.6616 161.717 79.6977C161.756 79.7988 162.121 80.2941 162.163 80.338C162.176 80.3518 162.208 80.3219 162.219 80.338C162.251 80.3891 162.248 80.4578 162.274 80.5127C162.326 80.6208 162.485 80.709 162.553 80.8038C162.588 80.8529 162.567 80.935 162.609 80.9784C162.638 81.0091 162.691 81.006 162.72 81.0366C162.808 81.1287 162.764 81.2797 162.832 81.3859C162.852 81.4182 162.917 81.3585 162.943 81.3859C163.116 81.5663 163.264 81.7865 163.5 81.9098C163.533 81.9272 163.585 81.8824 163.612 81.9098C163.641 81.9405 163.633 82.0022 163.667 82.0263C163.764 82.0937 163.882 82.022 164.002 82.0845C164.137 82.1549 164.328 82.3131 164.448 82.3755C164.514 82.4103 164.604 82.3408 164.67 82.3755C164.723 82.403 164.679 82.5134 164.726 82.5502C164.853 82.6497 165.017 82.6889 165.172 82.7248C165.512 82.8038 167.641 82.8547 167.847 82.783C167.864 82.7771 167.831 82.7356 167.847 82.7248C168.231 82.4572 167.886 82.7998 168.07 82.6084C168.107 82.5696 168.137 82.5224 168.181 82.492C168.196 82.4812 168.231 82.5103 168.237 82.492C168.3 82.295 168.23 82.2443 168.46 82.0845C168.643 81.9567 168.794 81.8079 168.961 81.677C169.075 81.5877 169.239 81.6189 169.351 81.5605C169.425 81.5222 169.715 81.2682 169.797 81.2112C170.157 80.9606 171.912 81.0948 172.416 81.0948C172.588 80.9431 172.794 80.6908 173.029 80.6293C173.153 80.597 173.168 80.6779 173.308 80.6293C173.371 80.6072 173.415 80.5442 173.475 80.5129C173.576 80.46 174.176 80.3446 174.255 80.3383C174.403 80.3263 174.554 80.3619 174.701 80.3383C174.754 80.3297 175.252 80.185 175.314 80.1636C175.439 80.1199 175.841 80.1653 175.927 80.1054C176.051 80.0192 176.157 79.9142 176.317 79.8726C176.473 79.8317 176.664 79.9187 176.818 79.8726C176.931 79.8388 177.038 79.7827 177.153 79.7561C177.542 79.6657 177.76 79.701 178.1 79.5233C178.185 79.4791 178.294 79.5093 178.379 79.4651C178.395 79.4564 178.366 79.4206 178.379 79.4069C178.421 79.3627 178.727 79.4242 178.769 79.4069C178.818 79.3865 178.835 79.3187 178.88 79.2904C178.956 79.2427 179.211 79.2361 179.27 79.174C179.3 79.1433 179.297 79.0883 179.326 79.0576C179.339 79.0439 179.368 79.0713 179.382 79.0576C179.411 79.0269 179.408 78.9718 179.437 78.9412C179.477 78.9 179.55 78.9553 179.605 78.9412C179.913 78.8606 180.173 78.7315 180.44 78.5919C180.486 78.568 180.855 78.5593 180.886 78.5919C180.939 78.6468 180.863 78.7511 180.886 78.8247C180.892 78.8431 180.925 78.8161 180.942 78.8247C180.989 78.8493 181.03 78.8921 181.053 78.9412C181.07 78.9759 181.037 79.0229 181.053 79.0576C181.083 79.1202 181.2 79.2615 181.22 79.3487C181.234 79.4052 181.203 79.4681 181.22 79.5233C181.364 79.9724 181.356 79.6578 181.443 79.9308C181.53 80.2026 181.398 80.5807 181.443 80.8622C181.47 81.0274 181.468 81.2234 181.499 81.3862C181.404 81.5438 181.584 81.5367 181.61 81.619C181.653 81.7519 181.624 83.7887 181.61 83.8312C181.589 83.8976 181.52 83.9394 181.499 84.0058C181.449 84.1632 181.526 84.24 181.443 84.4134C181.368 84.5713 181.219 84.534 181.165 84.7626C181.127 84.9186 181.157 85.137 181.109 85.2866C181.076 85.389 180.971 85.4872 180.942 85.5776C180.895 85.7251 180.961 86.02 180.942 86.1598C180.919 86.3302 180.707 86.5936 180.663 86.8002C180.647 86.8759 180.675 86.9565 180.663 87.033C180.636 87.2023 180.509 87.3548 180.44 87.4987C180.395 87.5943 180.44 87.7314 180.385 87.848C180.361 87.8971 180.297 87.9154 180.273 87.9644C180.257 87.9992 180.282 88.0432 180.273 88.0809C180.246 88.1925 180.085 88.3674 180.05 88.4302C179.992 88.5367 179.991 88.6697 179.939 88.7794C179.956 88.904 179.849 88.8005 179.827 88.8376C179.776 88.9272 179.774 89.0437 179.716 89.1287C179.677 89.1856 179.596 89.1956 179.549 89.2451C179.448 89.3499 179.233 89.5812 179.159 89.7109C179.128 89.7635 179.136 89.8344 179.103 89.8855C178.983 90.0743 178.847 90.2234 178.713 90.4095C178.563 90.6181 178.741 90.5549 178.434 90.8752C178.411 90.9512 178.26 90.9445 178.211 91.0207C178.186 91.061 178.149 91.0937 178.128 91.1371C178.12 91.1545 178.135 91.1772 178.128 91.1953C178.066 91.3579 177.902 91.4674 177.849 91.6319C177.844 91.6503 177.86 91.674 177.849 91.6901C177.821 91.7341 177.784 91.7215 177.766 91.7774C177.751 91.8244 177.756 91.8775 177.738 91.923C177.727 91.9482 177.698 91.9592 177.682 91.9811C177.65 92.0259 177.628 92.0801 177.599 92.1267C177.54 92.2176 177.393 92.3124 177.32 92.3887C177.305 92.404 177.307 92.4315 177.292 92.4468C177.262 92.4785 177.256 92.3952 177.236 92.476C177.23 92.5042 177.243 92.535 177.236 92.5633C177.224 92.6135 177.141 92.6014 177.125 92.6506C177.102 92.7232 177.105 92.809 177.069 92.8835C177.03 92.9655 176.987 93.0125 176.93 93.0872C176.859 93.1792 176.794 93.3381 176.763 93.4365C176.736 93.5214 176.641 93.5644 176.595 93.6403C176.545 93.7241 176.518 93.7903 176.456 93.8731C176.375 93.982 176.299 94.0958 176.205 94.1933C176.199 94.2001 176.184 94.1866 176.178 94.1933C176.119 94.2542 176.062 94.372 176.01 94.4262C175.953 94.4864 176.013 94.3342 175.955 94.4553C175.941 94.4828 175.942 94.5163 175.927 94.5426C175.902 94.585 175.837 94.6141 175.815 94.6591C175.791 94.7099 175.77 94.7832 175.732 94.8337C175.719 94.8507 175.691 94.8474 175.676 94.8628C175.624 94.9171 175.638 94.9936 175.565 95.0375C175.521 95.0634 175.467 95.0667 175.425 95.0957C175.355 95.1446 175.244 95.4155 175.202 95.5032C175.013 95.8991 175.252 95.3947 175.091 95.6196C175.029 95.7061 175.014 95.8478 174.952 95.9398C174.89 96.0293 174.776 96.1023 174.729 96.2018C174.72 96.2191 174.736 96.242 174.729 96.2599C174.704 96.3249 174.656 96.3777 174.617 96.4346C174.602 96.4563 174.511 96.6043 174.478 96.6383C174.471 96.6451 174.455 96.6299 174.45 96.6383C174.386 96.7381 174.397 96.7629 174.311 96.8712C174.257 96.938 174.211 96.9636 174.171 97.0458C174.022 97.3582 173.872 97.7004 173.726 98.0064C173.704 98.052 173.638 98.0792 173.614 98.1228C173.589 98.1682 173.581 98.2216 173.559 98.2684C173.543 98.2999 173.405 98.3948 173.391 98.4139C173.361 98.4556 173.371 98.5225 173.336 98.5594C173.329 98.5662 173.317 98.5594 173.308 98.5594C173.28 98.5886 173.248 98.6138 173.224 98.6467C173.218 98.6544 173.224 98.6662 173.224 98.6759C173.215 98.6953 173.209 98.7172 173.196 98.7341C172.968 99.0316 173.278 98.5337 173.057 98.9961C173.032 99.0488 172.86 99.3076 172.834 99.3453C172.735 99.487 172.627 99.6138 172.528 99.7529C172.484 99.8135 172.412 99.8448 172.36 99.8984C172.313 99.9479 172.292 100.019 172.249 100.073C172.204 100.129 172.09 100.214 172.054 100.277C172.029 100.321 172.036 100.399 171.998 100.451C171.946 100.524 171.868 100.598 171.831 100.684C171.807 100.74 171.808 100.808 171.775 100.859C171.75 100.899 171.694 100.909 171.664 100.946C171.645 100.97 171.652 101.008 171.636 101.034C171.631 101.042 171.615 101.027 171.608 101.034C171.559 101.085 171.526 101.235 171.469 101.296C171.454 101.311 171.425 101.307 171.413 101.325C171.403 101.341 171.421 101.365 171.413 101.383C171.41 101.39 171.266 101.485 171.246 101.528C171.231 101.559 171.261 101.614 171.246 101.645C171.208 101.724 171.134 101.695 171.134 101.819C170.954 101.985 170.761 102.137 170.593 102.317C170.522 102.392 170.468 102.66 170.435 102.729C170.357 102.892 170.138 102.988 170.041 103.14C169.995 103.212 170.021 103.326 169.962 103.387C169.904 103.449 169.785 103.408 169.726 103.47C169.689 103.508 169.763 103.595 169.726 103.634C169.674 103.689 169.196 104 169.174 104.046C169.126 104.147 169.163 104.287 169.095 104.375C169.044 104.443 168.925 104.405 168.859 104.458C168.812 104.494 168.822 104.579 168.78 104.622C168.743 104.662 168.52 104.744 168.465 104.787C167.966 105.178 167.577 105.48 166.968 105.692C166.722 105.778 166.994 105.747 166.889 105.857C166.782 105.969 166.403 106.035 166.258 106.186C166.095 106.357 166.508 106.18 166.18 106.351C165.899 106.498 165.719 106.715 165.47 106.845C165.396 106.884 165.302 106.877 165.234 106.927C165.083 107.04 165.006 107.252 164.84 107.339C164.766 107.378 164.682 107.394 164.604 107.421C164.498 107.449 164.385 107.453 164.288 107.504C164.236 107.531 164.258 107.634 164.21 107.668C163.992 107.82 163.72 107.921 163.5 107.998C163.35 108.05 163.246 108.336 163.106 108.409C163.059 108.434 162.992 108.379 162.949 108.409C162.9 108.443 162.919 108.54 162.87 108.574C162.752 108.656 162.602 108.673 162.476 108.739C162.383 108.787 162.174 109.02 162.082 109.068C162.035 109.093 161.974 109.051 161.924 109.068C161.673 109.156 161.507 109.495 161.294 109.644C161.121 109.765 160.861 109.736 160.663 109.891C160.438 110.068 160.229 110.263 160.033 110.467C159.934 110.57 159.578 111.141 159.481 111.208C159.438 111.239 159.366 111.176 159.324 111.208C159.248 111.268 159.233 111.385 159.166 111.455C159.028 111.599 158.752 111.641 158.614 111.785C158.547 111.855 158.533 111.972 158.457 112.032C158.299 112.155 158.339 111.97 158.22 112.032C157.999 112.147 157.876 112.464 157.669 112.608C157.461 112.752 157.247 112.874 157.038 113.02C156.882 113.011 157.001 113.141 156.959 113.184C156.619 113.54 156.604 113.474 156.329 113.761C156.288 113.804 156.292 113.882 156.25 113.925C156.171 114.008 156.03 114.073 155.935 114.172C155.893 114.216 155.898 114.294 155.856 114.337C155.797 114.398 155.679 114.358 155.62 114.419C155.555 114.487 155.469 114.741 155.383 114.831C155.29 114.928 155.161 114.981 155.068 115.078C155.05 115.097 155.068 115.133 155.068 115.16C155.042 115.215 155.031 115.281 154.989 115.325C154.857 115.463 154.706 115.461 154.595 115.654C154.313 116.146 154.06 116.609 153.807 117.136C153.744 117.269 153.631 117.309 153.571 117.465C153.492 117.671 153.42 117.863 153.334 118.042C153.299 118.115 153.37 118.215 153.334 118.289C153.259 118.446 153.094 118.543 153.019 118.7C152.795 119.169 152.972 119.771 152.783 120.265C152.59 120.768 152.232 121.416 151.995 121.911C151.929 122.048 151.769 122.065 151.679 122.158C151.588 122.253 151.442 122.695 151.364 122.817C151.119 123.202 150.744 123.5 150.497 123.887C150.424 124.002 150.471 124.134 150.419 124.216C150.276 124.44 150.123 124.618 150.025 124.875C149.97 125.017 150.071 125.223 150.025 125.369C150.013 125.406 149.955 125.414 149.946 125.451C149.916 125.577 149.912 126.204 149.867 126.275C149.759 126.443 149.616 126.651 149.552 126.851C149.473 127.098 149.591 126.933 149.552 127.098C149.383 127.805 149.394 128.49 149.394 129.238C149.394 129.282 149.356 131.586 149.394 131.626C149.479 131.714 149.571 131.767 149.631 131.955C149.662 132.054 149.599 132.186 149.631 132.284C149.765 132.707 149.677 132.686 149.946 133.108C150.072 133.305 150.019 134.026 150.103 134.26C150.145 134.375 150.301 134.469 150.34 134.59C150.372 134.69 150.315 134.816 150.34 134.919C150.351 134.968 150.727 136.143 150.734 136.154C150.916 136.439 150.97 136.366 150.97 136.73C150.874 137.207 151.367 137.01 151.464 137.214C151.472 137.231 151.464 137.253 151.464 137.272C151.52 137.33 151.591 137.376 151.631 137.447C151.658 137.494 151.66 137.623 151.687 137.68C151.711 137.729 151.788 137.742 151.798 137.796C151.813 137.872 151.784 137.953 151.798 138.029C151.809 138.084 151.978 138.333 152.021 138.378C152.122 138.484 152.191 138.497 152.244 138.553C152.31 138.622 152.323 138.755 152.411 138.786C152.447 138.798 152.49 138.768 152.523 138.786C152.539 138.794 152.51 138.83 152.523 138.844C152.589 138.913 152.68 138.95 152.746 139.019C152.759 139.032 152.733 139.063 152.746 139.077C152.832 139.167 153.199 139.325 153.247 139.426C153.281 139.496 153.224 139.585 153.247 139.659C153.253 139.677 153.286 139.65 153.303 139.659C153.35 139.684 153.391 139.726 153.414 139.775C153.472 139.897 153.323 140.32 153.414 140.416C153.444 140.446 153.503 140.438 153.526 140.474C153.615 140.613 153.501 141.993 153.47 142.22C153.387 142.829 153.566 143.534 153.303 144.083C153.203 144.292 153.348 144.81 153.247 145.073C153.228 145.124 153.159 145.14 153.136 145.189C153.109 145.246 153.148 145.418 153.136 145.48C153.105 145.64 153.062 145.788 153.024 145.946C152.938 146.307 153.024 146.863 153.024 147.227C153.024 148.123 152.939 149.186 153.024 150.079C153.035 150.192 153.313 150.928 153.359 151.011C153.385 151.058 153.454 151.075 153.47 151.127C153.482 151.164 153.454 151.209 153.47 151.244C153.534 151.377 153.645 151.384 153.693 151.535C153.715 151.602 153.663 151.705 153.693 151.768C153.824 152.041 153.972 153.227 153.972 153.572C153.972 153.754 154.03 154.381 153.972 154.504C153.922 154.608 153.817 154.607 153.749 154.678C153.653 154.778 153.728 154.809 153.582 154.911C153.495 154.971 153.388 154.836 153.303 154.969C153.282 155.002 153.322 155.053 153.303 155.086C153.216 155.237 153.075 155.324 152.969 155.435C152.886 155.522 152.91 155.675 152.857 155.784C152.815 155.874 152.758 155.83 152.69 155.901C152.552 156.045 152.423 156.297 152.3 156.425C152.287 156.439 152.259 156.413 152.244 156.425C152.142 156.511 152.083 156.654 151.966 156.716C151.73 156.839 151.39 157.142 151.186 157.356C151.162 157.381 150.994 157.623 150.963 157.647C150.768 157.8 150.508 157.885 150.294 157.997C150.218 158.036 150.147 158.132 150.071 158.171C150.038 158.189 149.989 158.148 149.96 158.171C149.623 158.435 149.982 158.346 149.402 158.579C149.276 158.629 149.036 158.624 148.901 158.695C148.792 158.752 148.673 158.879 148.567 158.928C148.443 158.985 148.303 158.995 148.176 159.044C148.127 159.064 148.116 159.148 148.065 159.161C148.011 159.175 147.951 159.145 147.898 159.161C147.718 159.215 147.163 159.486 147.006 159.568C146.874 159.637 146.791 159.824 146.672 159.918C146.512 160.043 146.332 160.038 146.17 160.151C146.105 160.196 146.066 160.276 146.003 160.325C145.843 160.451 145.535 160.372 145.335 160.442C145.094 160.525 145.36 160.514 145 160.674C144.949 160.697 144.888 160.663 144.833 160.674C144.766 160.689 144.597 160.863 144.554 160.907C144.541 160.921 144.571 160.957 144.554 160.966C144.521 160.983 144.479 160.956 144.443 160.966C144.278 161.009 144.169 161.194 144.053 161.315C143.54 161.449 143.697 161.342 143.551 161.722C143.489 161.886 143.518 161.716 143.44 161.781C143.358 161.849 143.297 161.942 143.217 162.014C143.029 162.182 142.508 162.289 142.381 162.421C142.368 162.435 142.381 162.46 142.381 162.479C142.325 162.518 142.276 162.57 142.214 162.596C142.18 162.61 142.137 162.581 142.103 162.596C141.981 162.647 141.793 162.833 141.713 162.945C141.649 163.034 141.609 163.147 141.545 163.236C141.492 163.31 141.3 163.441 141.267 163.527C141.246 163.581 141.292 163.65 141.267 163.702C141.248 163.741 141.185 163.729 141.155 163.76C141.092 163.826 141.08 163.944 140.988 163.993C140.936 164.02 140.87 164.017 140.821 164.051C140.805 164.062 140.777 164.2 140.765 164.226C140.723 164.314 140.61 164.316 140.542 164.458C140.497 164.554 140.596 164.715 140.542 164.808C140.508 164.868 140.422 164.875 140.375 164.924C140.274 165.029 140.251 165.229 140.152 165.332C140.096 165.39 139.997 165.436 139.929 165.506C139.9 165.537 139.903 165.592 139.874 165.623C139.847 165.651 139.689 165.709 139.651 165.739C139.427 165.915 139.279 166.153 139.038 166.321C138.934 166.393 138.807 166.424 138.703 166.496C138.54 166.61 138.526 166.705 138.425 166.845C138.356 166.941 138.256 166.964 138.202 167.02C138.149 167.075 138.22 167.177 138.202 167.253C138.186 167.321 138.107 167.36 138.091 167.427C138.082 167.465 138.102 167.507 138.091 167.544C138.034 167.721 137.94 167.879 137.868 168.068C137.788 168.276 137.77 170.043 137.868 170.28C137.904 170.369 137.998 170.424 138.035 170.513C138.057 170.566 138.017 170.632 138.035 170.687C138.04 170.706 138.085 170.669 138.09 170.687C138.108 170.743 138.077 170.806 138.09 170.862C138.097 170.889 138.134 170.896 138.146 170.92C138.225 171.085 138.235 171.28 138.313 171.444C138.35 171.52 138.642 171.904 138.703 171.968C138.738 172.004 138.849 172.018 138.871 172.085C138.882 172.121 138.847 172.171 138.871 172.201C139.112 172.503 139.497 172.637 139.651 172.958C139.667 172.993 139.634 173.04 139.651 173.074C139.71 173.198 139.703 173.067 139.762 173.191C139.8 173.269 139.747 173.461 139.762 173.54C139.78 173.633 139.861 173.737 139.874 173.831C139.937 174.291 139.91 174.237 140.041 174.646C140.136 174.943 139.946 175.339 140.041 175.636C140.206 176.153 140.096 177.088 140.096 177.673C140.096 177.915 140.064 178.19 140.096 178.43C140.135 178.709 140.198 179.016 140.152 179.303C140.124 179.477 139.905 179.715 139.762 179.827C139.68 179.891 139.444 179.752 139.372 179.827C138.757 180.47 139.443 179.848 139.038 180.06C139.025 180.067 138.55 180.65 138.481 180.759C138.46 180.791 138.507 180.848 138.481 180.875C138.454 180.903 138.004 180.907 137.923 180.991C137.87 181.047 137.857 181.119 137.756 181.224C137.73 181.252 137.671 181.197 137.645 181.224C137.632 181.238 137.645 181.263 137.645 181.282C137.608 181.321 137.577 181.368 137.533 181.399C137.434 181.468 137.12 181.598 137.032 181.69C137.002 181.721 137.005 181.776 136.976 181.806C136.934 181.85 136.835 181.81 136.809 181.865C136.792 181.899 136.831 181.95 136.809 181.981C136.771 182.034 136.596 182.116 136.53 182.156C136.208 182.348 136.063 182.28 135.75 182.389C135.7 182.406 135.633 182.371 135.583 182.389C135.453 182.434 135.582 182.651 135.471 182.738C135.368 182.818 135.249 182.755 135.249 182.912C135.137 182.971 135.022 183.023 134.914 183.087C134.774 183.171 134.659 183.343 134.524 183.437C134.233 183.639 133.882 183.758 133.633 184.019C133.574 184.08 133.58 184.19 133.521 184.252C133.492 184.282 133.439 184.279 133.41 184.31C133.347 184.376 133.335 184.494 133.243 184.543C133.226 184.551 133.193 184.524 133.187 184.543C133.169 184.598 133.2 184.661 133.187 184.717C133.148 184.879 133.136 184.712 133.075 184.775C133.024 184.829 132.765 185.167 132.741 185.241C132.718 185.315 132.759 185.399 132.741 185.474C132.687 185.701 132.589 186.171 132.685 186.405C132.728 186.509 132.804 186.595 132.853 186.697C132.892 186.779 132.848 186.824 132.908 186.929C132.956 187.013 133.034 187.075 133.075 187.162C133.177 187.374 133.038 187.803 133.075 188.035C133.104 188.216 133.228 188.297 133.298 188.443C133.376 188.606 133.279 188.991 133.243 189.142C133.188 189.37 133.186 189.146 133.131 189.374C132.963 190.075 132.67 190.76 132.462 191.412C132.431 191.51 132.346 191.44 132.295 191.528C132.253 191.603 132.227 191.687 132.184 191.761C132.104 191.9 131.919 191.908 131.85 192.052C131.841 192.07 131.863 192.097 131.85 192.111C131.802 192.16 131.724 192.172 131.682 192.227C131.646 192.275 131.645 192.343 131.627 192.402C131.571 192.44 131.507 192.468 131.459 192.518C131.446 192.532 131.459 192.557 131.459 192.576C131.459 192.615 131.486 192.665 131.459 192.693C131.42 192.734 131.332 192.651 131.292 192.693C131.266 192.72 131.319 192.782 131.292 192.809C131.279 192.823 131.255 192.809 131.237 192.809C131.181 192.906 131.132 193.008 131.069 193.1C131.042 193.141 130.387 193.886 130.345 193.915C130.329 193.926 130.302 193.901 130.289 193.915C130.232 193.975 130.212 194.088 130.178 194.148C130.072 194.332 129.815 194.556 129.732 194.73C129.724 194.747 129.732 194.769 129.732 194.788C129.714 194.827 129.699 194.869 129.676 194.905C129.682 195.02 129.594 194.932 129.565 194.963C129.465 195.067 129.317 195.251 129.231 195.37C129.087 195.57 129.001 195.793 128.896 196.011C128.781 196.252 128.453 196.413 128.339 196.651C128.313 196.706 128.318 196.777 128.283 196.826C128.28 196.99 128.158 196.841 128.116 196.884C128.07 196.933 127.882 197.175 127.838 197.233C127.701 197.412 127.679 197.555 127.615 197.757C127.577 197.876 127.374 198.143 127.336 198.223C127.282 198.336 127.26 198.535 127.169 198.63C127.156 198.644 127.126 198.617 127.113 198.63C127.041 198.706 126.951 199.16 126.89 199.271C126.815 199.408 126.704 199.407 126.612 199.504C126.609 199.506 126.555 199.952 126.5 200.028C126.469 200.071 126.138 200.537 126.11 200.552C126.049 200.583 125.869 200.733 125.831 200.784C125.796 200.834 125.802 200.904 125.776 200.959C125.764 200.984 125.739 200.998 125.72 201.017C125.683 201.056 125.632 201.085 125.609 201.134C125.592 201.168 125.629 201.218 125.609 201.25C125.586 201.286 125.52 201.272 125.497 201.308C125.477 201.341 125.518 201.392 125.497 201.425C125.475 201.46 125.136 201.759 125.107 201.774C124.953 201.855 124.877 202.073 124.773 202.182C124.647 202.559 124.334 202.814 124.048 203.113C124.019 203.144 123.962 203.137 123.937 203.171C123.806 203.354 123.863 203.423 123.714 203.579C123.701 203.593 123.671 203.565 123.658 203.579C123.538 203.704 123.664 203.801 123.602 203.928C123.233 204.314 123.655 203.818 123.491 204.161C123.403 204.344 123.222 204.325 123.101 204.452C123.015 204.542 122.901 204.955 122.822 205.092C122.96 205.269 122.671 205.193 122.655 205.209C122.629 205.236 122.686 205.304 122.655 205.325C122.606 205.359 122.54 205.356 122.488 205.383C122.339 205.461 122.139 205.695 121.986 205.791C121.87 205.864 121.709 205.829 121.596 205.907C121.541 205.946 121.538 206.04 121.485 206.082C121.373 206.169 121.401 206.038 121.318 206.082C120.723 206.393 121.559 205.985 121.039 206.373C120.95 206.44 120.677 206.518 120.593 206.606C120.547 206.654 120.462 206.763 120.426 206.839C120.385 206.926 120.276 206.953 120.203 207.013C120.016 207.17 120.141 207.136 119.925 207.363C119.49 207.817 119.865 207.381 119.59 207.596C119.422 207.452 119.494 207.754 119.479 207.77C119.399 207.854 118.863 208.023 118.754 208.061C118.73 208.07 118.717 208.1 118.699 208.12C118.662 208.139 118.627 208.164 118.587 208.178C118.395 208.245 118.225 208.271 118.03 208.352C117.852 208.427 117.66 208.57 117.473 208.643C117.18 208.758 117.271 208.66 116.916 208.702C116.885 208.705 116.435 208.865 116.414 208.876C116.397 208.885 116.431 208.926 116.414 208.934C116.299 208.995 116.088 208.951 115.968 208.993C115.682 209.092 115.484 209.329 115.188 209.4C115.183 209.401 114.431 209.493 114.408 209.517C114.378 209.548 114.441 209.732 114.408 209.749C114.296 209.808 114.138 209.782 114.018 209.866C113.869 209.969 114.241 209.885 113.962 209.982C113.726 210.065 113.403 210.041 113.182 210.099C112.921 210.167 112.662 210.219 112.402 210.273C111.807 210.398 111.785 209.88 111.51 209.808C111.378 209.773 111.194 209.8 111.065 209.749C110.074 209.361 111.096 209.671 110.452 209.575C110.059 209.845 110.35 209.472 110.284 209.458C110.036 209.407 109.758 209.433 109.504 209.4C108.897 209.321 108.34 209.284 107.721 209.284C107.614 209.284 107.247 209.248 107.108 209.284C106.991 209.315 107.086 209.505 107.053 209.575C107.011 209.662 106.941 209.73 106.885 209.808C106.832 209.882 106.677 210.062 106.607 210.099C106.574 210.116 106.531 210.086 106.495 210.099C106.437 210.119 106.397 210.267 106.384 210.273C106.315 210.309 106.235 210.312 106.161 210.332C106.087 210.39 106.019 210.458 105.938 210.506C105.872 210.546 105.769 210.508 105.715 210.564C105.492 210.797 105.845 210.584 105.548 210.739C105.393 210.82 105.279 210.877 105.102 210.914C105.057 210.923 104.976 210.893 104.935 210.914C104.888 210.938 104.871 211.006 104.824 211.03C104.757 211.065 104.673 211.013 104.601 211.03C104.482 211.058 103.887 211.221 103.765 211.263C103.485 211.36 103.253 211.559 102.985 211.671C102.773 211.759 102.385 211.694 102.149 211.787C102.028 211.834 101.945 211.939 101.815 211.962C101.613 211.997 101.353 211.962 101.146 211.962C100.626 211.962 100.106 211.962 99.5856 211.962C99.2356 211.962 98.7039 211.872 98.3597 211.962C98.2993 211.977 98.3242 212.06 98.2482 212.02C98.1407 211.964 98.229 211.921 98.1925 211.845C98.1351 211.725 98.0788 211.607 98.0254 211.496C97.9633 211.366 98.0422 211.182 97.9697 211.03C97.8923 210.869 97.8701 210.671 97.8025 210.506C97.7101 210.281 97.5751 210.08 97.5239 209.866C97.5103 209.809 97.5415 209.746 97.5239 209.691C97.5233 209.69 97.4229 209.677 97.3567 209.4C97.1979 209.424 97.3058 209.137 97.273 209.08C97.2255 208.998 97.1299 208.929 97.0779 208.847C97.0731 208.839 97.0863 208.823 97.0779 208.818C97.0613 208.809 97.0376 208.829 97.0222 208.818C97.003 208.805 96.9702 208.678 96.9665 208.673C96.9076 208.58 96.9706 208.81 96.9108 208.644C96.8871 208.577 96.8789 208.506 96.8551 208.44C96.8358 208.386 96.7684 208.317 96.7437 208.265C96.7066 208.187 96.7808 208.052 96.7437 207.974C96.7396 207.965 96.7188 207.983 96.7158 207.974C96.6911 207.897 96.7158 207.767 96.7158 207.683C96.7158 207.55 96.7085 207.436 96.6879 207.305C96.6652 207.163 96.7105 207.01 96.6879 206.868C96.6814 206.827 96.613 206.75 96.6043 206.722C96.5809 206.649 96.5873 206.365 96.5764 206.286C96.5649 206.202 96.5068 206.111 96.4928 206.024C96.4771 205.925 96.5012 205.8 96.4928 205.704C96.4684 205.423 96.4855 205.141 96.4649 204.86C96.4477 204.626 96.3433 204.052 96.242 203.841C96.1993 203.751 96.1363 203.672 96.1027 203.579C96.0764 203.506 96.1027 203.419 96.0749 203.346C96.0217 203.207 95.9188 202.891 95.852 202.793C95.8291 202.759 95.7903 202.74 95.7684 202.706C95.7286 202.643 95.7247 202.447 95.7127 202.414C95.6202 202.166 95.4649 201.926 95.3505 201.687C95.3151 201.613 95.3388 201.58 95.3225 201.512C95.2999 201.417 95.2467 201.412 95.2111 201.338C95.1945 201.303 95.2201 201.259 95.2111 201.221C95.2015 201.181 95.1554 201.163 95.1275 201.134C94.9975 201.017 94.8586 200.911 94.7375 200.785C94.5956 200.636 94.4922 200.33 94.4032 200.144C94.3518 200.037 94.1464 199.922 94.1246 199.853C94.1128 199.816 94.1437 199.77 94.1246 199.737C94.0045 199.528 93.6958 199.441 93.6231 199.213C93.5881 199.103 93.5411 198.987 93.5116 198.863C93.4941 198.79 93.5291 198.704 93.5116 198.631C93.4573 198.404 93.2709 198.186 93.1773 197.99C93.1479 197.929 93.2152 197.814 93.1773 197.757C93.0473 197.602 92.9172 197.447 92.7872 197.292C92.7687 197.253 92.7545 197.211 92.7315 197.175C92.6762 197.089 92.5731 197.102 92.5086 197.001C92.4241 196.868 92.3667 196.72 92.2857 196.593C92.2754 196.577 92.2383 196.61 92.23 196.593C92.1604 196.448 92.1229 196.226 92.0629 196.069C92.0094 195.93 91.875 195.866 91.84 195.72C91.7835 195.484 91.8581 195.189 91.7285 194.963C91.7128 194.936 91.5668 194.858 91.5614 194.847C91.475 194.666 91.4223 194.44 91.3385 194.264C91.315 194.215 91.2414 194.201 91.227 194.148C91.196 194.035 91.207 193.911 91.1713 193.799C91.1303 193.671 90.2954 192.709 90.1683 192.576C90.1389 192.546 90.0862 192.549 90.0568 192.518C89.9332 192.389 90.0642 192.317 90.0012 192.169C89.9467 192.041 89.8433 191.942 89.7783 191.819C89.6947 191.662 89.6876 191.514 89.6111 191.354C89.5876 191.305 89.5311 191.281 89.4996 191.237C89.3419 191.018 89.213 190.638 89.1096 190.422C89.0861 190.373 89.0216 190.355 88.9981 190.306C88.9815 190.271 89.0244 190.217 88.9981 190.189C88.9508 190.14 88.8711 190.129 88.831 190.073C88.6081 189.763 88.7319 189.814 88.6081 189.607C88.5234 189.466 88.4009 189.349 88.3294 189.2C88.2653 189.066 88.3587 188.829 88.3294 188.676C88.2461 188.24 88.3381 188.602 88.1623 188.327C88.135 188.284 88.1696 188.055 88.1623 188.036C88.1067 187.89 88.0064 187.768 87.9394 187.628C87.9038 187.554 87.9994 187.512 87.8837 187.512C87.764 187.525 87.7152 187.264 87.6328 187.221C87.5771 187.191 87.6328 187.279 87.5492 187.221C87.4802 187.173 87.2957 186.831 87.2706 186.726C87.3331 186.599 87.2212 186.694 87.2149 186.667C87.1994 186.603 87.2358 186.5 87.2149 186.435C87.1571 186.253 87.1923 186.084 87.1592 185.911C87.1122 185.666 87.1588 185.91 87.1035 185.794C87.0393 185.66 87.1018 185.756 87.0756 185.62C87.0593 185.535 86.9939 185.468 86.9641 185.387C86.8047 185.325 86.9355 185.21 86.9084 185.125C86.8883 185.062 86.8242 184.987 86.797 184.921C86.7463 184.798 86.7423 184.693 86.7134 184.572C86.7675 184.491 86.6677 184.497 86.6577 184.455C86.6402 184.382 86.6752 184.296 86.6577 184.222C86.5906 183.942 86.5384 183.672 86.5184 183.378C86.5027 183.149 86.5494 182.907 86.5184 182.68C86.4914 182.483 86.4261 182.298 86.4069 182.098C86.3958 181.982 86.4142 181.865 86.4069 181.748C86.3945 181.553 86.3044 181.358 86.2676 181.166C86.2494 181.071 86.2254 180.974 86.2119 180.875C86.2038 180.818 86.2326 180.755 86.2119 180.7C86.2022 180.675 86.166 180.668 86.1562 180.642C86.109 180.519 86.1759 180.012 86.1562 179.827C86.1369 179.645 86.0814 179.505 86.0448 179.332C86.0092 179.165 86.0375 178.902 85.9891 178.75C85.9334 178.576 85.9072 178.377 85.8498 178.197C85.7984 178.036 85.7327 177.889 85.6826 177.732C85.6575 177.653 85.6703 177.551 85.6547 177.47C85.6424 177.405 85.5711 177.356 85.5711 177.295C85.5866 176.707 85.6804 176.083 85.5227 175.507C85.5124 175.469 85.5345 175.42 85.5227 175.383C85.4813 175.254 85.3818 175.13 85.3257 175.013C85.1354 174.615 85.3764 175.089 85.2863 174.807C85.2532 174.703 85.1856 174.582 85.1287 174.478C85.0657 174.362 84.9485 174.266 84.8923 174.148C84.8503 174.06 84.8494 173.939 84.774 173.86C84.7667 173.852 84.6631 173.827 84.6559 173.819C84.5366 173.694 84.2717 173.397 84.183 173.243C84.1695 173.219 84.1895 173.187 84.183 173.16C84.1437 172.996 84.1433 173.16 84.0648 172.996C84.0183 172.898 84.0324 172.805 83.986 172.707C83.9096 172.548 83.8319 172.393 83.789 172.214C83.7447 172.029 83.8866 172.253 83.7496 171.967C83.6941 171.851 83.6402 171.729 83.5526 171.637C83.5432 171.628 83.5263 171.637 83.5131 171.637C83.4869 171.61 83.4566 171.586 83.4343 171.555C83.3739 171.471 83.4089 171.401 83.3555 171.308C83.3268 171.258 83.2508 171.241 83.2373 171.184C83.2278 171.145 83.2469 171.101 83.2373 171.061C83.2238 171.004 83.144 170.99 83.1191 170.937C83.1074 170.913 83.1275 170.881 83.1191 170.855C83.0867 170.753 82.9719 170.702 82.9221 170.608C82.8756 170.521 82.8861 170.409 82.8433 170.32C82.7832 170.194 82.8121 170.395 82.7645 170.196C82.7517 170.143 82.788 170.081 82.7645 170.032C82.7351 169.97 82.6788 169.927 82.6462 169.867C82.5911 169.766 82.6045 169.635 82.5675 169.538C82.5499 169.492 82.5062 169.46 82.4886 169.414C82.4789 169.389 82.5032 169.355 82.4886 169.332C82.4723 169.307 82.423 169.318 82.4098 169.291C82.3923 169.254 82.4253 169.205 82.4098 169.167C82.384 169.104 82.3264 169.061 82.2916 169.003C82.0866 168.66 82.3075 168.995 82.1734 168.715C82.1568 168.68 82.1162 168.664 82.0946 168.632C82.0421 168.55 81.9895 168.468 81.937 168.385C81.8844 168.33 81.824 168.283 81.7794 168.221C81.7441 168.171 81.7359 168.105 81.7006 168.056C81.656 167.994 81.5861 167.954 81.543 167.891C81.4809 167.801 81.4483 167.646 81.3853 167.562C80.3497 166.283 81.3597 167.582 80.7549 166.698C80.6845 166.595 80.5518 166.531 80.5185 166.409C80.4715 166.237 80.5258 166.046 80.4791 165.874C80.4039 165.599 80.1287 165.266 80.0063 165.01C79.998 164.992 79.98 164.982 79.9669 164.969C79.9275 164.914 79.8758 164.866 79.8486 164.804C79.8091 164.713 79.8075 164.608 79.7698 164.516C79.7281 164.414 79.653 164.33 79.6122 164.228C79.5991 164.159 79.5859 164.09 79.5728 164.022C79.5597 164.022 79.5427 164.032 79.5334 164.022C79.4769 163.963 79.5134 163.856 79.494 163.775C79.2553 162.777 79.5409 163.898 79.3364 163.363C79.3169 163.312 79.353 163.251 79.3364 163.199C79.2951 163.069 79.1575 162.897 79.1 162.787C79.0298 162.652 78.9324 162.446 78.903 162.293C78.8949 162.253 78.9185 162.207 78.903 162.169C78.8771 162.106 78.8091 162.069 78.7848 162.005C78.7057 161.798 78.8079 161.583 78.7454 161.387C78.6784 161.178 78.6256 160.972 78.5483 160.77C78.5082 160.665 78.5556 160.312 78.5483 160.235C78.5352 160.098 78.4808 159.965 78.4695 159.823C78.4351 159.392 78.4695 158.939 78.4695 158.506C78.4695 158.173 78.4108 157.852 78.3907 157.518C78.3622 157.041 78.3907 156.555 78.3907 156.077C78.3907 155.892 78.3686 155.686 78.3907 155.501C78.4233 155.229 78.5967 155.069 78.6665 154.801C78.7047 154.655 78.6456 154.588 78.706 154.431C78.7777 154.243 79.0602 153.731 79.2576 153.731C79.3685 153.389 79.3348 152.87 79.4942 152.537C79.5204 152.482 79.6191 152.506 79.6517 152.455C79.6902 152.395 79.6348 152.114 79.6517 152.043C79.6958 151.859 79.8542 151.867 79.8882 151.796C79.9117 151.747 79.8647 151.681 79.8882 151.631C79.9799 151.44 80.1766 151.321 80.2822 151.138C80.3092 151.09 80.2587 151.022 80.2822 150.973C80.4462 150.63 80.2765 151.061 80.4398 150.891C80.5372 150.789 80.7403 150.461 80.8339 150.314C80.8484 150.291 80.8339 150.259 80.8339 150.232C80.8601 150.177 80.8759 150.115 80.9126 150.067C80.9627 150.002 81.1976 149.732 81.3067 149.656C81.3631 149.616 81.7626 149.444 81.7795 149.409C81.803 149.36 81.7629 149.296 81.7795 149.244C81.8432 149.044 82.1598 148.943 82.2523 148.75C82.4638 148.308 82.777 148.01 83.0404 147.597C83.0864 147.525 83.0693 147.42 83.1192 147.35C83.1545 147.301 83.2506 147.323 83.2768 147.268C83.3367 147.143 83.3132 146.989 83.3556 146.856C83.4075 146.694 83.7366 146.013 83.8285 145.869C83.8431 145.846 83.8955 145.893 83.9073 145.869C83.9741 145.729 83.9073 144.648 83.9073 144.469C83.9073 144.2 83.9992 143.261 83.9073 143.069C83.8906 143.035 83.8331 143.026 83.8285 142.987C83.7805 142.587 83.8386 142.288 83.7496 141.917C83.701 141.714 83.8235 141.451 83.7496 141.258C83.5177 140.652 83.5505 141.138 83.3556 140.188C83.3084 139.958 83.4106 139.677 83.3556 139.447C83.2894 139.17 83.1976 138.993 83.1192 138.706C83.071 138.529 83.0836 138.31 83.0404 138.13C82.9124 137.595 83.0751 136.954 82.9616 136.401C82.9151 136.174 82.7872 135.937 82.7251 135.742C82.6609 135.541 82.6459 134.945 82.5675 134.672C82.4702 134.333 82.3088 133.837 82.1735 133.519C82.1351 133.429 82.0389 133.368 82.0159 133.272C81.9841 133.139 82.0375 132.996 82.0159 132.861C81.9995 132.758 81.8142 132.65 81.7795 132.614C81.7423 132.575 81.8056 132.497 81.7795 132.449C81.6385 132.191 81.4122 131.984 81.3067 131.708C81.2694 131.611 81.3383 131.478 81.3067 131.379C81.2397 131.169 81.0861 131 80.9914 130.802C80.7341 130.265 80.7079 129.683 80.2822 129.238C79.9668 128.772 79.8094 128.386 79.8094 127.839C79.8094 127.596 79.8605 127.256 79.8094 127.015C79.7459 126.717 79.5807 126.381 79.4942 126.11C79.4154 125.863 79.5336 126.027 79.4942 125.863C79.474 125.779 79.4416 125.698 79.4153 125.616C79.3628 125.561 79.2757 125.526 79.2577 125.451C79.2195 125.291 79.28 125.12 79.2577 124.957C79.2528 124.919 79.1879 124.913 79.1789 124.875C78.9385 123.87 79.4286 125.184 79.0213 124.546C78.941 124.42 78.9736 124.113 78.8637 123.969C78.8045 123.892 78.6943 123.875 78.6273 123.805C78.5372 123.711 78.4498 123.465 78.312 123.393C78.118 123.292 78.3832 123.632 78.0756 123.311C78.0341 123.267 78.0383 123.189 77.9968 123.146C77.9782 123.127 77.9399 123.161 77.918 123.146C77.4929 122.85 77.9723 123.12 77.6816 122.817C77.496 122.623 77.1544 122.325 76.9724 122.158C76.2413 121.49 77.0808 122.256 76.5783 121.993C76.5548 121.981 76.5969 121.93 76.5783 121.911C76.3695 121.693 76.0532 121.522 75.8691 121.252C75.8008 121.153 75.7946 121.01 75.7115 120.923C75.6031 120.81 75.4183 120.797 75.3174 120.676C75.2243 120.565 75.2404 120.386 75.1599 120.264C73.7554 118.145 74.9839 120.163 74.3718 119.524C74.1178 119.258 73.6616 118.781 73.5049 118.453C73.4399 118.317 73.4559 118.212 73.3473 118.042C73.2774 117.932 73.106 117.872 73.0321 117.795C72.8451 117.599 72.6444 117.225 72.4805 117.054C72.439 117.01 72.3611 117.018 72.3229 116.971C71.815 116.352 71.9936 116.561 71.85 115.736C71.8151 115.536 71.7712 115.501 71.7712 115.325C71.5651 114.988 71.471 114.652 71.4166 114.255C71.4085 114.198 71.4405 114.098 71.4166 114.049C71.411 114.036 71.3831 114.061 71.3772 114.049C71.3654 114.024 71.3772 113.994 71.3772 113.966C71.3509 113.925 71.3196 113.887 71.2984 113.843C71.2487 113.739 71.3154 112.564 71.3772 112.402C71.4035 112.361 71.4298 112.32 71.456 112.279C71.4692 112.279 71.4861 112.288 71.4954 112.279C71.5337 112.239 71.4963 112.154 71.5349 112.114C71.5642 112.083 71.6198 112.099 71.653 112.073C71.7002 112.036 71.7835 111.883 71.8107 111.826C71.8378 111.769 71.8231 111.676 71.8501 111.62C71.8749 111.568 71.9434 111.549 71.9683 111.497C71.9892 111.453 71.9534 111.379 71.9683 111.332C72.0023 111.225 72.0756 111.172 72.1259 111.085C72.224 110.914 72.3052 110.688 72.3623 110.509C72.4336 110.285 72.3074 109.997 72.3623 109.768C72.3737 109.72 72.4497 109.487 72.4805 109.438C72.4919 109.42 72.5369 109.403 72.5593 109.356C72.5992 109.273 72.6012 109.145 72.6382 109.068C72.6593 109.024 72.7019 108.991 72.7169 108.944C72.7294 108.905 72.7088 108.861 72.7169 108.821C72.7422 108.689 72.7984 108.525 72.8352 108.409C72.8741 108.287 72.811 108.124 72.8352 107.998C72.8445 107.949 72.9024 107.922 72.9139 107.874C72.934 107.79 72.9266 107.711 72.9534 107.627C73.0057 107.463 73.1483 107.307 73.1898 107.133C73.2711 106.793 73.1249 106.401 73.2686 106.063C73.3027 105.983 73.4058 105.942 73.4262 105.857C73.4453 105.777 73.4132 105.691 73.4262 105.61C73.4723 105.321 73.5845 105.074 73.702 104.828C73.7708 104.684 73.6785 104.218 73.702 104.046C73.7144 103.956 73.7685 103.848 73.7808 103.758C73.8195 103.475 73.8243 102.49 73.702 102.235C73.6477 102.121 73.3429 101.625 73.2686 101.535C73.2203 101.476 73.1542 101.433 73.111 101.37C73.0655 101.304 73.0395 101.196 72.9928 101.123C72.9132 100.999 72.7411 100.927 72.6775 100.794C72.6192 100.672 72.4908 100.491 72.3624 100.423C72.3388 100.411 72.307 100.436 72.2835 100.423C72.2248 100.393 72.2118 100.307 72.1653 100.259C71.9863 100.072 71.7306 99.965 71.5349 99.806C71.5117 99.7872 71.5199 99.7407 71.4955 99.7236C71.4737 99.7084 71.4409 99.7342 71.4167 99.7236C71.2853 99.655 71.154 99.5864 71.0227 99.5178C70.9701 99.5041 70.9153 99.4976 70.865 99.4766C70.8378 99.4653 70.8535 99.4041 70.8256 99.3943C70.7882 99.3813 70.7468 99.3943 70.7074 99.3943C70.6155 99.3669 70.5195 99.3514 70.4316 99.312C70.2639 99.2368 70.1319 99.0841 69.9588 99.0238C69.9089 99.0065 69.8521 99.0371 69.8012 99.0238C69.7884 99.0204 69.8133 98.9878 69.8012 98.9827C69.739 98.9567 69.6698 98.9552 69.6041 98.9415C69.4597 98.8592 69.323 98.7596 69.1707 98.6945C69.0321 98.6353 68.8788 98.6222 68.7373 98.571C68.5368 98.4985 68.3476 98.3941 68.1463 98.324C67.8279 98.2132 67.9811 98.3573 67.8704 98.2417C67.3715 98.2195 66.8296 98.1381 66.3337 98.2418C66.2012 98.2695 66.0373 98.2418 65.9003 98.2418C65.5719 98.2418 65.2436 98.2418 64.9152 98.2418C64.7712 98.2418 64.2619 98.2916 64.1666 98.2418C64.1078 98.2111 64.0726 98.1349 64.0089 98.1183C63.9707 98.1083 63.9281 98.1313 63.8908 98.1183C63.8629 98.1086 63.8758 98.053 63.8514 98.0359C63.7522 97.9669 63.4667 97.9602 63.3785 97.9536C63.1769 97.9385 62.5149 98.0427 62.4328 97.8713C62.4152 97.8344 62.4453 97.7868 62.4328 97.7478C62.4109 97.6791 62.3056 97.656 62.2752 97.6243C62.2279 97.5748 62.2728 97.4767 62.2358 97.4185C62.1833 97.3361 62.0664 97.3238 61.9994 97.2538C61.9132 97.1637 61.7771 96.8717 61.7236 96.7598C61.7119 96.7353 61.7354 96.7021 61.7236 96.6775C61.6612 96.547 61.5484 96.4349 61.4872 96.307C61.4513 96.232 61.445 96.0953 61.4084 96.0189C61.3918 95.9841 61.3413 95.9734 61.3296 95.9365C61.3213 95.9105 61.3296 95.8816 61.3296 95.8542C61.3164 95.7993 61.3092 95.7425 61.2902 95.6895C61.2094 95.4645 61.0959 95.2205 60.9749 95.0309C60.9534 94.9972 60.953 94.8918 60.9355 94.8663C60.8113 94.6845 60.6413 94.5419 60.5021 94.3723C60.4113 94.2615 60.3037 94.1644 60.2263 94.043C60.21 94.0175 60.2094 93.9803 60.1869 93.9607C59.9387 93.7446 59.6507 93.6916 59.3594 93.5902C59.2966 93.5683 59.1743 93.6036 59.123 93.5902C58.8993 93.5317 58.7765 93.3054 58.5714 93.2197C58.547 93.2095 58.5161 93.232 58.4926 93.2197C58.4593 93.2023 58.2139 92.8988 58.1379 92.8492C57.5998 92.6244 58.152 92.8864 57.8621 92.6846C57.6081 92.5076 57.388 92.5518 57.1135 92.5199C56.9508 92.501 56.9035 92.3741 56.7588 92.3553C56.3901 92.3071 56.0663 92.2876 55.695 92.1906C55.6122 92.169 54.7977 92.2224 54.7493 92.2729C54.74 92.2827 54.7603 92.3065 54.7493 92.3141C54.7148 92.3381 54.6643 92.3292 54.6311 92.3553C54.6076 92.3736 54.6161 92.4206 54.5917 92.4376C54.5698 92.4528 54.5364 92.4253 54.5129 92.4376C54.408 92.4924 54.2973 92.6152 54.1977 92.6846C53.8349 92.9373 54.3813 92.5475 54.0401 92.7257C54.0068 92.7431 53.9921 92.7866 53.9612 92.8081C53.9124 92.8421 53.8487 92.8511 53.8036 92.8904C53.7672 92.9221 53.7655 92.9884 53.7248 93.0139C53.691 93.0351 53.6455 93.0071 53.6066 93.0139C53.5309 93.0271 53.3587 93.0611 53.2914 93.0962C53.2491 93.1183 53.2188 93.1649 53.1732 93.1786C52.8755 93.2674 52.3965 93.1217 52.0699 93.1786C51.8834 93.211 51.6971 93.2236 51.5183 93.2609C51.441 93.2771 51.355 93.2303 51.2819 93.2609C51.2474 93.2753 51.2363 93.3259 51.2031 93.3432C51.1788 93.356 50.9595 93.3919 50.9272 93.4256C50.9065 93.4473 50.9123 93.4909 50.8878 93.5079C50.8591 93.5279 50.5149 93.5756 50.4938 93.5902C50.4629 93.6118 50.4503 93.6603 50.415 93.6726C50.1932 93.7498 49.959 93.6592 49.7452 93.7549C49.7016 93.7744 49.6693 93.8151 49.6269 93.8372C49.4472 93.9311 49.2113 93.9331 49.0359 94.0431C49.004 94.0631 48.9923 94.1131 48.9571 94.1254C48.9072 94.1428 48.851 94.1146 48.7995 94.1254C48.6858 94.1491 48.6854 94.2489 48.5237 94.2489C48.2219 94.3264 47.9149 94.3511 47.6175 94.4547C47.4668 94.5072 47.4399 94.603 47.3023 94.6605C47.1966 94.7047 47.0697 94.6762 46.9477 94.7016C46.7634 94.7402 46.6436 94.8487 46.4749 94.9075C46.3721 94.9432 46.2525 94.9316 46.1596 94.9898C46.1344 95.0056 46.141 95.0504 46.1202 95.0721C46.0661 95.1287 45.9917 95.1598 45.9232 95.1956C45.8748 95.2209 45.8039 95.1965 45.7656 95.2368C45.5948 95.4152 45.721 95.3388 45.4897 95.4838C45.4299 95.5213 45.4775 95.5841 45.411 95.6073C45.3861 95.6159 45.3556 95.595 45.3321 95.6073C45.2849 95.632 45.2612 95.7061 45.214 95.7308C45.2022 95.7367 45.1876 95.7308 45.1745 95.7308C45.1482 95.7445 45.1202 95.7549 45.0957 95.7719C45.0826 95.7856 45.0695 95.7994 45.0563 95.8131C45.0563 95.8268 45.0657 95.8445 45.0563 95.8543C44.999 95.9141 44.8953 95.8577 44.8593 95.8954C44.8386 95.9171 44.8443 95.9607 44.8199 95.9778C44.7762 96.0082 44.7133 95.9645 44.6623 95.9778C44.6436 95.9829 44.5628 96.0552 44.5441 96.0601C44.5059 96.0701 44.4632 96.0471 44.4259 96.0601C44.3532 96.0854 44.2973 96.1478 44.2288 96.1836C44.1804 96.2089 44.1135 96.1895 44.0712 96.2247C44.02 96.2676 43.9995 96.3409 43.953 96.3894C43.9088 96.4357 43.8087 96.4762 43.756 96.5129C43.6004 96.6213 43.444 96.8114 43.2832 96.8834C43.1372 96.9488 43.0268 96.9709 42.8892 97.0069C42.8037 97.0291 42.7382 97.108 42.6528 97.1304C42.6018 97.1436 42.547 97.1213 42.4951 97.1304C42.3366 97.158 42.1721 97.2324 42.0223 97.295C41.9883 97.3092 41.939 97.2829 41.9041 97.295C41.782 97.1923 41.6997 97.4299 41.6283 97.4597C41.5191 97.5053 41.2198 97.4597 41.1161 97.4597C40.9107 97.4597 40.6892 97.4901 40.4856 97.4597C40.2099 97.4185 39.9998 97.1807 39.737 97.0892C39.3861 96.967 39.0319 96.8536 38.6731 96.7599C38.2746 96.6558 38.0391 96.709 37.6486 96.6776C37.5915 96.6733 37.332 96.6256 37.2546 96.5952C37.1829 96.5671 37.1335 96.4823 37.0576 96.4717C36.8749 96.4463 36.689 96.4535 36.506 96.4306C36.3602 96.4123 36.2184 96.3662 36.0725 96.3482C35.9943 96.3387 35.9134 96.3644 35.8361 96.3482C35.4096 96.2591 35.7999 96.3087 35.6391 96.2247C35.5216 96.1633 35.3739 96.2517 35.2451 96.2247C35.0032 96.1742 34.5084 95.9634 34.2994 95.8543C34.2631 95.8353 33.303 95.9249 33.275 95.9366C33.2233 95.9582 33.2096 96.0417 33.1568 96.0601C33.1015 96.0793 33.0116 96.033 32.9597 96.0601C32.824 96.131 32.8511 96.2247 32.6839 96.2247C32.6021 96.285 32.5246 96.3521 32.4386 96.4055C32.3956 96.4322 32.3417 96.436 32.2993 96.4637C32.2659 96.4856 32.2478 96.5272 32.2157 96.551C32.1489 96.6009 32.0313 96.6619 31.9649 96.6966C31.8046 96.7804 31.7299 96.933 31.547 96.9877C31.5203 96.9953 31.4907 96.9817 31.4634 96.9877C31.4027 97.0004 31.3841 97.0593 31.3241 97.075C31.2971 97.0818 31.2654 97.0619 31.2405 97.075C31.0149 97.1928 30.8226 97.3785 30.5997 97.5116C30.4787 97.5838 30.2633 97.6253 30.1261 97.6571C29.9905 97.6886 29.9731 97.6647 29.8474 97.6863C29.7041 97.7112 29.5491 97.7807 29.4017 97.8027C29.2588 97.824 29.1209 97.8031 28.9837 97.8318C28.8805 97.8534 28.7489 97.7972 28.6494 97.8318C28.12 98.0162 27.4946 98.1603 26.922 98.0938C26.5118 98.0462 26.9427 98.0921 26.5319 98.0065C26.3972 97.9389 26.2513 98.0031 26.114 97.9773C26.0524 97.9656 25.9826 97.9066 25.9189 97.89C25.6981 97.8323 25.4706 97.7829 25.2503 97.7445C25.1764 97.7316 25.1222 97.663 25.0552 97.6281C24.7888 97.4889 24.4246 97.4484 24.1358 97.3952C24.0992 97.3884 24.0506 97.4227 24.0243 97.3952C24.0179 97.3884 24.0308 97.3729 24.0243 97.3661C23.9662 97.3053 23.8146 97.2326 23.7457 97.1914C23.6797 97.152 23.6419 97.0609 23.5786 97.0168C23.5507 96.9974 23.5267 96.9696 23.495 96.9586C23.4685 96.9493 23.4311 96.9792 23.4114 96.9586C23.3967 96.9432 23.3982 96.9157 23.3835 96.9004C23.3116 96.8253 23.2551 96.8153 23.1884 96.7257C23.1406 96.6615 22.9482 96.3529 22.882 96.3182C22.8132 96.342 22.7472 96.4014 22.6757 96.3894C22.548 96.3681 22.4405 96.2767 22.3211 96.2247C22.0852 96.1221 22.3309 96.2556 22.0059 96.1424C21.7604 96.0569 21.5408 95.9024 21.2966 95.8131C21.1823 95.7713 21.0584 95.7655 20.942 95.7308C20.8955 95.7169 20.6379 95.6057 20.5874 95.5661C20.5768 95.5576 20.5998 95.5293 20.5874 95.525C20.5375 95.5076 20.4768 95.5495 20.4298 95.525C20.4188 95.519 19.9677 95.0236 19.9569 94.9898C19.9358 94.9234 19.9577 94.84 19.9175 94.784C19.8716 94.7199 19.7803 94.7105 19.7205 94.6605C19.7 94.6434 19.7391 94.5976 19.7205 94.5782C19.7113 94.5684 19.6905 94.5878 19.6811 94.5782C19.5716 94.4637 19.4988 94.3048 19.3659 94.2077C19.2652 94.1341 18.9918 94.0021 18.8931 93.8784C18.8555 93.8312 18.8558 93.7571 18.8143 93.7137C18.7666 93.6639 18.3057 93.4312 18.3021 93.4256C18.0518 93.0335 18.6981 93.7366 18.105 93.0551C18.036 92.9758 17.9327 92.933 17.8686 92.8493C17.8244 92.7916 17.8214 92.7095 17.7898 92.6435C17.7352 92.5295 17.6553 92.4672 17.5928 92.3553C17.5188 92.2228 17.4839 92.0664 17.3958 91.9437C17.3624 91.8971 17.2911 91.8766 17.2776 91.8202C17.2648 91.7669 17.3046 91.7026 17.2776 91.6555C17.2578 91.5335 17.1374 91.4977 17.0805 91.4085C17.0575 91.3724 17.0939 91.2858 17.0805 91.2439C17.0366 91.1061 16.8813 90.8977 16.8047 90.7911C16.5265 90.4035 16.1515 90.0255 15.7802 89.7208C15.72 89.6713 15.6374 89.6539 15.5832 89.5973C15.5647 89.5779 15.5936 89.5402 15.5832 89.515C15.5531 89.4414 15.511 89.3732 15.4651 89.3091C15.3594 89.162 15.2173 89.0464 15.1104 88.8975C15.1145 88.8159 15.0523 88.878 15.0316 88.8564C15.0108 88.8347 15.013 88.7957 14.9922 88.774C14.8687 88.6449 14.7111 88.5572 14.6376 88.4035C14.581 88.3057 14.5326 88.202 14.4677 88.1099C14.2952 87.8649 14.3707 88.0423 14.1334 87.8771C14.1055 87.8577 14.1014 87.8145 14.0777 87.7897C14.0712 87.783 14.0564 87.7965 14.0498 87.7897C13.936 87.6709 13.8586 87.5027 13.7433 87.3822C13.6836 87.3198 13.5978 87.3229 13.5483 87.2367C13.518 87.1841 13.5188 87.1169 13.4926 87.0621C13.468 87.0107 13.4306 86.9618 13.409 86.9165C13.377 86.8495 13.3763 86.9292 13.3254 86.8583C13.1341 86.5919 13.5503 87.006 13.2139 86.6546C13.1332 86.5702 13.0145 86.5044 12.9353 86.4217C12.8604 86.3435 12.8152 86.238 12.7403 86.1597C12.6982 86.1158 12.6397 86.0904 12.601 86.0433C12.5819 86.02 12.5883 85.9823 12.5731 85.956C12.4874 85.8067 12.33 85.6848 12.2666 85.5194C12.2412 85.453 12.2574 85.3513 12.2109 85.2865C12.1984 85.2692 12.1699 85.2727 12.1552 85.2574C12.1409 85.2424 12.1461 85.0928 12.1273 85.0536C12.1156 85.0291 12.0834 85.02 12.0716 84.9954C12.0631 84.9777 11.9996 84.7699 11.988 84.7335C11.9734 84.6875 11.9945 84.636 11.988 84.5879C11.9758 84.4983 11.9292 84.4907 11.9044 84.4133C11.8927 84.3765 11.9117 84.3349 11.9044 84.2969C11.8876 84.2086 11.8325 84.0164 11.793 83.9476C11.766 83.9005 11.7131 83.8751 11.6816 83.8312C11.6152 83.7388 11.6246 83.711 11.598 83.6274C11.5794 83.5691 11.4461 83.4137 11.4308 83.3945C11.3464 83.2887 11.2309 83.2359 11.1243 83.1617C11.0708 83.1244 11.0365 83.0565 10.985 83.0162C10.9518 82.9901 10.9029 82.9886 10.8736 82.958C10.8453 82.9284 10.8057 82.8489 10.7621 82.8124C10.6497 82.7185 10.5173 82.638 10.3999 82.5504C10.2657 82.4503 10.0964 82.4616 9.8984 82.3467C9.77158 82.2731 9.68334 82.1419 9.56406 82.0556C9.50252 82.0111 9.436 81.9741 9.36903 81.9392C9.31649 81.9117 9.24339 81.9244 9.20186 81.881C9.08544 81.8844 9.20111 81.7929 9.174 81.7646C9.11635 81.7043 9.09964 81.7289 9.06255 81.6772C8.97681 81.5578 8.90414 81.4091 8.81179 81.2988C8.79071 81.2737 8.67016 81.2013 8.64462 81.1533C8.61024 81.0887 8.59849 81.0122 8.56104 80.9496C8.5295 80.8969 8.45472 80.8848 8.42173 80.8331C8.40543 80.8076 8.41222 80.7698 8.39382 80.7458C8.36479 80.7079 8.30314 80.7018 8.28237 80.6585C8.23591 80.5614 8.39041 80.7416 8.25446 80.5712C8.18287 80.4814 8.11515 80.3868 8.03157 80.3092C7.88048 80.1689 7.69871 80.107 7.55792 79.9599C7.1081 79.924 7.20175 79.8568 6.91472 79.5944C6.83907 79.5253 6.68719 79.4848 6.59948 79.4298C6.41655 79.3151 6.04378 79.0139 5.89022 78.8535C5.86338 78.8255 5.70268 78.5851 5.69321 78.5653C5.68145 78.5408 5.70148 78.509 5.69321 78.483C5.67262 78.4185 5.61095 78.4569 5.57503 78.4007C5.48097 78.2533 5.38843 78.0877 5.29919 77.9479C5.25905 77.8849 5.18708 77.8426 5.14162 77.7832C5.04122 77.6521 5.01082 77.5511 4.94461 77.4127C4.92158 77.3647 4.84541 77.339 4.82638 77.2892C4.80627 77.2367 4.80709 77.1771 4.78699 77.1246C4.7732 77.0886 4.71715 77.0799 4.70815 77.0423C4.69623 76.9924 4.74204 76.7895 4.70815 76.7541C4.65813 76.7018 4.56115 76.724 4.51114 76.6718C4.39777 76.5533 4.33798 76.3888 4.23534 76.2601C4.14403 76.1457 3.95085 75.9812 3.84132 75.8896C3.77548 75.8347 3.45879 75.708 3.40786 75.6015C3.38596 75.5558 3.33734 75.2613 3.32907 75.231C3.31294 75.172 3.2688 75.1246 3.25024 75.0664C3.22218 74.9785 3.25964 74.8257 3.25024 74.7371C3.2371 74.6684 3.22398 74.5999 3.21084 74.5312C3.19771 74.5175 3.17737 74.5084 3.17145 74.4901C3.13067 74.3623 3.18767 74.1725 3.17145 74.0373C3.13626 73.7431 3.12424 74.0007 3.05323 73.6668C3.0169 73.4962 3.06832 73.0144 3.01383 72.8435C3.00978 72.8305 2.9776 72.8568 2.97444 72.8435C2.91363 72.5896 2.88823 72.3512 2.81682 72.1025C2.78066 71.9767 2.69045 71.8215 2.6592 71.6909C2.64177 71.6182 2.69999 71.4254 2.6592 71.3616C2.6429 71.3361 2.59796 71.345 2.58037 71.3204C2.51567 71.2303 2.52372 70.8637 2.46219 70.703C2.42943 70.6175 2.36929 70.5442 2.34396 70.456C2.21651 70.0122 2.48809 70.574 2.30457 70.1267C2.21848 69.9168 2.22574 70.0735 2.22574 69.962C2.27828 69.7974 2.3431 69.6365 2.38341 69.4681C2.41843 69.3216 2.39227 69.2026 2.46224 69.0565C2.46792 69.0442 2.49231 69.0662 2.50163 69.0565C2.52685 69.0301 2.60862 68.8859 2.61986 68.8506C2.62813 68.8246 2.60526 68.7912 2.61986 68.7683C2.63616 68.7428 2.67416 68.7442 2.69864 68.7271C2.76497 68.681 2.83562 68.4965 2.85626 68.439C2.90053 68.3157 2.91823 68.1448 2.97449 68.0273C3.01033 67.9525 3.10475 67.9419 3.13206 67.9038C3.16733 67.8547 3.18462 67.7941 3.21089 67.7392C3.26343 67.6706 3.31688 67.6027 3.36851 67.5334C3.42016 67.464 3.49954 67.4109 3.52613 67.3275C3.56538 67.2044 3.6041 67.1146 3.6837 66.9982C3.72189 66.9424 3.75548 66.8821 3.80193 66.8336C3.82269 66.8119 3.86447 66.8179 3.88076 66.7924C3.89536 66.7696 3.87249 66.7361 3.88076 66.7101C3.91465 66.6039 4.29794 66.4558 4.35357 66.3396C4.45416 66.1294 4.564 65.7812 4.66881 65.5987C4.6753 65.5869 4.70228 65.6109 4.7082 65.5987C4.7592 65.4921 4.73801 65.3305 4.78699 65.2282C4.80361 65.1934 4.8492 65.1806 4.86582 65.1458C4.90887 65.0559 4.87489 64.7787 4.90521 64.6519C4.94381 64.4907 5.0362 64.366 5.06283 64.1991C5.12883 63.7852 4.99683 63.3368 5.06283 62.923C5.06932 62.8802 5.08909 62.8407 5.10222 62.7995C5.10222 62.7446 5.09493 62.6892 5.10222 62.6348C5.1186 62.5152 5.20145 62.4247 5.22045 62.3055C5.23975 62.1846 5.2369 62.055 5.25984 61.935C5.27703 61.8453 5.35684 61.8179 5.37807 61.7292C5.3908 61.6759 5.36364 61.6174 5.37807 61.5646C5.46896 61.2322 5.4213 61.4742 5.53569 61.2353C5.58904 61.1237 5.54606 60.976 5.57508 60.8648C5.59827 60.776 5.6674 60.7058 5.69331 60.6178C5.73977 60.46 5.71047 60.3151 5.77209 60.165C5.79074 60.1195 5.83787 60.0891 5.85093 60.0415C5.91166 59.8196 5.83354 58.8082 5.81149 58.6008C5.79746 58.4692 5.72889 58.3418 5.69331 58.2303C5.6612 58.1297 5.68922 58.0123 5.65387 57.901C5.61341 57.7742 5.53789 57.6342 5.4963 57.4893C5.42049 57.2252 5.61004 57.5213 5.45686 57.2012C5.37837 57.0372 5.37808 57.201 5.33868 57.0365C5.30933 56.914 5.35426 56.8413 5.29929 56.7072C5.21926 56.5122 5.08067 56.3402 5.02344 56.1309C4.99158 56.0144 4.98155 55.8761 4.94466 55.7604C4.78047 55.2459 4.95276 55.9946 4.78704 55.39C4.7726 55.3372 4.81404 55.2724 4.78704 55.2253C4.75833 55.1754 4.69373 55.1539 4.66881 55.1018C4.62608 55.0125 4.62881 54.905 4.58997 54.8137C4.4926 54.5848 4.51119 54.8601 4.51119 54.649C4.22607 54.4199 4.22201 54.1272 4.07772 53.8258C4.05129 53.7705 4.05998 53.6297 4.03833 53.5788C3.99536 53.4777 3.9064 53.3979 3.88071 53.2906C3.85777 53.1947 3.86978 52.9087 3.84132 52.879C3.82056 52.8573 3.78324 52.8595 3.76249 52.8378C3.62253 52.6916 3.64431 51.3334 3.64431 51.0266C3.64431 50.7076 3.58099 49.9659 3.64431 49.6682C3.65242 49.6303 3.71134 49.6227 3.72309 49.5858C3.75634 49.4817 3.7115 49.3656 3.72309 49.2565C3.74328 49.0665 3.81732 48.8568 3.88071 48.6802C3.92344 48.5612 4.03098 48.5093 4.07772 48.3921C4.27865 47.8883 4.49284 47.4402 4.82638 47.0337C4.87624 46.9729 4.8904 46.8844 4.94456 46.8279C5.07484 46.6918 5.41716 46.5812 5.53559 46.4162C5.58546 46.3467 5.87426 45.7998 5.89022 45.7164C5.89833 45.6761 5.87936 45.6325 5.89022 45.5929C5.94268 45.4012 6.09926 45.2735 6.16607 45.099C6.1758 45.0735 6.15431 45.0412 6.16607 45.0166C6.20839 44.9281 6.27491 44.8545 6.32364 44.7696C6.33321 44.753 6.34994 44.7422 6.36308 44.7285C6.40248 44.6736 6.44936 44.6238 6.48126 44.5638C6.51564 44.4993 6.52085 44.4195 6.56009 44.358C6.57639 44.3325 6.62258 44.3423 6.63888 44.3169C6.65461 44.2921 6.63077 44.2263 6.63888 44.1933C6.67674 44.0352 6.76474 43.9064 6.79649 43.7405C6.8192 43.6218 6.82141 43.2769 6.87533 43.1642C6.90468 43.1029 6.97274 43.0647 6.99351 42.9996C7.03632 42.8655 7.1066 42.7275 7.15113 42.5879C7.1701 42.5286 7.16916 42.3858 7.19057 42.341C7.21546 42.2889 7.28383 42.2696 7.30874 42.2175C7.33866 42.1549 7.31522 42.0724 7.34814 42.0116C7.35381 42.001 7.58941 41.7717 7.62398 41.7235C7.72684 41.5802 7.77837 41.4206 7.86039 41.2707C7.93831 41.1283 8.02636 41.0062 8.09679 40.8591C8.18638 40.6719 8.21838 40.4386 8.2938 40.2416C8.33013 40.1467 8.43279 40.0096 8.45142 39.9123C8.46172 39.8585 8.44202 39.8016 8.45142 39.7476C8.49529 39.4956 8.64919 38.9632 8.72727 38.7185C8.78962 38.5231 8.99234 38.3704 9.08185 38.1834C9.15085 38.0392 9.20692 37.9222 9.27891 37.7717C9.30907 37.7087 9.3491 37.7396 9.39709 37.6894C9.48543 37.5971 9.58999 37.3449 9.67288 37.2366C9.71472 37.182 9.81845 37.24 9.8699 37.1954C9.94871 37.1268 9.99437 37.0242 10.0669 36.9485C10.4102 36.7174 10.5292 36.353 10.6973 36.0017C10.7276 35.9386 10.7265 35.5918 10.7368 35.5489C10.8362 35.1333 10.8141 35.5654 10.855 35.0961C10.8606 35.0278 10.8442 34.958 10.855 34.8903C10.8814 34.7245 11.3885 33.9791 11.4854 33.82C11.5102 33.7794 11.5241 33.6973 11.5642 33.6554C11.6214 33.5957 11.9986 33.4536 12.0765 33.4084C12.3794 33.2326 12.0748 33.3117 12.4705 33.1614C12.5334 33.1375 12.6076 33.1515 12.6675 33.1202C12.6938 33.1065 12.6815 33.0534 12.7069 33.0379C12.8591 32.9451 13.0125 32.8491 13.1797 32.7909C13.3416 32.7345 13.426 32.738 13.6132 32.6263C13.9105 32.4487 14.1806 32.2237 14.48 32.05C14.709 31.9171 15.0292 31.7943 15.268 31.6383C15.4041 31.5495 15.5043 31.412 15.6621 31.3502C15.699 31.3357 15.7424 31.3615 15.7803 31.3502C15.853 31.3285 16.1702 31.1829 16.2531 31.1443C16.3231 31.1118 16.3775 31.0462 16.4501 31.0209C16.5 31.0035 16.5562 31.0316 16.6077 31.0209C16.8764 30.9647 16.8101 30.9357 17.0411 30.815C17.0727 30.7986 17.1279 30.8315 17.1594 30.815C17.2182 30.7844 17.2583 30.7222 17.317 30.6916C17.5138 30.5887 17.8314 30.5649 18.0263 30.4857C18.1357 30.4413 18.2324 30.3667 18.3414 30.3211C18.3658 30.3109 18.4017 30.3405 18.4203 30.3211C18.7597 29.9665 18.1725 30.4021 18.5385 30.1153C18.6564 30.0228 18.7604 29.9864 18.8931 29.9094C19.0256 29.8325 19.1665 29.6683 19.2871 29.5801C19.5588 29.3814 19.8819 29.2058 20.1146 28.9627C20.1959 28.8777 20.3693 28.6806 20.4298 28.5922C20.4887 28.506 20.5203 28.3917 20.5874 28.304C20.8153 28.0065 20.5947 28.3949 20.8632 27.9747C20.9207 27.8847 20.9603 27.7402 21.0208 27.6454C21.2257 27.3243 21.5015 27.0692 21.6907 26.7398C21.8139 26.5253 21.9002 26.3019 22.0059 26.0812C22.0822 25.9218 22.2052 25.747 22.2817 25.5872C22.35 25.4445 22.3919 25.2421 22.4393 25.0933C22.8018 24.4902 22.7939 24.1833 22.7939 23.529C22.7939 23.3957 22.7759 23.2488 22.7939 23.1174C22.8197 22.9286 22.8701 22.799 22.9121 22.6234C22.9402 22.5058 22.9029 22.2771 22.9121 22.1706C22.9269 22.0009 22.9832 21.8654 23.0303 21.7178C23.0738 21.5816 23.1047 20.4648 23.0697 20.3182C23.0632 20.2913 23.0103 20.1326 22.9909 20.1124C22.9816 20.1027 22.9574 20.1247 22.9515 20.1124C22.9273 20.0618 22.9363 19.9984 22.9121 19.9478C22.9064 19.9355 22.8786 19.96 22.8727 19.9478C22.8333 19.8654 22.8924 19.886 22.8727 19.8242C22.8346 19.7049 22.8203 19.6804 22.7545 19.5773C22.7472 19.566 22.7238 19.2023 22.7151 19.1656H22.7151ZM164.225 161.431C164.138 161.815 164.313 162.032 164.392 162.363C164.439 162.559 164.363 162.769 164.448 162.945C164.477 163.005 164.554 163.146 164.615 163.178C164.632 163.186 164.662 163.16 164.671 163.178C164.704 163.247 164.643 163.339 164.671 163.411C164.671 163.411 164.82 163.742 164.838 163.76C164.851 163.774 164.889 163.741 164.893 163.76C164.911 163.835 164.86 163.923 164.893 163.993C164.923 164.055 165.023 164.051 165.061 164.109C165.454 164.725 164.881 164.024 165.116 164.517C165.152 164.59 165.243 164.621 165.283 164.691C165.316 164.749 165.263 164.86 165.283 164.924C165.418 165.346 165.267 164.832 165.395 165.099C165.433 165.179 165.416 166.093 165.395 166.205C165.373 166.322 165.17 166.676 165.116 166.787C165.052 166.922 165.115 167.082 165.061 167.195C164.993 167.336 164.892 167.433 164.838 167.602C164.772 167.807 164.878 168.09 164.838 168.301C164.833 168.328 164.801 168.339 164.782 168.359C164.782 168.398 164.782 168.436 164.782 168.475C164.598 168.714 164.687 168.939 164.561 169.175C164.546 169.201 164.343 169.532 164.327 169.547C164.183 169.677 163.929 169.796 163.817 169.962C163.763 170.043 163.684 170.114 163.661 170.21C163.649 170.264 163.694 170.331 163.662 170.375C163.629 170.422 163.575 170.451 163.545 170.499C163.506 170.561 163.506 170.644 163.467 170.706C163.495 170.763 163.393 170.743 163.389 170.747C163.381 170.755 163.357 170.864 163.35 170.871C163.284 170.941 163.243 170.932 163.194 171.037C163.182 171.062 163.202 171.093 163.194 171.119C163.174 171.185 163.058 171.219 163.038 171.285C163.03 171.311 163.05 171.343 163.038 171.367C163.033 171.38 163.01 171.362 162.999 171.368C162.939 171.4 162.969 171.441 162.921 171.492C162.9 171.514 162.858 171.508 162.842 171.534C162.828 171.557 162.843 171.589 162.843 171.616C162.83 171.643 162.821 171.674 162.804 171.699C162.754 171.769 162.707 171.843 162.648 171.905C162.639 171.915 162.616 171.894 162.608 171.906C162.586 171.942 162.593 171.993 162.57 172.03C162.559 172.046 162.463 172.101 162.452 172.113C162.424 172.142 162.462 172.196 162.453 172.236C162.372 172.586 162.339 172.927 162.342 173.307C162.343 173.467 162.332 173.538 162.266 173.678C162.194 173.831 162.312 174.24 162.271 174.419C162.222 174.628 162.2 174.904 162.236 175.119C162.26 175.263 162.461 175.634 162.516 175.776C162.576 175.929 162.587 176.073 162.637 176.228C162.734 176.524 162.547 176.92 162.644 177.216C162.694 177.369 162.832 177.509 162.883 177.667C162.912 177.754 162.885 177.903 162.886 177.996C162.889 178.432 162.838 178.898 162.973 179.313C163.183 179.607 162.959 180.032 163.06 180.341C163.081 180.406 163.153 180.442 163.179 180.505C163.255 180.687 163.185 180.692 163.221 180.875C163.24 180.973 163.349 181.106 163.381 181.203C163.401 181.266 163.382 181.385 163.382 181.45C163.384 181.722 163.428 181.909 163.545 182.149C163.594 182.25 163.43 182.113 163.585 182.272C163.657 182.346 164.171 182.385 164.177 182.391C164.474 182.697 164.125 182.406 164.493 182.595C164.625 182.662 164.647 182.866 164.811 182.922C164.861 182.939 164.917 182.908 164.968 182.921C165.04 182.939 165.456 183.048 165.521 183.082C165.719 183.183 165.851 183.372 166.075 183.448C166.256 183.51 166.653 183.444 166.863 183.442C167.314 183.439 167.882 183.52 168.281 183.308C168.342 183.276 168.456 183.298 168.517 183.265C168.577 183.233 168.606 183.13 168.634 183.1C168.68 183.051 168.745 183.024 168.791 182.975C168.934 182.578 169.263 182.475 169.534 182.187C169.555 182.165 169.553 182.127 169.573 182.105C169.602 182.074 169.658 182.089 169.691 182.063C169.773 181.998 169.854 181.931 169.926 181.855C169.947 181.833 169.942 181.792 169.965 181.773C170.02 181.726 170.112 181.741 170.161 181.689C170.242 181.603 170.037 181.693 170.2 181.606C170.278 181.565 170.375 181.484 170.435 181.399C170.639 181.111 170.797 180.795 170.981 180.489C171.017 180.428 171.146 180.304 171.176 180.241C171.188 180.216 171.176 180.186 171.176 180.158C171.188 180.103 171.186 180.042 171.214 179.993C171.229 179.967 171.275 179.976 171.292 179.952C171.317 179.917 171.308 179.864 171.331 179.828C171.338 179.816 171.365 179.84 171.37 179.827C171.405 179.754 171.338 179.656 171.369 179.58C171.39 179.527 171.452 179.502 171.486 179.456C171.614 179.287 171.623 179.055 171.719 178.878C171.763 178.796 171.923 178.685 171.953 178.588C172.022 178.366 172.124 178.084 172.264 177.886C172.272 177.875 172.294 177.896 172.303 177.886C172.368 177.817 172.501 177.645 172.537 177.555C172.634 177.315 172.713 177.065 172.808 176.812C172.841 176.723 172.939 176.644 172.964 176.564C173.064 176.243 173.104 175.904 173.154 175.574C173.177 175.425 173.188 175.545 173.232 175.45C173.268 175.374 173.278 175.239 173.309 175.162C173.393 174.952 173.581 174.606 173.58 174.377C173.673 174.142 173.928 173.941 173.969 173.675C173.979 173.607 173.931 173.526 173.967 173.469C173.983 173.443 174.025 173.449 174.046 173.427C174.084 173.387 174.054 173.309 174.084 173.262C174.091 173.251 174.114 173.272 174.124 173.262C174.173 173.209 174.1 173.015 174.121 172.933C174.173 172.737 174.268 172.553 174.314 172.355C174.324 172.314 174.294 172.273 174.313 172.231C174.33 172.196 174.382 172.186 174.392 172.148C174.404 172.104 174.358 171.885 174.389 171.819C174.484 171.618 174.588 171.574 174.702 171.405C174.735 171.355 174.764 171.299 174.779 171.24C174.793 171.187 174.741 171.114 174.779 171.075C174.799 171.053 174.842 171.06 174.857 171.034C174.877 170.999 174.928 170.679 174.933 170.662C174.996 170.479 175.072 170.303 175.127 170.126C175.168 169.994 175.066 169.796 175.124 169.673C175.225 169.456 175.168 169.164 175.276 168.972C175.291 168.946 175.334 168.952 175.355 168.93C175.374 168.911 175.345 168.874 175.354 168.848C175.462 168.563 175.434 168.785 175.548 168.394C175.584 168.273 175.602 168.147 175.625 168.023C175.63 167.996 175.61 167.963 175.624 167.94C175.721 167.787 175.703 167.939 175.741 167.734C175.758 167.642 175.745 167.486 175.778 167.404C175.804 167.341 175.862 167.298 175.895 167.239C175.935 167.169 175.887 166.873 175.893 166.827C175.904 166.731 175.957 166.634 175.97 166.538C175.982 166.443 175.934 166.34 175.968 166.25C175.982 166.214 176.03 166.202 176.046 166.167C176.058 166.143 176.036 166.11 176.046 166.085C176.08 165.993 176.165 165.928 176.202 165.837C176.223 165.785 176.208 165.717 176.24 165.672C176.256 165.65 176.293 165.671 176.319 165.671C176.358 165.63 176.412 165.599 176.436 165.547C176.443 165.534 176.571 165.179 176.591 165.093C176.6 165.053 176.576 165.008 176.59 164.969C176.67 164.757 176.747 164.5 176.782 164.268C176.798 164.162 176.853 163.825 176.897 163.732C177.014 163.483 177.014 163.72 177.209 163.236C177.248 163.138 177.382 162.638 177.401 162.535C177.43 162.378 177.374 162.341 177.438 162.205C177.707 161.942 177.617 161.734 177.669 161.421C177.695 161.339 177.721 161.256 177.746 161.174C177.759 161.174 177.782 161.187 177.786 161.174C177.843 160.99 177.771 160.743 177.821 160.556C177.877 160.345 177.909 160.453 177.937 160.267C177.966 160.08 177.954 159.877 178.012 159.69C178.024 159.653 178.079 159.644 178.09 159.607C178.15 159.415 178.077 159.133 178.046 158.949C178.026 158.827 178.059 158.701 178.044 158.578C177.993 158.176 177.942 157.703 178.035 157.302C178.05 157.237 178.019 157.161 178.034 157.096C178.064 156.966 178.149 156.853 178.189 156.725C178.21 156.658 178.199 156.536 178.227 156.477C178.232 156.465 178.26 156.489 178.266 156.477C178.325 156.351 178.341 155.985 178.38 155.859C178.384 155.846 178.41 155.868 178.419 155.859C178.438 155.839 178.411 155.802 178.419 155.776C178.446 155.689 178.503 155.614 178.535 155.528C178.545 155.503 178.514 155.463 178.535 155.446C178.582 155.409 178.642 155.395 178.692 155.363C178.806 155.29 178.884 155.178 179.006 155.113C179.052 155.088 179.161 155.145 179.203 155.112C179.247 155.076 179.27 155.014 179.32 154.987C179.385 154.952 179.451 155.009 179.517 154.986C179.548 154.974 179.593 154.879 179.595 154.861C179.634 154.563 179.789 153.279 179.701 153.008C179.657 152.876 179.61 152.92 179.581 152.803C179.565 152.737 179.591 152.665 179.579 152.597C179.554 152.442 179.529 152.493 179.46 152.351C179.422 152.274 179.488 152.253 179.419 152.146C179.388 152.098 179.328 152.074 179.3 152.023C179.266 151.963 179.307 151.867 179.259 151.818C179.25 151.808 179.225 151.83 179.22 151.818C179.193 151.763 179.245 151.667 179.218 151.612C179.131 151.434 179.05 151.263 178.978 151.079C178.934 150.967 178.972 150.782 178.896 150.627C178.879 150.592 178.834 150.579 178.817 150.545C178.739 150.385 178.748 150.173 178.695 150.011C178.679 149.963 178.588 149.937 178.576 149.888C178.566 149.848 178.586 149.804 178.575 149.764C178.541 149.644 178.461 149.514 178.415 149.395C178.402 149.354 178.388 149.313 178.375 149.272C178.374 149.245 178.383 149.216 178.374 149.19C178.349 149.114 178.284 149.059 178.255 148.985C178.236 148.937 178.276 148.866 178.254 148.82C178.237 148.785 178.191 148.773 178.174 148.738C178.162 148.714 178.174 148.683 178.174 148.656C178.134 148.588 178.089 148.522 178.054 148.451C177.984 148.307 178.013 148.041 177.972 147.958C177.966 147.945 177.943 147.966 177.933 147.958C177.888 147.923 177.845 147.883 177.814 147.835C177.698 147.657 177.801 147.536 177.613 147.343C177.302 147.201 177.227 147.288 177.103 147.553C177.022 147.725 177.105 147.509 177.024 147.595C176.932 147.692 176.862 147.811 176.79 147.926C176.758 147.977 176.757 148.051 176.712 148.091C176.671 148.128 176.603 148.108 176.555 148.133C176.543 148.139 176.555 148.161 176.555 148.175C176.542 148.188 176.534 148.21 176.516 148.216C176.452 148.239 176.365 148.269 176.32 148.341C176.31 148.357 176.297 148.655 176.244 148.753C176.212 148.813 176.159 148.859 176.127 148.919C176.093 148.981 176.064 149.276 176.051 149.29C176.041 149.299 176.015 149.277 176.011 149.29C175.983 149.397 176.021 149.52 175.974 149.62C175.921 149.732 175.799 149.981 175.741 150.074C175.733 150.086 175.71 150.064 175.701 150.074C175.578 150.231 175.509 150.444 175.35 150.571C175.272 150.633 175.172 150.687 175.115 150.778C175.008 150.948 174.868 151.04 174.763 151.152C174.691 151.228 174.639 151.324 174.567 151.4C174.237 151.75 174.562 151.376 174.293 151.567C174.247 151.599 174.221 151.657 174.175 151.691C174.128 151.727 174.064 151.736 174.018 151.775C173.996 151.794 174 151.835 173.98 151.857C173.844 152.001 173.96 151.787 173.783 151.9C173.727 151.935 173.718 152.024 173.666 152.065C173.507 152.192 173.412 152.334 173.274 152.48C173.256 152.499 173.214 152.461 173.196 152.48C173.042 152.643 173.138 152.729 173.08 152.811C172.82 153.085 173.051 152.815 172.923 153.017C172.843 153.146 172.496 153.372 172.375 153.474C172.262 153.57 172.209 153.71 172.101 153.806C171.936 153.952 171.744 154.102 171.592 154.262C171.533 154.325 171.499 154.411 171.436 154.469C171.392 154.51 171.324 154.513 171.279 154.553C171.216 154.608 171.175 154.732 171.083 154.76C171.007 154.783 170.923 154.776 170.847 154.803C170.578 154.899 170.336 155.091 170.062 155.179C170.011 155.195 169.947 155.149 169.904 155.18C169.769 155.275 169.656 155.428 169.512 155.512C169.309 155.632 169.399 155.466 169.237 155.638C169.217 155.659 169.134 155.784 169.081 155.804C169.031 155.821 168.975 155.793 168.923 155.804C168.774 155.837 168.663 156.067 168.531 156.137C168.461 156.174 168.313 156.16 168.217 156.221C168.105 156.292 168.182 156.313 168.06 156.346C167.923 156.383 167.645 156.484 167.51 156.556C167.432 156.597 167.358 156.686 167.274 156.722C167.178 156.763 167.109 156.707 166.999 156.765C166.701 156.924 166.91 156.853 166.646 156.974C166.569 157.008 166.484 157.018 166.41 157.058C166.293 157.12 166.177 157.215 166.056 157.266C166.01 157.286 165.899 157.236 165.859 157.268C165.725 157.375 165.614 157.503 165.468 157.6C165.418 157.633 165.356 157.645 165.311 157.684C165.288 157.703 165.285 157.739 165.272 157.766C165.246 157.794 165.224 157.827 165.194 157.849C165.183 157.857 165.163 157.84 165.154 157.849C165.12 157.885 165.082 158.08 165.038 158.138C165.02 158.163 164.858 158.376 164.842 158.387C164.818 158.404 164.78 158.403 164.764 158.429C164.727 158.487 164.762 158.576 164.726 158.635C164.719 158.646 164.694 158.624 164.687 158.635C164.624 158.723 164.574 158.916 164.531 159.007C164.451 159.179 164.534 158.963 164.453 159.048C164.438 159.064 164.307 159.318 164.297 159.338C164.273 159.39 164.261 159.748 164.222 159.832C164.18 159.92 164.162 159.817 164.144 159.956C164.135 160.024 164.157 160.095 164.145 160.162C164.101 160.403 164.057 160.337 163.951 160.534C163.914 160.602 163.881 161.242 163.917 161.316C163.966 161.418 164.121 161.397 164.225 161.431L164.225 161.431Z" stroke="#C80000" stroke-width="3.1" stroke-linecap="round" stroke-linejoin="round"/>
<path d="M32.7159 79H29.0227L39.7045 49.9091H43.3409L54.0227 79H50.3295L41.6364 54.5114H41.4091L32.7159 79ZM34.0795 67.6364H48.9659V70.7614H34.0795V67.6364ZM67.8153 57.1818V60.0227H56.054V57.1818H67.8153ZM59.5767 79V54.1705C59.5767 52.9205 59.8703 51.8788 60.4574 51.0455C61.0445 50.2121 61.8068 49.5871 62.7443 49.1705C63.6818 48.7538 64.6714 48.5455 65.7131 48.5455C66.5369 48.5455 67.2093 48.6117 67.7301 48.7443C68.2509 48.8769 68.6392 49 68.8949 49.1136L67.929 52.0114C67.7585 51.9545 67.5218 51.8835 67.2188 51.7983C66.9252 51.7131 66.5369 51.6705 66.054 51.6705C64.946 51.6705 64.1458 51.9498 63.6534 52.5085C63.1705 53.0672 62.929 53.8864 62.929 54.9659V79H59.5767ZM72.5135 79V57.1818H75.7521V60.4773H75.9794C76.3771 59.3977 77.0968 58.5218 78.1385 57.8494C79.1802 57.1771 80.3544 56.8409 81.6612 56.8409C81.9074 56.8409 82.2152 56.8456 82.5845 56.8551C82.9538 56.8646 83.2332 56.8788 83.4226 56.8977V60.3068C83.3089 60.2784 83.0485 60.2358 82.6413 60.179C82.2436 60.1127 81.8222 60.0795 81.3771 60.0795C80.3165 60.0795 79.3696 60.3021 78.5362 60.7472C77.7124 61.1828 77.0589 61.7888 76.576 62.5653C76.1025 63.3324 75.8658 64.2083 75.8658 65.1932V79H72.5135ZM87.3963 79V57.1818H90.7486V79H87.3963ZM89.1009 53.5455C88.4474 53.5455 87.884 53.3229 87.4105 52.8778C86.9465 52.4328 86.7145 51.8977 86.7145 51.2727C86.7145 50.6477 86.9465 50.1127 87.4105 49.6676C87.884 49.2225 88.4474 49 89.1009 49C89.7543 49 90.313 49.2225 90.777 49.6676C91.2505 50.1127 91.4872 50.6477 91.4872 51.2727C91.4872 51.8977 91.2505 52.4328 90.777 52.8778C90.313 53.3229 89.7543 53.5455 89.1009 53.5455ZM105.752 79.4545C103.707 79.4545 101.945 78.9716 100.468 78.0057C98.9908 77.0398 97.8544 75.7093 97.0589 74.0142C96.2635 72.3191 95.8658 70.3826 95.8658 68.2045C95.8658 65.9886 96.273 64.0331 97.0874 62.3381C97.9112 60.6335 99.0571 59.303 100.525 58.3466C102.002 57.3807 103.726 56.8977 105.695 56.8977C107.229 56.8977 108.612 57.1818 109.843 57.75C111.074 58.3182 112.083 59.1136 112.869 60.1364C113.655 61.1591 114.142 62.3523 114.332 63.7159H110.979C110.724 62.7216 110.156 61.8409 109.275 61.0739C108.404 60.2973 107.229 59.9091 105.752 59.9091C104.445 59.9091 103.299 60.25 102.315 60.9318C101.339 61.6042 100.577 62.5559 100.028 63.7869C99.4879 65.0085 99.218 66.4432 99.218 68.0909C99.218 69.7765 99.4832 71.2443 100.013 72.4943C100.553 73.7443 101.311 74.715 102.286 75.4062C103.271 76.0975 104.426 76.4432 105.752 76.4432C106.623 76.4432 107.414 76.2917 108.124 75.9886C108.835 75.6856 109.436 75.25 109.928 74.6818C110.421 74.1136 110.771 73.4318 110.979 72.6364H114.332C114.142 73.9242 113.674 75.0843 112.925 76.1165C112.187 77.1392 111.207 77.9536 109.985 78.5597C108.773 79.1562 107.362 79.4545 105.752 79.4545ZM125.653 79.5114C124.27 79.5114 123.015 79.2509 121.888 78.7301C120.762 78.1998 119.867 77.4375 119.204 76.4432C118.541 75.4394 118.21 74.2273 118.21 72.8068C118.21 71.5568 118.456 70.5436 118.948 69.767C119.441 68.9811 120.099 68.3655 120.923 67.9205C121.746 67.4754 122.656 67.1439 123.65 66.9261C124.654 66.6989 125.662 66.5189 126.675 66.3864C128.001 66.2159 129.076 66.0881 129.9 66.0028C130.733 65.9081 131.339 65.7519 131.718 65.5341C132.106 65.3163 132.3 64.9375 132.3 64.3977V64.2841C132.3 62.8826 131.917 61.7936 131.15 61.017C130.392 60.2405 129.242 59.8523 127.698 59.8523C126.098 59.8523 124.843 60.2027 123.934 60.9034C123.025 61.6042 122.386 62.3523 122.016 63.1477L118.835 62.0114C119.403 60.6856 120.16 59.6534 121.107 58.9148C122.064 58.1667 123.105 57.6458 124.232 57.3523C125.369 57.0492 126.486 56.8977 127.585 56.8977C128.285 56.8977 129.09 56.983 129.999 57.1534C130.918 57.3144 131.803 57.6506 132.656 58.1619C133.517 58.6733 134.232 59.4451 134.8 60.4773C135.369 61.5095 135.653 62.892 135.653 64.625V79H132.3V76.0455H132.13C131.903 76.5189 131.524 77.0256 130.994 77.5653C130.463 78.1051 129.758 78.5644 128.877 78.9432C127.996 79.322 126.922 79.5114 125.653 79.5114ZM126.164 76.5C127.49 76.5 128.607 76.2396 129.516 75.7188C130.435 75.1979 131.126 74.5256 131.59 73.7017C132.064 72.8778 132.3 72.0114 132.3 71.1023V68.0341C132.158 68.2045 131.846 68.3608 131.363 68.5028C130.889 68.6354 130.34 68.7538 129.715 68.858C129.1 68.9527 128.498 69.0379 127.911 69.1136C127.334 69.1799 126.865 69.2367 126.505 69.2841C125.634 69.3977 124.819 69.5824 124.062 69.8381C123.314 70.0843 122.708 70.4583 122.244 70.9602C121.789 71.4527 121.562 72.125 121.562 72.9773C121.562 74.142 121.993 75.0227 122.854 75.6193C123.726 76.2064 124.829 76.5 126.164 76.5Z" fill="#006879"/>
</svg>
