<svg width="180" height="143" viewBox="0 0 180 143" fill="none" xmlns="http://www.w3.org/2000/svg">
<path d="M112.925 15.8023C113.277 16.0837 113.157 16.154 113.325 16.5397C113.34 16.5751 113.385 16.5883 113.405 16.6214C113.488 16.7647 113.505 16.9347 113.605 17.0724C113.747 17.266 114.037 17.353 114.16 17.4792C114.437 17.7631 114.139 17.4758 114.241 17.6843C114.249 17.6965 114.271 17.6743 114.28 17.684C114.34 17.7455 114.406 17.8079 114.44 17.8883C114.473 17.9678 114.471 18.0644 114.521 18.1346C114.545 18.1697 114.599 18.1614 114.639 18.1747M117.559 18.7663C117.538 19.0167 117.652 18.9157 117.76 19.135C117.866 19.3536 117.584 19.0445 117.801 19.3405C117.819 19.3649 117.854 19.366 117.88 19.381C117.963 19.4293 118.033 19.5 118.118 19.5435C118.159 19.5645 118.237 19.518 118.276 19.5418C118.332 19.5766 118.379 19.6264 118.434 19.6639C118.514 19.7182 118.671 19.6588 118.672 19.7853M121.837 21.4864C121.89 21.486 121.947 21.4627 121.995 21.4848C122.359 21.6537 122.597 22.0198 122.907 22.2588C123.047 22.3665 123.207 22.4676 123.344 22.5843C123.389 22.6233 123.508 22.7695 123.582 22.788C123.719 22.8226 123.879 22.7558 124.015 22.8252C124.049 22.8423 124.059 22.8965 124.095 22.9069C124.62 23.0586 124.067 22.8451 124.529 22.9854C124.606 23.0088 124.75 23.1069 124.845 23.106M127.923 23.6554C127.937 23.7239 127.934 23.7985 127.964 23.8609C128.067 24.0711 128.301 24.2258 128.403 24.4333C128.438 24.506 128.476 24.6347 128.562 24.6789C128.831 24.8162 128.841 24.8435 128.999 25.1278C129.05 25.2199 129.119 25.2775 129.159 25.3734C129.219 25.5165 129.255 25.6721 129.281 25.8252C129.29 25.8792 129.258 25.9409 129.281 25.9898C129.32 26.0696 129.36 26.0543 129.361 26.1537M126.814 27.7407C126.879 27.7538 126.95 27.7516 127.011 27.78C127.211 27.8728 127.33 28.0459 127.526 28.1459C127.603 28.1852 127.949 28.1625 128.039 28.1825C128.136 28.2043 128.218 28.2791 128.315 28.3036C128.522 28.3555 128.854 28.2985 129.064 28.2968M131.04 29.0204C131.093 29.0611 131.157 29.0893 131.199 29.1425C131.215 29.1638 131.185 29.2022 131.199 29.2249C131.427 29.5745 131.267 29.3297 131.437 29.3874C131.5 29.4086 131.51 29.5029 131.557 29.551C131.591 29.5858 131.642 29.5976 131.676 29.6323C131.787 29.634 131.686 29.725 131.716 29.7555C131.726 29.7651 131.742 29.7552 131.756 29.7551C131.783 29.7686 131.817 29.7718 131.835 29.7956C131.932 29.9197 131.955 30.1651 132.114 30.1636M2.66728 64.2708C2.9462 64.1748 3.22629 64.1945 3.50318 64.2648C3.56886 64.2814 3.66664 64.2327 3.72607 64.2631C3.8211 64.3119 3.93727 64.3521 4.06076 64.3189C4.26987 64.2626 4.18978 64.2211 4.33824 64.1422C4.39662 64.1114 4.50603 64.1756 4.56108 64.1405C4.8396 63.9631 4.73048 63.9829 4.94957 63.9048C5.09235 63.8539 5.04541 63.6518 5.11441 63.5543C5.11441 63.3903 5.23991 63.5385 5.28118 63.4948C5.29416 63.481 5.26741 63.4504 5.28079 63.4366C5.41263 63.2969 5.67045 63.1415 5.8352 63.025C5.97466 62.9264 6.12727 62.483 6.22141 62.44C6.329 62.3909 6.45266 62.3815 6.55491 62.3211C6.5768 62.3084 7.31967 61.4132 7.32875 61.384C7.33767 61.3544 7.30361 61.1846 7.32875 61.1511C7.53988 60.8526 7.78301 60.7519 8.04919 60.5637C8.08487 60.5384 8.1749 60.5772 8.21641 60.5628C8.82371 60.3464 8.27639 60.5594 8.60485 60.3271C8.68933 60.2673 9.35851 60.2633 9.49602 60.2623C9.59689 60.2616 9.84331 60.2309 9.94142 60.2008C10.0209 60.1764 10.083 60.1044 10.1635 60.0827C10.6264 59.9582 11.2421 60.1588 11.7237 60.0713C11.8713 60.0444 11.975 59.8982 12.1122 59.8356C12.1973 59.7967 12.3009 59.8577 12.3908 59.8339C12.5626 59.7876 12.7782 59.5986 12.9461 59.5387C13.0655 59.4962 13.2125 59.5626 13.3361 59.5362C13.6024 59.4785 13.9939 59.3618 14.2257 59.2385C14.2922 59.2031 14.3251 59.0981 14.3917 59.0627C14.5774 58.964 15.197 59.102 15.3943 58.9971C15.5844 58.8961 15.7915 58.7404 16.0053 58.7015C16.2028 58.6656 16.388 58.6429 16.5618 58.581C16.8953 58.4621 17.3427 58.6917 17.6762 58.5725C17.7582 58.5433 17.8283 58.4794 17.8983 58.4545C17.9688 58.4294 18.0549 58.488 18.1212 58.4528C18.2015 58.4101 18.0012 58.3788 18.2872 58.2769C18.4501 57.3768 19.4431 57.861 19.9258 57.6044C19.9923 57.5692 20.0232 57.4856 20.0823 57.4386C20.2165 57.3319 20.4484 57.3451 20.5541 57.2704C20.6027 57.236 20.5905 57.1489 20.6319 57.1052C20.6554 57.0805 21.0759 56.8556 21.1813 56.7719C21.3657 56.6252 21.4986 56.6858 21.653 56.6037C21.6984 56.5798 21.8004 56.3601 21.8089 56.3556C21.8794 56.3182 21.9771 56.3952 22.0453 56.3539C22.2091 56.2545 22.3472 56.1109 22.516 56.0211C22.5946 55.9794 22.6737 56.0405 22.7523 56.0194C23.1478 55.913 22.8396 55.973 23.2234 55.769C23.307 55.7246 23.2973 55.8121 23.3811 55.7681C23.5177 55.6955 23.6659 55.6322 23.7735 55.5182C23.7921 55.4987 23.7548 55.4554 23.7729 55.4359C23.8491 55.3551 24.1415 55.2941 24.244 55.1854C24.2805 55.1464 24.214 55.0666 24.244 55.0208C24.278 54.9663 24.5826 54.7169 24.6358 54.6886C24.6829 54.6637 24.7465 54.7123 24.7934 54.6877C24.821 54.6731 24.7804 54.2969 24.7934 54.2761C24.8258 54.2064 24.9135 54.1779 24.9499 54.1103C25.1312 53.7733 25.1512 53.3804 25.258 53.0377C25.2272 52.8586 25.3891 53.0093 25.415 52.9542C25.4263 52.9305 25.4798 52.5767 25.4912 52.542C25.5447 52.3692 25.4466 52.1426 25.4912 51.9657C25.5414 51.7503 25.7326 51.5273 25.802 51.3048C25.8393 51.1843 25.7468 51.0044 25.802 50.8932C25.8684 50.7519 25.8255 50.6207 25.8782 50.481C25.9422 50.3096 26.0698 50.1642 26.1114 49.9853C26.1365 49.8786 26.0765 49.7603 26.1114 49.656C26.147 49.542 26.2892 49.5707 26.3466 49.4895C26.3961 49.4198 26.3653 49.3038 26.4236 49.242C26.4836 49.1787 26.8173 49.3211 26.8181 49.3215C27.0029 49.3971 27.0548 49.4834 27.1352 49.5661C27.2041 49.6375 27.4685 49.6962 27.5303 49.7279C27.5968 49.7621 27.6223 49.8571 27.6889 49.8914C27.9336 50.017 28.264 49.9695 28.5564 49.9674C28.6614 49.9666 28.7978 50.0432 28.8716 49.9648C28.8903 49.9453 28.8594 49.9071 28.871 49.8825C28.9375 49.7408 29.0237 49.8476 29.1063 49.7161C29.2243 49.5282 29.4061 49.3289 29.4963 49.1369C29.5661 48.9886 29.5847 48.7821 29.6506 48.6418C29.6831 48.5721 29.78 48.5482 29.8071 48.476C29.8469 48.3706 29.8193 48.2371 29.8833 48.1461C29.915 48.102 29.9912 48.1626 30.041 48.1452C30.1721 48.0985 30.4584 47.7423 30.6681 47.6466C30.8631 47.5576 32.0688 47.0894 32.1604 46.8947C32.2009 46.8083 32.1117 46.6474 32.1604 46.5654C32.2269 46.4473 32.3278 46.3525 32.3946 46.2344C32.5235 46.0064 32.3686 45.2771 32.5439 44.9983C32.6047 44.901 32.7219 44.8499 32.7786 44.7496C32.811 44.6929 32.8378 44.3219 32.9324 44.1722C32.947 44.1492 32.9891 44.187 33.011 44.1716C33.1618 44.0649 33.2514 43.8637 33.4022 43.7571C33.4338 43.5624 33.5671 43.7181 33.6381 43.673C33.9519 43.4731 34.2432 43.1977 34.4999 42.9257C34.7047 42.869 34.9221 42.8487 35.1143 42.7556C35.1808 42.7235 35.5215 42.1153 35.5828 42.0935C35.7095 42.0484 35.8567 42.0718 35.9761 42.0083C36.1068 41.9388 36.7215 41.3015 36.8375 41.1787C36.9993 41.0071 36.5883 41.1871 36.9153 41.0134C36.999 40.9689 37.1468 41.0556 37.2305 41.0109C37.297 40.9757 37.3208 40.8802 37.387 40.845C37.5063 40.7816 37.6508 40.7947 37.7804 40.7598C38.0359 40.6911 38.329 40.9161 38.492 41.0839C38.5106 41.1032 38.4692 41.1541 38.4925 41.1663C38.7034 41.2745 38.6013 41.049 38.7294 41.2468C38.8334 41.4072 38.7983 41.6795 38.8909 41.8219C38.9323 41.8862 39.008 41.9212 39.0496 41.9854C39.112 42.0811 39.0147 42.2822 39.0496 42.397C39.1335 42.654 39.3355 42.9032 39.4486 43.1351C39.5167 43.275 39.7372 43.3242 39.8443 43.3792C40.0651 43.4925 40.2406 43.7466 40.478 43.8685C40.7651 44.0158 42.413 43.8168 42.8416 43.7688C43.3276 43.7144 43.9755 43.827 44.4165 43.5926C45.1431 43.2063 44.9568 42.3664 45.113 41.6938C45.2054 41.2956 45.1503 41.6972 45.2689 41.4457C45.3168 41.3441 45.286 41.2104 45.3452 41.1158C45.3857 41.0509 45.4746 41.0223 45.5017 40.95C45.5301 40.8733 45.479 40.7823 45.5017 40.703C45.5812 40.4051 45.7455 40.331 45.8125 40.0421C45.8279 39.9761 45.7801 39.8447 45.8125 39.7951C45.845 39.7438 45.9172 39.7395 45.9695 39.7116C46.0214 39.6015 46.0821 39.4954 46.125 39.3811C46.1347 39.3556 46.1246 39.3262 46.1244 39.2988C46.1238 39.2165 46.0879 39.1257 46.1244 39.0518C46.2326 38.8219 46.5329 38.61 46.6716 38.3892C46.7626 38.2444 46.696 38.0599 46.7471 37.8946C46.8014 37.7209 46.9569 37.5424 47.0588 37.3983C47.2575 37.1176 47.5276 37.0258 47.7642 36.8169C47.9412 36.6605 48.0674 36.4062 48.3126 36.3188C48.6835 36.1866 49.182 36.3636 49.5733 36.3096C50.0985 36.2371 49.9556 36.2264 50.4392 36.1386C50.5793 36.1131 50.7867 36.1908 50.912 36.1352C51.1609 36.0247 51.3706 35.8315 51.6183 35.7183C51.9228 35.5793 52.2533 35.5108 52.5619 35.3821C52.7145 35.3184 53.3314 34.9689 53.6617 34.88C54.0485 34.776 55.5578 34.8148 55.8693 35.0284C55.8863 35.04 56.1212 35.3286 56.1867 35.3554C56.2605 35.3855 56.3489 35.3261 56.4231 35.3537C56.6445 35.436 56.8315 35.6053 57.0558 35.6784C57.8836 35.9485 58.7453 36.0243 59.5814 36.2362C59.7665 36.283 60.5948 36.3151 60.8422 36.2268C60.9286 36.1961 61.9195 35.9592 61.9438 35.9717C62.0558 36.0292 62.0805 36.683 62.0281 36.7944C62.0022 36.8495 61.9033 36.8266 61.8711 36.8779C61.8119 36.9725 61.8281 37.1002 61.7949 37.2078C61.7689 37.2919 61.8427 37.4646 61.7949 37.5371C61.7154 37.6633 61.64 37.742 61.5607 37.8682C61.4532 38.0393 61.4621 38.1845 61.4064 38.3633C61.3837 38.437 61.2827 38.4594 61.2499 38.5291C61.215 38.6029 61.2758 38.6978 61.2499 38.776C61.1931 38.9576 60.9181 39.1893 60.8604 39.4376C60.8166 39.6265 60.9611 40.0262 60.8685 40.1785C60.828 40.2434 60.7448 40.2747 60.7121 40.3443C60.6399 40.4984 60.7209 41.6172 60.7218 41.8262C60.7218 42.1245 60.5939 42.839 60.809 43.0605C60.8276 43.0797 60.8689 43.0407 60.8875 43.0599C60.9998 43.1755 60.8316 43.4014 60.8875 43.5539C60.9094 43.6107 61.004 43.592 61.0457 43.6351C61.083 43.6736 61.0149 43.756 61.0457 43.7997C61.113 43.8923 61.2213 43.9485 61.2837 44.0449C61.33 44.1168 61.3048 44.2304 61.364 44.2913C61.4232 44.3522 61.5342 44.3204 61.601 44.3719C61.7009 44.449 61.841 44.8097 61.9195 44.8635C62.52 45.2755 61.7256 44.491 62.4727 45.1064C62.519 45.1444 62.5263 45.2158 62.553 45.2705C62.6317 45.2699 62.7236 45.2236 62.7895 45.2688C62.8332 45.2989 62.7732 45.3815 62.7895 45.4334C62.8495 45.6173 62.9119 45.4258 63.0264 45.514C63.3726 45.7813 63.0434 45.7609 63.2645 45.7593C63.4559 45.6865 63.6439 45.6033 63.8386 45.541C64.0312 45.4795 64.031 45.7226 64.1744 45.7714C64.4079 45.8508 64.7259 45.6721 64.9546 45.7655C65.1407 45.8418 65.2246 46.1361 65.4034 46.2279C65.707 46.3837 65.4132 46.1573 65.8509 46.4575C65.9263 46.509 66.2486 46.5204 66.2974 46.5707C66.4157 46.6925 66.4051 46.9129 66.5234 47.0347C66.5721 47.0848 66.8986 47.2147 66.9708 47.2643C67.1915 47.2511 67.0243 47.4354 67.0838 47.4963C67.2432 47.6604 67.7524 47.4774 67.754 47.7242C67.9392 47.6453 68.1118 47.5185 68.3096 47.4875C68.5098 47.4562 68.552 47.9019 68.8708 48.0656C69.1274 48.1972 69.253 48.5594 69.5442 48.7592C69.7025 48.8678 70.0163 48.6952 70.1022 48.8715C70.2025 48.9626 70.0544 49.117 70.1022 49.2208C70.2194 49.4613 70.4592 49.6093 70.5519 49.7996C70.7419 50.1897 71.333 50.2551 71.4482 50.4917C71.5569 50.7148 71.5121 51.0466 71.7872 51.1878C72.0137 51.304 73.1787 51.1775 73.4589 51.1754C73.7977 51.1729 73.6537 51.0064 73.9031 50.9393C74.2712 50.8403 75.0835 50.9545 75.3511 50.8123C75.4974 50.7345 75.6482 50.5375 75.7945 50.4597C75.931 50.3871 76.0977 50.4005 76.2395 50.34C76.4846 50.2355 77.1498 49.6788 77.2362 49.4012C77.3187 49.1365 77.1134 48.7176 77.2281 48.4698C77.2646 48.3919 77.4135 48.4296 77.4502 48.3517C77.5767 48.0827 77.4712 47.3027 77.5522 46.9538C77.5644 46.9004 77.6398 46.8858 77.6629 46.8365C77.7921 46.5618 77.8241 46.2042 77.8795 45.9035C77.9509 45.515 78.1585 45.3101 78.319 44.9688C78.5073 44.5685 78.4607 43.7227 78.6423 43.3364C78.6586 43.3016 78.7277 43.3632 78.7538 43.3356C78.8276 43.2579 78.7457 42.5657 78.7457 42.4041C78.7457 42.044 78.7725 41.8087 78.8509 41.4719C79.0074 40.7979 78.7399 40.0438 78.9482 39.3754C79.0617 39.0112 79.0227 39.4137 79.1702 39.2573C79.2616 39.1605 79.094 36.458 79.0383 36.231C78.967 35.9417 78.7837 35.4943 78.6971 35.1857C78.5027 34.4936 79.0144 34.21 79.3555 33.6672C79.4465 33.5223 79.3895 33.3772 79.5744 33.0834C80.2196 33.5207 79.8455 33.9904 80.0357 34.4773C80.0957 34.6311 80.2977 34.7854 80.3732 34.9405C80.4811 35.162 80.2884 35.5246 80.3813 35.7555C80.4519 35.9352 80.6725 36.0309 80.7188 36.2188C80.8072 36.5775 80.6125 37.0335 80.7269 37.383C80.7828 37.5538 81.0291 37.7031 81.0644 37.8463C81.1333 38.1258 80.967 38.2085 81.1797 38.4276C81.2064 38.4549 81.2647 38.3995 81.2912 38.4268C81.425 38.5646 81.2126 39.1839 81.2993 39.3582C81.4988 39.7677 81.9503 39.8444 82.0841 40.051C82.1255 40.1153 82.0444 40.2196 82.0841 40.2838C82.1303 40.3557 82.2486 40.3377 82.3077 40.3987C82.5476 40.6458 82.3702 41.0595 82.7598 41.3268C83.1516 41.5955 83.5757 41.4106 83.9872 41.5506C84.0229 41.5626 83.9613 41.6398 83.9872 41.667C84.0814 41.764 84.3356 41.7129 84.4338 41.7802C84.5216 41.8404 84.5705 41.9512 84.6583 42.0114C84.825 42.1258 84.8891 41.9023 85.1049 42.1246C85.2019 42.2246 85.0481 42.6976 85.113 42.8231C85.1681 42.9365 85.7002 43.6142 85.7879 43.7496C85.8712 43.8782 85.7612 44.0633 85.7879 44.2153C85.8777 44.6683 86.0988 45.1674 86.2431 45.6092C86.3529 45.9455 86.2512 46.4257 86.3624 46.7726C86.5127 47.2328 86.8499 47.544 87.0389 47.932C87.1762 48.214 87.0591 48.7927 87.1581 49.0954C87.2108 49.256 87.5353 49.6401 87.6087 49.7907C87.7383 50.0569 87.7032 50.7432 87.8393 50.9533C87.8855 51.0251 88.0165 50.9963 88.0631 51.0681C88.1279 51.1683 88.029 51.5349 88.0631 51.6502C88.1239 51.8355 88.2365 52.407 88.4036 52.5792C88.4304 52.6064 88.4887 52.5512 88.5151 52.5784C88.5678 52.6329 88.4924 52.7377 88.5151 52.8112C88.5678 52.9735 88.6735 53.2511 88.7419 53.3917C88.9772 53.8745 88.7338 53.2673 88.9656 53.5065C89.1978 53.7457 88.6133 53.4997 89.0787 53.7385C89.1688 53.7848 89.4763 53.7512 89.5252 53.8517C89.5593 53.9209 89.4928 54.0153 89.5252 54.0845C89.552 54.1393 90.1422 54.4916 90.1978 54.6618C90.2221 54.7352 90.1467 54.8401 90.1978 54.8946C90.3162 55.0167 90.7064 54.9514 90.8673 55.0061C90.9956 55.0498 91.0237 55.2829 91.0924 55.3538C91.1192 55.381 91.1775 55.3257 91.204 55.3529C91.4733 55.6304 91.6837 56.1753 91.8804 56.5123C91.9412 56.6171 91.9105 56.7746 91.9943 56.8607C92.021 56.888 92.0792 56.8327 92.1056 56.8599C92.1616 56.9177 92.0521 57.1514 92.1056 57.2092C92.177 57.2825 93.1571 57.9927 93.2257 58.016C93.4308 58.0858 93.8244 58.1493 94.0073 58.2431C94.178 58.2727 94.2025 58.5174 94.344 58.59C94.514 58.6772 94.7671 58.5633 94.902 58.7022C94.9288 58.7295 94.872 58.7974 94.9028 58.8187C95.0734 58.9357 95.8612 59.161 96.0196 59.1598C96.0569 59.1595 96.1141 59.1244 96.131 59.159C96.165 59.2282 96.1083 59.3184 96.131 59.3918C96.1796 59.5413 96.4653 59.8518 96.5807 59.9707C96.6488 60.3108 96.7167 60.6509 96.7846 60.991C96.7852 61.0734 96.77 61.1574 96.7846 61.238C96.839 61.5134 97.1282 61.5911 97.1824 61.8114C97.276 62.1907 97.0862 62.5879 97.269 62.9633C97.2958 63.0181 97.3944 62.9937 97.4273 63.0445C97.5765 63.034 97.4808 63.2362 97.5075 63.2909C97.6413 63.5656 98.0055 63.7448 98.143 64.0272C98.2288 64.2035 98.1511 64.4413 98.3833 64.6017C98.5001 64.6819 98.7516 64.6267 98.8566 64.6806C98.9093 64.7076 98.8858 64.8135 98.9369 64.8447C99.156 64.9798 99.3795 64.8257 99.5678 64.9224C99.6881 64.984 99.7496 65.1913 99.8066 65.2499C99.8878 65.3336 100.181 65.1791 100.279 65.2465C100.517 65.0416 100.416 65.4695 100.439 65.4924C100.457 65.5116 100.499 65.4725 100.517 65.4917C101.045 66.0359 100.402 65.4354 100.597 65.7381C100.669 65.8479 100.796 65.9426 100.836 66.0657C100.898 66.2547 100.836 66.5449 100.919 66.7238C101.086 67.0652 100.911 66.6358 101.078 66.8049C101.122 66.8507 101.063 67.163 101.078 67.2165C101.161 67.4729 101.13 67.1888 101.236 67.2977C101.306 67.3707 101.395 67.68 101.475 67.7899C101.623 67.9925 101.804 68.1594 101.952 68.3627C102.076 68.5321 102.207 68.8703 102.351 69.0184C102.369 69.0377 102.417 68.9934 102.429 69.0179C102.453 69.0667 102.413 69.1305 102.429 69.1825C102.467 69.2959 102.983 69.5897 103.063 69.6718C103.105 69.7149 103.101 69.7928 103.143 69.8359C103.218 69.913 103.356 69.8077 103.458 69.8333C103.539 69.8537 103.585 70.0456 103.618 70.0792C103.66 70.1223 103.734 70.1173 103.776 70.1603C103.876 70.2637 104.012 70.5675 104.094 70.652C104.2 70.761 104.169 70.4768 104.253 70.7331C104.27 70.7851 104.23 70.8488 104.253 70.8977C104.279 70.9525 104.369 70.9359 104.411 70.9789C104.453 71.022 104.449 71.0999 104.491 71.143C104.528 71.1815 104.597 71.1315 104.649 71.1421C104.755 71.1636 104.867 71.1723 104.964 71.2222C105.202 71.0173 105.102 71.4451 105.124 71.468C105.212 71.5587 105.714 71.4226 105.835 71.7921C105.863 71.8778 106.012 72.3338 106.075 72.3667C106.122 72.3909 106.189 72.3354 106.233 72.3658C106.415 72.4903 106.224 72.6018 106.314 72.6945C106.356 72.7377 106.43 72.7326 106.472 72.7757C106.586 72.8929 106.482 73.1203 106.554 73.269C106.605 73.3728 106.722 73.4239 106.792 73.5143C106.936 73.6992 106.819 73.7295 106.874 73.9253C106.983 74.312 107.231 74.6139 107.354 74.9921C107.406 75.1507 107.285 75.4187 107.354 75.5684C107.396 75.6534 107.471 75.6468 107.513 75.7319C107.617 75.9455 107.471 76.3139 107.521 76.5551C107.614 77.0229 107.736 77.4294 107.845 77.87C107.895 78.0752 107.815 78.3198 107.853 78.5286C107.894 78.771 108.057 78.9617 108.094 79.1855C108.173 79.6567 108.29 81.8587 108.114 82.2315C107.984 82.509 108.203 83.2044 108.123 83.5488C108.074 83.7633 107.997 84 107.97 84.2086C107.952 84.3445 108.008 84.488 107.97 84.6202C107.919 84.8127 107.8 84.7312 107.735 84.8689C107.694 84.957 107.779 85.1101 107.735 85.1982C107.531 85.6318 107.778 86.2037 107.666 86.6807C107.535 87.2462 107.363 87.3256 107.122 87.8373C107.058 87.9731 107.143 88.396 107.048 88.4964C107.029 88.516 106.984 88.4741 106.969 88.4971C106.664 88.9829 106.839 90.1218 106.748 90.7216C106.74 90.7758 106.772 90.837 106.748 90.8862C106.715 90.9559 106.618 90.9798 106.591 91.052C106.553 91.1542 106.668 91.3032 106.591 91.3814C106.573 91.4009 106.531 91.3624 106.513 91.3819C106.359 91.5453 106.502 91.5712 106.436 91.7118C106.377 91.8383 106.296 91.7772 106.201 91.8782C106.125 91.9588 106.179 92.1106 106.125 92.2081C106.087 92.2749 106.006 92.3071 105.969 92.3739C105.864 92.5587 105.872 92.7677 105.815 92.9514C105.777 93.0723 105.626 93.1383 105.581 93.2824C105.555 93.3649 105.634 93.4467 105.581 93.5294C105.548 93.5807 105.465 93.5692 105.424 93.6129C105.334 93.7077 105.07 94.2067 105.034 94.2744C104.898 94.527 104.922 94.8071 104.724 95.0176C104.02 95.6502 103.964 96.2982 103.648 97.0835C103.559 97.3054 103.244 97.4288 103.1 97.5815C103.036 97.6494 102.84 97.9211 102.788 97.9954C102.7 98.1196 102.268 99.2508 102.246 99.399C102.229 99.5074 102.306 99.6365 102.246 99.7283C102.121 99.926 102.064 99.8337 102.011 100.059C101.999 100.113 102.036 100.175 102.011 100.224C101.88 100.502 101.599 100.766 101.465 101.051C101.442 101.101 101.482 101.164 101.465 101.216C101.383 101.478 101.241 101.767 101.156 102.042C101.131 102.121 101.195 102.292 101.156 102.371C101.104 102.481 101.083 102.614 101 102.701C100.981 102.721 100.936 102.679 100.921 102.702C100.887 102.757 100.407 104.212 100.381 104.352C100.336 104.598 100.353 104.847 100.307 105.094C100.219 105.573 100.037 106.002 99.9226 106.496C99.8853 106.659 99.8966 106.832 99.8471 106.991C99.8269 107.056 99.7102 107.366 99.6923 107.404C99.6599 107.473 99.5588 107.496 99.5359 107.57C99.5196 107.622 99.5529 107.682 99.5359 107.734C99.5051 107.833 99.332 107.884 99.3011 107.983C99.2687 108.087 99.323 108.204 99.3011 108.312C99.2703 108.481 98.9848 108.564 98.9092 108.644C98.8282 108.73 98.521 109.262 98.4415 109.389C98.4009 109.454 98.4058 109.654 98.3645 109.719C98.2534 109.895 97.7757 110.303 97.7386 110.382C97.7272 110.407 97.7571 110.445 97.739 110.464C97.4982 110.719 97.383 110.622 97.0315 110.717C96.6459 110.82 96.4245 111.225 96.0109 111.3C95.8624 111.327 95.6067 111.252 95.4593 111.305C95.4245 111.317 95.4074 111.36 95.3807 111.388C95.1974 111.471 95.0201 111.571 94.8307 111.639C94.7146 111.68 94.4602 111.57 94.3579 111.642C94.1505 111.789 94.0829 111.925 93.8085 111.975C93.7307 111.989 93.6451 111.946 93.5722 111.977C93.5032 112.006 93.4791 112.102 93.4156 112.143C93.2738 112.233 93.0816 112.214 92.944 112.311C92.8516 112.376 92.8043 112.499 92.7091 112.56C92.6143 112.62 92.4143 112.51 92.3152 112.562C92.2795 112.581 92.2005 112.767 92.1593 112.81C92.1228 112.849 91.9703 112.787 91.9228 112.812C91.7372 112.911 91.6838 113.106 91.5316 113.227C91.4044 113.328 91.2016 113.237 91.0593 113.312C91.0358 113.325 91.0779 113.375 91.0599 113.395C90.9592 113.501 90.5653 113.845 90.5116 113.893C89.9684 114.372 89.1119 114.973 88.3911 114.979C88.2622 114.815 88.1213 114.661 88.0043 114.488C87.9889 114.465 88.0039 114.433 88.0038 114.406C87.9503 114.296 87.915 114.175 87.8439 114.077C87.8277 114.055 87.7839 114.097 87.7652 114.078C87.6271 113.936 87.4878 113.629 87.3674 113.505C87.3049 113.441 87.1298 113.451 87.0516 113.425C86.939 113.386 86.9867 113.252 86.8923 113.179C86.7867 113.097 86.6934 112.995 86.5755 112.934C86.5519 112.922 86.5089 112.959 86.4968 112.935C86.4733 112.886 86.5195 112.819 86.4968 112.77C86.3345 112.437 86.0287 112.279 85.7055 112.282C85.3769 112.284 85.0018 112.231 84.681 112.289C84.3631 112.347 84.1147 112.601 83.8169 112.707C83.5775 112.793 83.2503 112.738 83.03 112.878C82.7107 113.081 83.0381 113.013 82.7165 113.127C82.667 113.145 82.5957 113.089 82.5588 113.128C82.5402 113.148 82.5775 113.191 82.5594 113.21C82.5594 113.442 82.3818 113.233 82.3236 113.294C82.3049 113.314 82.3495 113.37 82.3241 113.377C82.2224 113.404 82.1118 113.357 82.0089 113.379C81.827 113.419 81.7595 113.669 81.6177 113.794C81.4785 113.917 81.1581 113.985 80.9889 114.045C80.6485 114.167 80.0692 113.979 79.8057 113.889C79.4356 113.764 78.4583 114.055 78.1497 113.737C78.1311 113.718 78.1708 113.67 78.1491 113.655C77.6033 113.28 78.094 113.761 77.8328 113.492C77.719 113.375 77.6015 113.172 77.5149 113.083C77.4663 113.033 77.3309 113.03 77.2774 112.92C77.2539 112.871 77.3139 112.794 77.2774 112.755C77.1807 112.656 77.1011 112.718 77.0399 112.593C77.0026 112.515 77.0059 112.418 76.9597 112.346C76.9029 112.258 76.3338 111.978 76.2476 111.94C76.161 111.902 75.9387 111.904 75.853 111.86C75.5478 111.704 75.1701 111.461 74.8253 111.374C74.7743 111.361 74.7148 111.399 74.6677 111.375C74.6442 111.363 74.6856 111.312 74.6672 111.292C74.6485 111.273 74.6071 111.312 74.5885 111.293C74.4532 111.154 74.3376 110.953 74.1912 110.802C74.1082 110.716 73.9014 110.587 73.8738 110.475C73.6264 109.471 74.5679 111.738 73.553 109.654C73.4849 109.515 73.5798 109.234 73.553 109.078C73.493 108.777 73.4457 108.776 73.3127 108.503C73.2357 108.345 73.2706 108.011 73.2294 107.845C73.2205 107.807 73.1621 107.8 73.15 107.763C73.038 107.421 73.2172 107.014 72.9851 106.694C72.9494 106.645 72.8687 106.656 72.8269 106.613C72.5759 106.355 72.4972 105.949 72.1904 105.712C72.1482 105.68 72.0567 105.762 72.0328 105.713C71.9276 105.497 72.0482 104.678 71.9451 104.396C71.8536 104.147 71.2387 103.26 71.0694 103.086C70.8937 102.905 70.624 102.79 70.4357 102.596C69.9308 102.691 70.0172 102.326 69.731 102.18C69.6306 102.129 69.4421 102.219 69.3371 102.184C69.0567 102.089 68.5939 101.634 68.4636 101.368C68.0766 100.576 68.5664 101.521 68.3814 100.957C68.2466 100.546 68.3652 101.094 68.2231 100.876C68.0608 100.626 68.1241 100.318 68.0588 100.054C67.9859 99.7598 67.9484 99.6665 67.817 99.3978C67.7425 99.2448 67.8876 98.9746 67.8089 98.8216C67.6172 98.4291 67.7169 97.4973 67.5578 97.0125C67.5067 96.8569 67.1999 96.7677 67.0824 96.6874C66.755 96.4636 66.5089 95.8745 66.0526 96.0379C65.8081 96.1254 65.9568 96.0906 65.8182 96.287C65.7517 96.3807 65.6328 96.4315 65.5838 96.5361C65.5124 96.6878 65.6608 96.7865 65.5083 96.9484C65.3805 97.0842 65.1509 97.2452 65.0389 97.3642C64.9805 97.4261 65.0073 97.5392 64.9619 97.6118C64.8742 97.7518 64.5293 97.9885 64.4143 98.1107C64.3101 98.2214 64.5821 98.1882 64.3365 98.276C64.287 98.2938 64.2157 98.2384 64.1789 98.2777C64.1424 98.3169 64.1967 98.3902 64.1789 98.4424C64.1383 98.5729 63.9577 98.5943 63.8656 98.6922C63.7537 98.8112 63.6527 99.0641 63.4757 99.1896C63.3086 99.3082 63.1234 99.4184 63.0062 99.6054C62.9795 99.6484 62.9608 99.8196 62.9292 99.8531C62.7447 100.049 62.4277 100.17 62.3035 100.435C62.1961 100.664 62.0101 101.046 61.7579 101.181C61.6615 101.232 61.5398 101.214 61.4433 101.266C61.0993 101.449 61.4076 101.596 61.05 101.352C61.0281 101.337 60.9899 101.372 60.9713 101.352C60.9494 101.33 60.5188 100.67 60.4925 100.616C60.469 100.567 60.4925 100.506 60.4925 100.451C60.4658 100.369 60.4496 100.282 60.4115 100.205C60.3409 100.06 60.1319 99.8735 60.0923 99.7136C60.0655 99.6074 60.1482 99.4751 60.0923 99.3843C59.9191 99.1178 59.9454 99.3378 59.8532 99.0571C59.8216 98.9621 59.8938 98.8159 59.8532 98.7278C59.7997 98.6181 59.664 98.5336 59.6147 98.4829C59.4488 98.3125 59.3152 98.0319 59.2154 97.8278C59.1053 97.6025 59.0494 97.3222 58.973 97.089C58.9194 96.9262 58.7293 96.7525 58.6538 96.5978C58.6294 96.549 58.6821 96.4786 58.6538 96.4332C58.5385 96.2559 58.4238 96.0658 58.2558 95.9427C58.1672 95.8778 58.0305 95.9252 57.9398 95.8632C57.8604 95.809 57.8478 95.687 57.7803 95.6176C56.8849 94.698 57.6765 95.5531 56.9876 95.0483C56.7921 94.905 56.4012 94.5337 56.2724 94.3137C56.2294 94.2397 56.2553 94.1233 56.1912 94.0674C55.9396 93.8459 55.6223 93.7182 55.3204 93.5812C55.0183 93.4441 54.7814 93.599 54.5304 93.3412C54.3169 93.1218 54.0529 92.7144 53.7363 92.6072C52.9913 92.3551 52.1339 92.1342 51.367 91.9696C50.6303 91.8115 49.827 91.8922 49.0797 91.7429C48.9165 91.7103 48.768 91.6187 48.6055 91.5824C48.0146 91.4507 47.393 91.5557 46.7925 91.5162C45.6429 91.4407 46.4342 91.4371 46.0825 91.4402C45.9239 91.4141 45.7665 91.3789 45.6067 91.3618C44.9729 91.2939 45.5955 91.3383 45.2923 91.4469C44.9622 91.5651 44.5191 91.3385 44.189 91.4567C44.1639 91.4655 44.2149 91.5301 44.1896 91.539C44.0031 91.6057 43.7431 91.4707 43.5592 91.5449C43.4163 91.6023 43.3037 91.7226 43.1672 91.7954C43.1437 91.8078 43.1145 91.7958 43.0886 91.7961C43.01 91.8242 42.9215 91.8318 42.8527 91.8805C42.8309 91.896 42.8722 91.9433 42.8534 91.9628C42.7983 92.0216 42.6872 91.9275 42.6171 91.9646C42.5001 92.027 42.4125 92.1372 42.3038 92.2143C42.2552 92.2488 42.2787 92.3517 42.2268 92.3797C42.1798 92.4046 42.116 92.3561 42.0693 92.3814C41.9231 92.4594 41.4831 92.9214 41.2865 93.047C40.8133 93.3493 41.2525 93.004 40.8932 93.1328C40.5912 93.2409 40.1457 93.525 39.8735 93.7181C39.7567 93.8009 38.5867 93.768 38.3769 93.8138C37.96 93.9047 37.4862 94.09 37.0385 93.9903C36.876 93.9541 36.7288 93.8547 36.5644 93.8298C36.3466 93.7968 35.8636 93.921 35.6188 93.8383C35.358 93.75 35.0447 93.7401 34.7506 93.6813C34.3898 93.6092 34.8065 93.5891 34.4334 93.4371C34.3596 93.4072 34.2733 93.4186 34.197 93.4388C33.9789 93.4979 34.205 93.5139 34.1199 93.6042C33.9798 93.753 33.2335 94.0771 33.0214 94.1903C32.7866 94.3156 32.5599 94.2557 32.3136 94.3612C32.1963 94.4114 32.1028 94.612 32.0009 94.6933C31.9075 94.7678 31.7782 94.7833 31.6871 94.8608C31.561 94.968 31.2575 95.3895 31.0614 95.4426C30.9852 95.4633 30.8995 95.418 30.825 95.4443C30.7699 95.4642 30.7999 95.5817 30.748 95.6096C30.7156 95.6268 30.3881 95.8429 30.3559 95.8601C30.3089 95.8851 30.248 95.8437 30.1983 95.8618C29.9717 95.943 29.6109 96.1405 29.4136 96.2805C29.0849 96.5136 29.3998 96.4612 29.2587 96.6111C29.026 96.8584 29.1551 96.4889 28.9455 96.8609C28.5917 97.489 28.8936 98.1787 27.9317 98.1872C27.7732 98.1338 27.6229 98.0254 27.4563 98.0269C27.3818 98.0276 27.3615 98.1494 27.3001 98.193C27.2099 98.257 26.8263 98.3504 26.7498 98.3625C26.479 98.4054 26.068 98.2764 25.8041 98.371C25.7145 98.4031 25.66 98.5098 25.5691 98.5377C25.4179 98.5843 25.2366 98.4671 25.0963 98.542C25.0728 98.5544 25.1206 98.6119 25.097 98.6243C24.9568 98.699 22.6819 99.1931 22.421 99.0597C22.2918 98.9936 22.1786 98.9503 22.0256 98.8986C21.7112 98.7921 18.8077 98.9617 18.7167 99.0102C18.4078 99.175 18.1652 99.5112 17.8552 99.6765C17.7382 99.739 17.7258 99.9247 17.6214 100.008C17.5801 100.041 17.5147 99.9955 17.4639 100.01C17.2566 100.066 17.1598 100.237 16.9937 100.343C16.8174 100.456 16.6274 100.415 16.4434 100.513C16.3591 100.558 16.296 100.642 16.2083 100.679C16.0445 100.75 15.4576 100.791 15.3429 100.852C15.1901 100.933 15.0507 101.146 14.8727 101.185C14.7957 101.202 14.7092 101.156 14.6363 101.187C14.5091 101.322 14.4907 101.377 14.3231 101.437C14.1759 101.489 14.1777 101.393 14.0086 101.522C13.8725 101.625 13.7626 101.766 13.6172 101.855C13.5386 101.902 12.2029 102.187 12.1226 102.197C11.8051 102.237 10.2358 102.298 9.99501 102.216C9.79198 102.147 8.86463 101.627 8.72817 101.486C8.70952 101.467 8.74604 101.423 8.72748 101.404C8.63804 101.312 8.30367 101.251 8.17385 101.162C8.01348 101.052 7.88163 100.78 7.77582 100.671C7.65663 100.549 7.69879 100.919 7.53947 100.673C7.49487 100.605 7.56298 100.504 7.53947 100.426C7.53055 100.4 7.47543 100.45 7.46083 100.427C7.38218 100.305 7.26583 99.9931 7.21978 99.8527C7.09937 99.4549 6.96842 99.2961 7.13139 98.9482C7.28617 98.6177 7.63524 98.1857 7.83194 97.8717C7.95746 97.6713 7.89758 97.3865 8.0629 97.211C8.08155 97.1914 8.12294 97.2299 8.14159 97.2103C8.20645 97.1415 8.08726 96.8806 8.14159 96.7986C8.18213 96.7337 8.26523 96.7023 8.29782 96.6326C8.40404 96.406 8.28729 95.3563 8.28486 95.0684C8.28486 94.6129 8.36427 92.3859 8.18192 92.1054C8.11706 92.0051 7.98556 92.069 7.94413 91.9429C7.82235 91.5716 8.13632 91.832 7.78127 91.2857C7.74802 91.2349 7.66479 91.2477 7.62295 91.2048C7.52931 91.1086 7.65214 90.926 7.62295 90.7931C7.56944 90.5758 7.3799 90.3734 7.30247 90.1374C7.23679 89.9374 7.2911 89.7005 7.21829 89.4795C7.18099 89.3651 6.93858 88.7023 6.89642 88.659C6.85912 88.6205 6.76621 88.7072 6.7388 88.6607C6.6064 88.4346 6.30865 87.6938 6.25595 87.43C6.23973 87.3495 6.29 87.2564 6.25595 87.183C6.22189 87.1139 6.13085 87.0889 6.09704 87.0198C6.07353 86.9709 6.1092 86.9082 6.09704 86.8551C5.96788 86.3342 5.8193 85.8146 5.6903 85.2944C5.61408 84.9874 5.42456 84.5537 5.28762 84.2277C4.43708 83.8009 4.99626 84.2294 4.72237 83.7383C4.65588 83.6198 4.53607 83.5368 4.48329 83.4111C4.45167 83.3358 4.50113 83.2438 4.48329 83.1641C4.47437 83.1265 4.41597 83.1192 4.40381 83.0825C4.28308 82.7144 4.38842 81.2075 4.38436 80.6951C4.38436 80.5352 4.42814 80.2655 4.37625 80.1188C4.30895 79.9128 4.19015 79.6867 4.13445 79.4623C4.09229 79.2931 4.12475 78.9572 4.05032 78.8044C3.9244 78.5468 3.86594 78.7508 3.81129 78.4772C3.78697 78.356 3.84859 78.1086 3.81129 77.9832C3.71464 77.6887 3.5042 77.3197 3.40925 76.9988C3.39871 76.9642 3.34037 76.3566 3.32512 76.3409C3.30647 76.3217 3.26103 76.3643 3.24644 76.3416C3.16698 76.2194 3.1498 76.063 3.0855 75.9314C3.03037 75.7398 2.9466 75.5547 2.92041 75.3565C2.90987 75.2796 3.0538 75.2643 3.07674 75.1905C3.11404 75.0709 3.09703 74.8953 3.15216 74.7782C3.34011 74.3769 3.56011 73.9695 3.69381 73.5384C3.77408 73.2793 3.72299 72.7085 3.60631 72.4689C3.59415 72.4444 3.55357 72.4694 3.52763 72.4696C3.44736 72.3056 3.34433 72.1519 3.28717 71.9777C3.2296 71.8011 3.39794 71.331 3.12356 71.2382C3.07329 71.2212 3.01318 71.2637 2.96599 71.2399C2.9295 71.2214 2.95787 70.7226 2.95787 70.6636C2.94976 69.9422 2.94332 69.2392 2.86167 68.5239C2.84545 68.3806 2.91193 68.0864 2.85355 67.9476C2.81788 67.856 2.72796 67.7943 2.6939 67.702C2.58688 67.4112 2.64036 67.1617 2.5296 66.8802C2.46393 66.7138 2.35978 66.6136 2.28988 66.4706C2.20451 66.2959 2.23147 65.5615 2.28093 65.4004C2.31336 65.2965 2.39812 65.1915 2.43582 65.0697C2.46015 64.9914 2.4188 64.9036 2.43582 64.8227C2.47393 64.6128 2.56912 64.4602 2.66228 64.271L2.66728 64.2708ZM86.1739 122.617C86.3002 122.958 86.0557 123.854 86.1869 124.188C86.2655 124.389 86.4704 124.481 86.5808 124.651C86.6181 124.708 86.6719 124.758 86.6936 124.824C86.7058 124.861 86.6734 124.908 86.6936 124.941C86.7528 125.031 86.8522 125.086 86.9185 125.171C86.9801 125.251 86.9104 125.975 87.0937 126.16C87.0783 126.469 87.271 126.464 87.3772 126.681C87.4291 126.788 87.3772 126.969 87.4364 127.088C87.5028 127.225 87.633 127.304 87.7177 127.435C87.7494 127.483 87.6902 127.56 87.7177 127.609C87.7875 127.729 87.9355 127.826 87.9992 127.956C88.0163 127.991 87.9733 128.046 87.9992 128.073C88.0904 128.166 88.1096 128.084 88.1673 128.188C88.3273 128.474 88.5058 128.766 88.7312 128.998C88.7441 129.011 88.7733 128.984 88.7871 128.997C88.8 129.011 88.7741 129.042 88.7876 129.055C88.8435 129.113 89.1566 129.288 89.2357 129.342C89.2884 129.378 89.4011 129.311 89.4586 129.341C89.5057 129.365 89.5471 129.407 89.571 129.456C89.5799 129.473 89.5531 129.51 89.5715 129.514C89.7234 129.553 89.9239 129.46 90.073 129.51C90.361 129.608 90.1733 129.859 90.7444 129.854C90.9192 129.894 91.188 129.939 91.3595 129.848C91.6134 129.712 91.1232 129.874 91.5256 129.73C91.5783 129.711 91.6401 129.747 91.6928 129.728C92.0327 129.606 92.0604 128.943 92.1857 128.676C92.2997 128.432 92.1858 128.738 92.2968 128.616C92.3818 128.526 92.4317 128.356 92.5168 128.265C92.546 128.234 92.5987 128.237 92.6278 128.206C92.6854 128.145 92.6952 127.959 92.7369 127.914C92.8298 127.815 92.9249 127.804 93.0135 127.679C93.063 127.609 93.0647 127.507 93.1231 127.445C93.1361 127.431 93.1604 127.445 93.179 127.444C93.2155 127.405 93.2585 127.371 93.2896 127.327C93.3431 127.251 93.4723 127.055 93.5096 126.976C93.5339 126.923 93.491 126.856 93.5096 126.801C93.5518 126.666 93.862 126.148 93.9493 126.04C94.2666 125.647 94.8267 125.491 94.9438 124.984C94.977 124.839 94.9212 124.745 94.8855 124.635C94.7803 124.314 94.9776 123.736 94.8198 123.413C94.8011 123.374 94.7375 123.386 94.7078 123.356C94.6786 123.325 94.6883 123.259 94.651 123.24C94.6064 123.188 94.534 123.267 94.4839 123.241C94.3943 123.196 94.3487 123.056 94.2591 123.01C94.1901 122.975 94.0903 123.01 94.0358 122.954C93.8454 122.759 93.7945 122.293 93.7495 122.025C93.449 122.319 93.0217 122.032 92.69 122.151C92.4396 122.241 92.1298 122.317 91.8561 122.391C91.7791 122.412 91.5716 122.341 91.5218 122.394C91.4634 122.456 91.5024 122.459 91.3556 122.512C91.066 122.616 90.6381 122.46 90.3521 122.463C90.0405 122.465 89.7135 122.504 89.4049 122.471C89.0426 122.432 89.3546 122.446 89.181 122.357C89.0976 122.314 88.9941 122.374 88.9024 122.359C88.7219 122.329 88.4641 122.25 88.288 122.19C88.1727 122.151 88.0699 122.048 87.9523 122.018C87.6561 121.944 87.2984 122.111 87.005 122.027C86.8656 121.986 86.7815 121.893 86.6693 121.855C86.5126 121.802 86.1856 121.999 86.1144 122.151C86.0642 122.259 86.155 122.539 86.1736 122.616L86.1739 122.617ZM144.365 137.994C144.457 138.492 144.637 138.905 144.933 139.269C144.959 139.302 145.015 139.296 145.044 139.327C145.119 139.404 144.927 139.383 145.101 139.443C145.244 139.491 145.401 139.465 145.547 139.497C145.696 139.534 145.845 139.572 145.994 139.609C146.013 139.629 146.025 139.659 146.05 139.667C146.295 139.75 146.9 139.501 147.109 139.716C147.151 139.759 147.117 139.863 147.166 139.89C147.199 139.907 147.242 139.877 147.278 139.889C147.406 139.932 147.602 140.222 147.671 140.293C147.698 140.32 147.756 140.265 147.782 140.292C147.842 140.353 147.843 140.457 147.896 140.524C148.037 140.705 148.357 140.903 148.568 140.984C148.822 141.081 149.045 140.986 149.293 141.036C149.518 141.08 149.319 141.078 149.461 141.151C149.615 141.229 149.912 141.113 150.074 141.145C150.218 141.174 150.417 141.256 150.576 141.199C150.679 141.162 150.766 141.03 150.853 140.964C151.021 140.836 151.243 140.785 151.408 140.668C151.423 140.657 151.399 140.627 151.407 140.61C151.459 140.499 151.829 140.087 151.904 140.023C152.122 139.837 151.904 140.141 152.181 139.846C152.228 139.796 152.239 139.715 152.291 139.67C152.43 139.552 152.653 139.52 152.79 139.375C152.882 139.219 152.982 139.067 153.066 138.906C153.128 138.786 153.021 138.573 153.066 138.44C153.074 138.414 153.109 138.406 153.121 138.382C153.172 138.272 153.075 138.088 153.121 137.974C153.298 137.498 153.179 138.083 153.285 137.623C153.312 137.507 153.229 137.624 153.285 137.449C153.309 137.37 153.404 137.339 153.451 137.273C153.623 137.028 153.849 137.014 153.948 136.803C153.969 136.758 153.936 136.676 153.948 136.628C154.024 136.3 154.078 135.936 154.219 135.636C154.351 135.355 154.664 135.217 154.77 134.874C154.786 134.822 154.752 134.752 154.77 134.699C154.819 134.543 154.873 134.362 154.933 134.232C155.015 134.058 154.901 133.768 154.984 133.591C155.082 133.382 155.262 133.331 155.426 133.122C155.449 133.092 155.409 133.04 155.426 133.005C155.439 132.976 155.841 132.793 155.869 132.769C155.973 132.68 156.187 132.375 156.367 132.298C156.401 132.284 156.443 132.31 156.479 132.298C156.528 132.28 156.54 132.201 156.589 132.18C156.913 132.042 157.206 131.899 157.477 131.707C157.526 131.672 157.639 131.668 157.699 131.646C157.791 131.613 158.375 131.313 158.476 131.232C158.71 131.046 158.863 130.786 158.86 130.472C158.86 130.416 158.836 130.287 158.86 130.239C158.985 129.971 158.839 130.486 158.97 130.063C158.985 130.014 158.947 129.935 158.97 129.889C159.007 129.81 159.102 129.807 159.136 129.771C159.164 129.741 159.113 129.631 159.136 129.596C159.227 129.452 159.378 129.371 159.468 129.244C159.55 129.127 159.426 129.157 159.468 129.069C159.482 129.038 159.761 128.802 159.8 128.775C159.831 128.753 159.885 128.802 159.911 128.774C159.976 128.705 160.048 128.632 160.076 128.54C160.088 128.503 160.055 128.456 160.076 128.424C160.099 128.387 160.155 128.392 160.188 128.364C160.373 128.207 160.425 128.036 160.518 127.837C160.568 127.729 160.708 127.663 160.794 127.602C160.892 127.533 160.92 127.385 161.015 127.309C161.062 127.272 161.14 127.293 161.181 127.249C161.223 127.206 161.201 127.124 161.236 127.074C161.236 126.91 161.361 127.058 161.402 127.015C161.428 126.987 161.381 126.931 161.402 126.898C161.494 126.752 161.54 126.641 161.622 126.489C161.667 126.404 161.746 126.341 161.787 126.254C161.832 126.159 161.795 125.958 161.84 125.846C161.753 125.648 161.957 125.655 162.005 125.554C162.069 125.417 161.996 124.488 161.995 124.331C161.932 124.196 161.868 124.061 161.804 123.925C161.767 123.887 161.721 123.855 161.692 123.81C161.671 123.778 161.708 123.728 161.692 123.693C161.636 123.579 161.051 123.309 161.02 123.292C160.921 123.237 160.6 123.041 160.46 123.006C160.406 122.992 160.345 123.027 160.293 123.007C160.191 122.968 160.115 122.874 160.013 122.835C159.843 122.77 159.4 122.829 159.233 122.9C159.173 122.926 158.962 123.189 158.957 123.194C158.934 123.379 158.166 123.592 158.125 123.725C157.779 124.841 158.441 123.15 157.85 124.251C157.823 124.302 157.867 124.37 157.85 124.426C157.835 124.485 157.695 124.826 157.631 124.894C157.513 125.019 157.403 125.099 157.3 125.246C157.268 125.29 157.232 125.332 157.189 125.363C157.174 125.374 157.139 125.345 157.133 125.364C157.116 125.419 157.159 125.486 157.133 125.538C157.06 125.696 156.853 125.808 156.747 125.949C156.603 126.141 156.442 126.342 156.306 126.535C156.272 126.582 156.336 126.66 156.306 126.71C156.143 126.999 155.21 127.793 155.146 128.001C155.028 128.381 154.855 128.753 154.653 129.112C154.593 129.219 154.516 129.316 154.433 129.405C154.42 129.418 154.385 129.388 154.377 129.405C154.361 129.44 154.404 129.494 154.377 129.522C154.351 129.549 154.298 129.505 154.265 129.522C154.249 129.531 154.279 129.567 154.266 129.581C154.175 129.677 153.985 129.701 153.877 129.759C153.646 129.882 153.936 129.754 153.823 129.876C153.727 129.977 153.561 130.046 153.491 130.17C153.449 130.244 153.433 130.335 153.381 130.403C153.355 130.438 153.302 130.434 153.27 130.463C153.171 130.553 153.094 130.667 152.994 130.756C152.966 130.781 152.909 130.73 152.883 130.757C152.854 130.788 152.86 130.846 152.828 130.874C152.746 130.947 152.641 130.988 152.551 131.051C152.443 131.128 152.388 131.272 152.275 131.345C151.685 131.722 152.051 131.407 151.776 131.698C151.667 131.719 151.549 131.712 151.447 131.76C151.409 131.777 151.421 131.846 151.392 131.877C151.344 131.928 151.158 131.973 151.114 131.996C151.029 132.041 151.071 132.1 151.004 132.171C150.979 132.198 150.417 132.543 150.339 132.585C150.306 132.603 150.197 132.559 150.172 132.586C150.159 132.6 150.187 132.634 150.172 132.645C150.112 132.687 149.83 132.745 149.783 132.764C149.759 132.775 149.746 132.804 149.728 132.823C149.673 132.843 149.618 132.867 149.561 132.883C149.348 132.941 149.171 132.857 148.949 132.947C148.622 133.078 148.8 133.05 148.506 133.3C148.411 133.381 148.483 133.173 148.395 133.359C148.313 133.534 148.476 133.766 148.344 133.942C148.272 134.038 148.077 134.284 148.013 134.352C148 134.366 147.965 134.335 147.957 134.353C147.933 134.405 147.989 134.478 147.957 134.527C147.864 134.676 147.726 134.772 147.626 134.879C147.626 134.88 147.517 135.112 147.516 135.113C147.469 135.163 147.403 135.189 147.35 135.231C147.252 135.31 147.299 135.344 147.185 135.466C147.172 135.479 147.147 135.466 147.129 135.466C147.11 135.486 147.088 135.502 147.073 135.525C146.968 135.693 146.831 135.841 146.687 135.994C146.593 136.094 146.473 136.225 146.355 136.288C146.205 136.368 145.988 136.385 145.856 136.525C145.809 136.575 145.792 136.651 145.746 136.701C145.649 136.803 145.467 136.681 145.468 136.82C145.403 137.138 144.164 137.565 144.139 137.646C144.117 137.717 144.139 137.858 144.139 137.937C144.14 137.996 144.086 138.127 144.139 138.112C144.219 138.09 144.287 138.033 144.361 137.994H144.365ZM166.914 121.9C166.939 121.573 167.058 120.585 166.957 120.328C166.926 120.248 166.871 120.178 166.844 120.096C166.819 120.02 166.852 119.815 166.844 119.747C166.795 119.369 166.77 119.438 166.56 119.051C166.531 118.998 166.55 118.913 166.503 118.877C166.436 118.825 166.328 118.833 166.279 118.762C166.119 118.532 166.316 118.517 166.165 118.414C166.064 118.345 165.983 118.251 165.884 118.184C165.874 118.177 165.667 118.133 165.661 118.127C165.593 118.057 165.634 117.998 165.548 117.954C165.457 117.907 165.376 117.971 165.269 117.898C165.082 117.77 164.982 117.532 164.764 117.437C164.713 117.414 164.647 117.464 164.597 117.438C164.559 117.419 164.573 117.348 164.54 117.323C164.493 117.286 164.421 117.299 164.372 117.266C164.357 117.255 164.385 117.221 164.372 117.208C164.234 117.067 164.066 117.009 163.923 116.862C163.736 116.602 163.615 116.506 163.748 116.223C163.887 115.927 164.189 115.785 164.355 115.519C164.366 115.503 164.355 115.48 164.355 115.461C164.41 115.402 164.473 115.351 164.52 115.285C164.551 115.241 164.61 114.896 164.628 114.876C164.641 114.863 164.671 114.89 164.684 114.876C164.74 114.817 164.759 114.698 164.794 114.642C164.851 114.55 164.977 114.51 165.015 114.407C165.035 114.353 164.989 114.285 165.015 114.233C165.06 114.209 165.153 114.174 165.181 114.115C165.189 114.097 165.181 114.076 165.181 114.057C165.18 114.037 165.172 114.016 165.18 113.998C165.256 113.837 165.472 113.739 165.567 113.587C165.621 113.501 165.588 113.281 165.62 113.179C165.8 112.597 165.733 111.936 165.827 111.315C165.856 111.128 165.899 111.066 165.935 110.906C165.979 110.717 166.021 109.578 165.979 109.45C165.863 109.097 165.304 108.719 165.024 108.527C164.99 108.504 164.938 108.505 164.913 108.47C164.504 107.91 164.831 108.252 164.573 107.775C164.514 107.666 164.401 107.596 164.347 107.486C164.184 107.152 163.982 106.866 163.782 106.559C163.733 106.483 163.75 106.291 163.724 106.21C163.674 106.058 163.509 105.942 163.442 105.805C163.415 105.751 163.404 105.689 163.385 105.631C163.329 105.535 163.265 105.442 163.216 105.342C163.122 105.15 163.082 104.954 162.988 104.761C163.156 104.361 162.748 104.384 162.649 104.182C162.614 104.111 162.631 104.018 162.592 103.95C162.57 103.913 162.505 103.927 162.48 103.893C162.332 103.69 162.29 103.409 162.084 103.197C162.018 103.129 161.902 103.111 161.86 103.025C161.843 102.99 161.886 102.936 161.86 102.908C161.805 102.852 161.702 102.893 161.636 102.852C161.564 102.808 161.476 102.687 161.411 102.621C161.633 102.818 161.502 103.19 161.638 103.434C161.763 103.66 161.917 103.834 162.033 104.071C162.265 104.545 162.388 105.16 162.714 105.579C162.74 105.612 162.796 105.605 162.826 105.636C162.875 105.687 162.86 105.864 162.884 105.926C163.059 106.371 163.407 106.768 163.619 107.201C163.628 107.218 163.656 107.458 163.677 107.491C163.707 107.537 163.76 107.561 163.79 107.607C163.8 107.623 163.79 107.646 163.79 107.665C163.81 107.723 163.81 107.792 163.848 107.839C163.925 107.934 164.09 107.952 164.128 108.069C164.14 108.106 164.117 108.149 164.128 108.186C164.155 108.267 165.257 109.856 165.313 109.922C165.392 110.015 165.486 110.098 165.593 110.152C165.634 110.173 166.185 110.429 166.208 110.438C166.261 110.458 166.321 110.425 166.376 110.436C166.498 110.461 166.595 110.561 166.711 110.608C167.062 110.751 167.416 110.885 167.773 111.006C167.863 111.036 167.967 111.018 168.052 111.062C168.402 111.24 168.082 111.084 168.278 111.351C168.303 111.385 168.36 111.378 168.39 111.408C168.531 111.553 168.364 111.68 168.56 111.814C169.222 112.267 168.287 111.545 169.063 112.042C169.131 112.085 169.166 112.171 169.232 112.216C169.4 112.331 169.428 112.2 169.567 112.271C169.614 112.295 169.633 112.359 169.679 112.386C170.048 112.602 170.464 112.628 170.852 112.725C171.007 112.764 171.145 112.857 171.299 112.896C171.661 112.987 172.048 112.764 172.356 112.654C172.48 112.609 172.685 112.712 172.802 112.649C172.818 112.641 172.788 112.605 172.802 112.591C172.827 112.563 172.88 112.608 172.913 112.59C172.936 112.578 172.943 112.541 172.968 112.532C173.021 112.513 173.086 112.557 173.135 112.53C173.31 112.437 173.543 112.177 173.745 112.175C173.753 112.912 173.786 112.06 173.638 112.701C173.615 112.799 173.69 113.064 173.638 113.166C173.63 113.184 173.595 113.153 173.582 113.167C173.517 113.236 173.458 113.314 173.417 113.401C173.363 113.517 173.399 113.773 173.254 113.927C173.152 114.035 173.049 114.128 172.978 114.278C172.954 114.331 172.997 114.398 172.978 114.453C172.933 114.599 172.826 114.779 172.759 114.921C172.726 114.991 172.748 115.153 172.706 115.212C172.659 115.278 172.589 115.324 172.54 115.388C172.514 115.423 172.52 115.481 172.486 115.505C172.447 115.532 172.357 115.48 172.318 115.507C172.182 115.604 172.084 115.756 171.987 115.859C171.95 115.898 171.767 115.932 171.709 115.978C171.599 116.066 171.53 116.253 171.433 116.33C171.386 116.367 171.316 116.357 171.267 116.39C171.046 116.536 170.833 116.797 170.602 116.919C170.569 116.937 170.517 116.893 170.491 116.92C170.452 116.962 170.517 117.043 170.491 117.095C170.483 117.112 170.443 117.078 170.435 117.095C170.411 117.148 170.467 117.221 170.435 117.27C170.407 117.316 170.348 117.338 170.324 117.387C170.266 117.512 170.314 118.157 170.277 118.319C170.255 118.411 170.15 118.569 170.112 118.67C170.049 118.84 170.065 119.035 170.005 119.195C169.981 119.26 169.919 119.305 169.895 119.371C169.875 119.425 169.927 119.497 169.895 119.545C169.729 119.811 169.596 120.163 169.401 120.423C169.343 120.499 169.301 120.588 169.235 120.657C169.206 120.688 169.149 120.681 169.124 120.716C169.09 120.766 169.096 120.836 169.07 120.892C169.034 120.968 168.628 121.556 168.574 121.595C168.528 121.627 168.446 121.555 168.407 121.596C168.394 121.61 168.408 121.635 168.408 121.654C168.371 121.694 168.34 121.741 168.297 121.772C168.176 121.858 167.152 122.334 166.962 122.075C166.927 122.026 166.924 121.959 166.905 121.901L166.914 121.9ZM173.662 51.6951C173.593 51.5106 173.347 51.6569 173.228 51.6166C173.211 51.6106 173.206 51.5843 173.189 51.5757C173.046 51.5029 172.636 51.6352 172.479 51.5817C172.444 51.5697 172.431 51.5213 172.4 51.5C172.385 51.4899 172.289 51.4713 172.281 51.4599C172.252 51.4147 172.263 51.1961 172.24 51.1721C172.221 51.1529 172.176 51.1954 172.161 51.1728C172.118 51.1055 172.152 51.0168 172.12 50.9673C172.076 50.8995 172.001 50.8869 172 50.8037C172.229 50.5005 172.207 50.1947 172.348 49.8954C172.369 49.851 172.408 49.8174 172.425 49.7713C172.435 49.7457 172.413 49.7136 172.425 49.689C172.425 49.6864 172.92 49.6847 173.094 49.683C173.409 49.6805 173.777 49.6628 174.041 49.7981C174.065 49.8101 174.101 49.7782 174.12 49.7974C174.141 49.8189 174.139 49.8579 174.159 49.8794C174.178 49.8987 174.213 49.8702 174.238 49.8787C174.381 49.9271 174.56 50.0513 174.635 50.2045C174.643 50.2179 174.66 50.8829 174.643 50.9454C174.619 51.0211 174.543 51.1049 174.527 51.1935C174.519 51.2339 174.54 51.2778 174.527 51.317C174.519 51.343 174.472 51.3052 174.448 51.3177C174.369 51.3599 174.251 51.3606 174.173 51.4024C174.094 51.4443 174.114 51.4853 174.056 51.527C173.932 51.6145 173.79 51.6053 173.663 51.6951H173.662ZM176.403 48.3175C176.363 48.2636 176.256 48.3522 176.208 48.3192C176.186 48.3042 176.175 48.2735 176.152 48.2615C176.11 48.2404 176.03 48.2572 175.984 48.2339C175.951 48.2167 175.934 48.1645 175.9 48.1473C175.842 48.1172 175.759 48.1184 175.705 48.0908C175.697 48.0866 175.713 48.0697 175.704 48.0616C175.612 47.9191 175.692 47.9958 175.647 47.8584C175.647 47.8493 175.626 47.8652 175.619 47.8587C175.581 47.8194 175.601 47.7087 175.59 47.6551C175.562 47.517 175.545 47.4146 175.59 47.2768C175.606 47.225 175.569 47.1519 175.59 47.1021C175.619 47.03 175.677 46.9718 175.7 46.8974C175.735 46.786 175.625 46.8882 175.754 46.7513C175.821 46.7155 175.795 46.7372 175.837 46.6924C175.926 46.6302 176.024 46.5358 176.137 46.5151C176.19 46.5053 176.281 46.5355 176.332 46.5134C176.582 46.4064 177.17 46.1881 177.445 46.3289C177.488 46.3511 177.501 46.3192 177.557 46.357C177.62 46.3995 177.599 46.4472 177.642 46.5018C177.656 46.5193 177.8 46.6344 177.81 46.6749C177.851 46.8379 177.76 46.6873 177.84 46.8493C177.852 46.8738 177.884 46.8826 177.896 46.907C177.921 46.9578 177.896 47.0832 177.896 47.1399C177.896 47.3471 177.866 47.5651 177.677 47.6658C177.661 47.6746 177.636 47.6553 177.621 47.6662C177.535 47.7276 177.459 47.8104 177.372 47.8722C177.297 47.925 177.259 47.8846 177.178 47.9613C177.114 48.0213 177.083 48.1162 177.012 48.1665C176.845 48.2853 176.633 48.3154 176.4 48.3175H176.403ZM67.0183 14.6195C67.358 15.2968 68.0244 15.3066 68.4765 15.7709C68.7602 16.0623 68.8647 16.6314 69.1546 16.9293C69.2138 16.9901 69.3192 16.9829 69.3785 17.0437C69.4158 17.0816 69.4028 19.9857 69.406 20.42C69.4141 20.9245 69.4141 21.429 69.4182 21.9335C69.4182 22.1007 69.4547 22.377 69.4263 22.5157C69.4068 22.6 69.2337 22.7502 69.3167 22.7495C69.3694 22.749 69.3752 22.6394 69.4273 22.6321C69.7955 22.5807 70.1758 22.6893 70.5418 22.6222C71.385 22.4677 70.5871 22.598 70.9856 22.3854C71.1179 22.3148 71.2875 22.4204 71.4314 22.3811C71.926 22.2473 72.4446 21.9973 72.9896 22.1345C73.2579 22.202 73.4356 22.4784 73.6622 22.5942C73.7116 22.6194 73.9758 22.6744 73.9974 22.7077C74.1125 22.8848 74.2452 23.4141 74.4497 23.5187C74.8943 23.746 75.7568 23.4757 76.2366 23.9686C76.3661 24.1016 76.2975 24.9545 76.469 25.1309C76.7175 25.3861 79.1504 25.2235 79.5903 25.2196C80.7385 24.9449 80.1823 25.1541 80.5842 24.5125C80.5988 24.4886 81.0637 24.0814 81.1367 23.9254C81.312 23.5513 80.9502 22.9025 81.1254 22.5283C81.1417 22.4934 81.2108 22.555 81.2368 22.5275C81.4036 22.3503 81.5617 22.1582 81.6779 21.9414C81.7525 21.8018 81.7297 21.6238 81.7855 21.4747C81.9758 20.9651 83.089 20.907 83.4516 20.7613C84.5508 20.3195 82.7901 20.6882 84.3402 20.4041C84.8947 20.3025 85.4682 20.5171 85.9033 20.7396C86.0631 20.8213 86.4162 20.681 86.572 20.7337C86.778 20.8034 86.9374 20.9785 87.132 21.078C87.4521 21.2417 87.9946 21.3227 88.1407 21.7676C88.2436 22.0811 88.0463 22.502 88.1487 22.8155C88.2087 22.999 88.39 23.1126 88.4869 23.2782C88.63 23.5227 88.7919 23.84 89.0498 23.9718C89.1832 24.0401 89.3495 23.9387 89.4954 23.9676C89.6802 24.0045 90.4452 24.1636 90.6128 24.307C91.4255 25.0023 90.689 24.5522 91.5109 25.114C91.6092 25.1812 91.7624 25.1415 91.8462 25.2275C91.9257 25.3092 91.7984 25.4731 91.8462 25.5768C91.8965 25.6805 92.0804 25.5226 92.1806 25.5734C92.6131 25.7946 92.975 26.2292 93.4131 26.3775C93.6684 26.4638 93.6999 26.2103 93.9712 26.489C94.055 26.575 94.002 26.7512 94.0855 26.8372C94.1978 26.9527 94.3079 26.777 94.4199 26.8347C94.5615 26.9071 94.6154 27.1087 94.757 27.181C94.8235 27.2152 94.9092 27.1551 94.9799 27.1793C95.5677 27.3783 95.2726 27.387 95.7638 27.6381C95.8522 27.6833 96.0038 27.6032 96.098 27.6347C96.2561 27.6882 96.3877 27.8102 96.5457 27.8636C96.8788 27.9764 97.4339 27.856 97.7717 27.8528C97.9781 27.8511 98.516 27.7333 98.6642 27.9613C98.7685 28.1218 98.5846 28.3706 98.6722 28.5435C98.7119 28.6249 99.1267 28.8949 99.2332 29.0042C99.2032 28.4963 98.3295 28.7139 98.1149 28.5486C97.988 28.451 97.9046 28.3 97.7778 28.2023C97.5958 28.0623 97.311 28.1955 97.1081 28.0918C97.0416 28.0577 97.1397 27.9281 97.1081 27.8589C97.0367 27.7123 96.8594 27.6489 96.7709 27.5127C96.7133 27.4236 96.6331 26.3147 96.5367 26.1175C96.5026 26.0484 96.3882 26.1192 96.3138 26.1192C96.1239 26.1209 96.1146 26.1333 95.8671 26.0067C95.3047 25.7191 95.0236 25.6021 94.5222 25.0872C94.1234 24.6775 94.1437 23.2925 93.8347 22.7646C93.7917 22.6906 93.67 22.711 93.6108 22.6502C93.3322 22.364 93.0496 21.8441 92.8212 21.4928C92.7823 21.4334 92.6323 20.0551 92.5851 19.8649C92.5186 19.597 91.9105 19.1377 91.907 18.7065C91.8673 18.4741 91.8915 18.2193 91.7879 18.0093C91.7539 17.9402 91.6318 18.0453 91.565 18.011C91.5318 17.9939 91.591 17.9217 91.565 17.8945C91.5391 17.8678 91.1546 17.6782 91.1175 17.6656C91.0169 17.6316 90.8837 17.7027 90.7831 17.669C90.6693 17.6305 90.3856 17.0298 90.3317 16.9744C90.3049 16.9472 90.257 16.9751 90.2201 16.9753C90.1829 16.9756 90.1353 17.0035 90.1088 16.9761C90.0496 16.9153 90.0545 16.8051 89.9955 16.7442C89.9428 16.6899 89.8256 16.8007 89.7726 16.746C89.6634 16.6338 89.7645 16.3934 89.6574 16.2812C89.5736 16.1952 89.4203 16.235 89.322 16.1678C89.3074 16.158 88.7304 15.4446 88.6468 15.3587C88.4349 15.1411 88.1058 14.9712 87.8619 14.7835C87.5269 15.0738 87.6676 14.4686 87.6362 14.4362C87.4971 14.2934 87.1521 14.0727 86.9638 13.9764C86.7924 13.8888 86.8749 13.7697 86.7381 13.6291C86.7008 13.6295 86.6635 13.6298 86.6266 13.63C86.5893 13.6303 86.5416 13.6582 86.5152 13.6308C86.4357 13.5492 86.5484 13.3917 86.5152 13.2816C86.4609 13.1169 86.2433 13.1178 86.179 13.0517C85.3909 12.2422 86.922 13.251 85.2799 12.1282C84.0634 11.2964 85.5746 12.4529 84.7216 12.0167C84.5801 11.9444 84.5299 11.734 84.3845 11.6704C84.2248 11.1996 83.6563 11.5401 83.3796 11.4465C82.9205 11.2911 82.6367 10.9072 82.1481 10.7588C81.1846 10.4661 81.9979 10.7876 81.0327 10.6522C80.7539 10.6132 80.5637 10.3617 80.2497 10.3099C79.9602 10.2621 79.6478 10.3655 79.3582 10.3175C79.0312 10.2635 78.1613 9.49628 77.9009 9.28251C77.6597 9.08438 77.4883 9.24627 77.2313 9.17203C76.5957 8.9884 75.9971 8.60081 75.3321 8.60671C75.1438 8.45345 74.971 8.27673 74.7672 8.14694C74.4143 7.92219 74.0217 8.11357 73.651 7.92398C73.4841 7.83867 73.3692 7.66395 73.2023 7.57865C73.1139 7.5335 72.9623 7.61354 72.868 7.58203C72.6073 7.4938 71.9742 7.24098 71.7498 7.12622C71.583 7.04091 71.4715 6.85819 71.3011 6.78089C70.8547 6.57831 70.2914 6.67039 69.8495 6.44447C69.4433 6.23675 69.0577 5.67336 68.6162 5.52395C68.2726 5.4077 67.9251 5.22858 67.6094 5.06715C67.5196 5.02124 67.1434 5.04739 67.0522 5.07221C66.5712 4.83349 66.9306 5.27144 66.8311 5.30704C66.7257 5.34482 66.6059 5.2862 66.4968 5.31042C66.419 5.32736 65.8884 5.60464 65.831 5.66563C65.7726 5.72755 65.7799 5.83759 65.7214 5.89947C65.4749 6.16132 65.0158 6.16576 64.7222 6.37408C64.6156 6.44964 64.4096 6.71128 64.3908 6.72632C64.1892 6.88704 63.8042 7.04761 63.6144 7.19893C63.4892 7.29884 63.4191 7.46829 63.283 7.55119C62.9958 7.72601 62.7377 7.54949 62.5037 7.67453C62.2897 7.78873 62.4664 7.87193 62.3951 8.0248C62.3416 8.13806 61.9985 8.46763 61.9541 8.61087C61.9314 8.68473 62.0133 8.79473 61.9541 8.84373C61.7989 8.97568 61.5769 8.98648 61.3988 9.08153C61.2058 9.18444 61.0374 9.33281 60.8444 9.43572C60.698 9.51382 58.4637 9.60973 58.1698 9.45945C58.0754 9.41117 58.0296 9.29367 57.945 9.22856C57.5896 8.95499 57.2126 9.07909 56.9372 8.65533C56.8748 8.55901 56.9624 8.41878 56.9372 8.30607C56.8959 8.13806 56.7644 8.00653 56.7106 7.84235C56.539 7.3195 56.8295 6.63275 56.6968 6.09596C56.5887 5.66003 56.5509 5.74873 56.3558 5.28395C56.295 5.1396 56.2526 4.71616 56.1273 4.58737C55.8252 4.27714 55.4348 4.07452 55.1176 3.78131C54.7858 3.47457 54.197 3.04271 53.9938 2.62692C53.7802 2.18992 54.9159 3.19924 53.6557 2.1642C53.0639 1.6781 50.0551 2.2245 49.9809 2.54608C49.9728 2.57776 50.1024 3.79149 50.1046 4.05863C50.1557 4.70279 50.5446 5.38472 51.1196 5.67871C51.2251 5.73267 51.3602 5.71936 51.4548 5.79217C51.6374 5.93264 51.6131 6.24771 51.7939 6.37131C52.1093 6.58701 52.3438 6.81488 52.5806 7.17937C52.5538 7.42561 52.7579 7.22207 52.8045 7.29383C52.9453 7.51047 53.0138 8.45443 53.1511 8.80439C53.3938 9.42281 53.9328 9.8998 54.4997 10.1896C54.741 10.313 54.668 10.7395 54.9513 10.8842C55.1718 10.997 55.5204 11.2491 55.7352 11.343C55.9244 11.4258 56.1991 11.4018 56.4046 11.4535C56.7155 11.5318 56.9831 11.7428 57.2991 11.7949C57.4734 11.8237 57.7868 11.7277 57.9678 11.7889C58.1648 11.8556 59.3839 12.3409 59.4212 12.3582C59.5909 12.437 59.703 12.6182 59.8699 12.7035C60.2416 12.8936 61.2002 12.5737 61.6529 12.6877C61.8802 12.7449 62.8605 12.8414 62.9921 12.9087C63.0667 12.9856 63.1419 13.0626 63.2168 13.1396C63.2172 13.1784 63.1917 13.2288 63.2168 13.256C63.3231 13.3651 63.4679 13.1126 63.5522 13.3695C63.5765 13.4429 63.5206 13.5332 63.5522 13.6023C63.6024 13.706 63.7804 13.5635 63.8864 13.5998C64.592 13.8386 65.4894 13.9556 66.121 14.2785C66.2672 14.3533 66.5389 14.1879 66.6782 14.2735C66.814 14.357 66.903 14.5043 67.0153 14.6198L67.0183 14.6195ZM105.866 10.1426C105.866 10.5385 105.976 11.3091 105.878 11.6245C105.842 11.7389 105.757 11.6761 105.722 11.7905C105.58 12.2476 105.509 12.8234 105.34 13.2759C105.154 13.7719 105.242 13.3105 105.028 13.6903C104.986 13.7651 104.996 13.8654 104.951 13.938C104.918 13.9893 104.772 13.8479 104.794 14.0217C104.692 14.2398 104.626 14.4823 104.484 14.6831C104.263 14.9955 103.94 14.9287 103.7 15.184C103.447 15.4523 103.015 16.0866 102.684 16.2633C102.637 16.2886 102.57 16.2342 102.527 16.265C102.478 16.2995 102.494 16.3917 102.449 16.4304C102.139 16.6938 101.704 16.6623 101.349 16.8518C100.767 17.1623 99.9633 17.7786 99.2266 17.5293C99.0463 17.4683 98.9213 17.2911 98.7512 17.2041C98.6389 17.1468 98.4675 17.1386 98.3558 17.043C98.2408 16.9446 98.1675 16.7924 98.0379 16.7165C97.8758 16.6216 97.6271 16.8724 97.4856 16.6391C98.3923 17.0063 97.6391 15.9986 97.9004 15.8592C97.9742 15.8198 98.1049 15.8963 98.1789 15.8567C98.2677 15.8094 98.5124 15.7763 98.5681 15.7368C98.6021 15.7124 98.594 15.6509 98.6224 15.6199C98.7611 15.4726 99.5507 15.4952 99.7359 15.4936C99.9331 15.4919 100.159 15.5295 100.349 15.4885C100.8 15.39 101.573 15.0984 101.96 14.8921C102.066 14.8355 102.164 14.6843 102.292 14.6562C102.347 14.6444 102.406 14.6694 102.46 14.6545C102.59 14.6194 102.995 14.1524 103.124 14.0665C103.573 13.7674 103.234 14.0366 103.568 13.9461C103.648 13.9246 103.611 13.8183 103.678 13.7705C103.968 13.5649 104.062 13.4215 104.287 13.1829C104.313 13.155 104.482 13.0924 104.509 13.0645C104.55 13.0207 104.53 12.9407 104.563 12.8894C104.837 12.4518 104.645 12.5642 104.724 12.1311C104.771 11.8753 104.927 11.6551 104.997 11.4301C105.02 11.3562 104.972 11.2711 104.997 11.1973C105.041 11.0545 105.255 10.982 105.329 10.9032C105.358 10.8723 105.355 10.8172 105.384 10.7863C105.597 10.5595 105.804 10.5034 105.868 10.1427L105.866 10.1426Z" stroke="#C80000" stroke-width="3.1" stroke-linecap="round" stroke-linejoin="round"/>
<path d="M9.76282 84H7.59917L13.8571 66.957H15.9875L22.2455 84H20.0818L14.9889 69.6533H14.8557L9.76282 84ZM10.5617 77.3426H19.2829V79.1734H10.5617V77.3426ZM32.6893 78.7739V71.2178H34.6532V84H32.6893V81.8363H32.5561C32.2565 82.4854 31.7905 83.0375 31.1581 83.4924C30.5256 83.9417 29.7267 84.1664 28.7614 84.1664C27.9625 84.1664 27.2524 83.9917 26.631 83.6422C26.0097 83.2871 25.5215 82.7545 25.1664 82.0444C24.8113 81.3287 24.6338 80.4272 24.6338 79.3398V71.2178H26.5977V79.2067C26.5977 80.1387 26.8585 80.8821 27.38 81.4369C27.907 81.9917 28.5783 82.2691 29.3938 82.2691C29.8821 82.2691 30.3786 82.1442 30.8834 81.8946C31.3938 81.6449 31.821 81.2621 32.165 80.7462C32.5145 80.2302 32.6893 79.5728 32.6893 78.7739ZM47.3043 74.0805L45.5401 74.5798C45.4292 74.2857 45.2655 74 45.0491 73.7226C44.8383 73.4397 44.5498 73.2067 44.1837 73.0236C43.8175 72.8405 43.3487 72.749 42.7773 72.749C41.9951 72.749 41.3432 72.9293 40.8217 73.2899C40.3057 73.645 40.0478 74.0971 40.0478 74.6463C40.0478 75.1346 40.2253 75.5201 40.5804 75.8031C40.9354 76.086 41.4902 76.3218 42.2447 76.5104L44.1421 76.9764C45.2849 77.2538 46.1365 77.6782 46.6969 78.2497C47.2572 78.8155 47.5374 79.5451 47.5374 80.4383C47.5374 81.1706 47.3265 81.8252 46.9049 82.4022C46.4888 82.9792 45.9063 83.4341 45.1573 83.767C44.4084 84.0999 43.5374 84.2663 42.5443 84.2663C41.2406 84.2663 40.1615 83.9834 39.3071 83.4175C38.4528 82.8516 37.9119 82.025 37.6844 80.9376L39.5485 80.4716C39.726 81.1595 40.0616 81.6755 40.5554 82.0194C41.0547 82.3634 41.7066 82.5354 42.511 82.5354C43.4264 82.5354 44.1532 82.3412 44.6913 81.9528C45.235 81.559 45.5068 81.0874 45.5068 80.5381C45.5068 80.0943 45.3515 79.7226 45.0408 79.423C44.7301 79.1179 44.253 78.8904 43.6095 78.7406L41.4791 78.2413C40.3085 77.964 39.4486 77.534 38.8994 76.9515C38.3557 76.3634 38.0838 75.6283 38.0838 74.7462C38.0838 74.025 38.2863 73.387 38.6913 72.8322C39.1019 72.2774 39.6594 71.8419 40.364 71.5257C41.0741 71.2095 41.8786 71.0513 42.7773 71.0513C44.0422 71.0513 45.0353 71.3287 45.7565 71.8835C46.4833 72.4383 46.9992 73.1706 47.3043 74.0805ZM56.0526 71.2178V72.8821H49.4285V71.2178H56.0526ZM51.3591 68.1554H53.3231V80.3384C53.3231 80.8932 53.4035 81.3093 53.5644 81.5867C53.7308 81.8585 53.9416 82.0416 54.1968 82.1359C54.4576 82.2247 54.7322 82.2691 55.0207 82.2691C55.2371 82.2691 55.4146 82.258 55.5533 82.2358C55.692 82.208 55.8029 82.1859 55.8862 82.1692L56.2856 83.9334C56.1525 83.9834 55.9666 84.0333 55.728 84.0832C55.4895 84.1387 55.1871 84.1664 54.821 84.1664C54.2662 84.1664 53.7225 84.0472 53.1899 83.8086C52.6629 83.57 52.2246 83.2067 51.8751 82.7184C51.5311 82.2302 51.3591 81.6144 51.3591 80.871V68.1554ZM59.0068 84V71.2178H60.9042V73.1484H61.0373C61.2703 72.516 61.692 72.0028 62.3022 71.6089C62.9125 71.215 63.6004 71.0181 64.366 71.0181C64.5103 71.0181 64.6906 71.0208 64.9069 71.0264C65.1233 71.0319 65.287 71.0403 65.3979 71.0513V73.0486C65.3313 73.0319 65.1788 73.007 64.9402 72.9737C64.7072 72.9348 64.4603 72.9154 64.1996 72.9154C63.5782 72.9154 63.0234 73.0458 62.5352 73.3065C62.0526 73.5617 61.6698 73.9168 61.3868 74.3717C61.1094 74.8211 60.9707 75.3343 60.9707 75.9113V84H59.0068ZM71.4874 84.2996C70.6774 84.2996 69.9423 84.147 69.2821 83.8419C68.6219 83.5312 68.0976 83.0846 67.7093 82.5021C67.3209 81.914 67.1268 81.2039 67.1268 80.3717C67.1268 79.6394 67.271 79.0458 67.5595 78.5909C67.848 78.1304 68.2336 77.7698 68.7162 77.509C69.1989 77.2483 69.7315 77.0541 70.314 76.9265C70.9021 76.7934 71.4929 76.688 72.0865 76.6103C72.8632 76.5104 73.4929 76.4355 73.9756 76.3856C74.4638 76.3301 74.8188 76.2386 75.0408 76.111C75.2682 75.9834 75.382 75.7615 75.382 75.4452V75.3787C75.382 74.5576 75.1573 73.9196 74.7079 73.4647C74.2641 73.0097 73.59 72.7823 72.6857 72.7823C71.7481 72.7823 71.013 72.9875 70.4804 73.3981C69.9478 73.8086 69.5734 74.2469 69.357 74.7129L67.4929 74.0472C67.8258 73.2705 68.2696 72.6658 68.8244 72.233C69.3847 71.7948 69.995 71.4896 70.6552 71.3176C71.3209 71.1401 71.9756 71.0513 72.6191 71.0513C73.0297 71.0513 73.5012 71.1013 74.0338 71.2011C74.572 71.2955 75.0907 71.4924 75.59 71.792C76.0948 72.0916 76.5137 72.5437 76.8466 73.1484C77.1795 73.7531 77.3459 74.5631 77.3459 75.5784V84H75.382V82.2691H75.2821C75.1489 82.5465 74.927 82.8433 74.6163 83.1595C74.3057 83.4757 73.8924 83.7448 73.3764 83.9667C72.8605 84.1886 72.2308 84.2996 71.4874 84.2996ZM71.787 82.5354C72.5636 82.5354 73.2183 82.3828 73.7509 82.0777C74.289 81.7725 74.694 81.3786 74.9659 80.896C75.2433 80.4133 75.382 79.9057 75.382 79.3731V77.5756C75.2987 77.6755 75.1157 77.767 74.8327 77.8502C74.5553 77.9279 74.2335 77.9972 73.8674 78.0583C73.5068 78.1137 73.1545 78.1637 72.8105 78.2081C72.4721 78.2469 72.1975 78.2802 71.9867 78.3079C71.4763 78.3745 70.9992 78.4827 70.5553 78.6325C70.1171 78.7767 69.762 78.9959 69.4901 79.2899C69.2239 79.5784 69.0907 79.9723 69.0907 80.4716C69.0907 81.154 69.3431 81.6699 69.848 82.0194C70.3584 82.3634 71.0047 82.5354 71.787 82.5354ZM82.8944 66.957V84H80.9305V66.957H82.8944ZM86.4915 84V71.2178H88.4554V84H86.4915ZM87.4901 69.0874C87.1073 69.0874 86.7772 68.957 86.4998 68.6963C86.228 68.4355 86.092 68.1221 86.092 67.7559C86.092 67.3898 86.228 67.0763 86.4998 66.8156C86.7772 66.5548 87.1073 66.4245 87.4901 66.4245C87.8729 66.4245 88.2002 66.5548 88.4721 66.8156C88.7495 67.0763 88.8882 67.3898 88.8882 67.7559C88.8882 68.1221 88.7495 68.4355 88.4721 68.6963C88.2002 68.957 87.8729 69.0874 87.4901 69.0874ZM95.8139 84.2996C95.004 84.2996 94.2689 84.147 93.6087 83.8419C92.9485 83.5312 92.4242 83.0846 92.0359 82.5021C91.6475 81.914 91.4533 81.2039 91.4533 80.3717C91.4533 79.6394 91.5976 79.0458 91.8861 78.5909C92.1746 78.1304 92.5601 77.7698 93.0428 77.509C93.5255 77.2483 94.058 77.0541 94.6406 76.9265C95.2286 76.7934 95.8195 76.688 96.4131 76.6103C97.1898 76.5104 97.8195 76.4355 98.3021 76.3856C98.7904 76.3301 99.1454 76.2386 99.3673 76.111C99.5948 75.9834 99.7085 75.7615 99.7085 75.4452V75.3787C99.7085 74.5576 99.4838 73.9196 99.0345 73.4647C98.5906 73.0097 97.9166 72.7823 97.0123 72.7823C96.0747 72.7823 95.3396 72.9875 94.807 73.3981C94.2744 73.8086 93.8999 74.2469 93.6836 74.7129L91.8195 74.0472C92.1524 73.2705 92.5962 72.6658 93.151 72.233C93.7113 71.7948 94.3216 71.4896 94.9818 71.3176C95.6475 71.1401 96.3021 71.0513 96.9457 71.0513C97.3562 71.0513 97.8278 71.1013 98.3604 71.2011C98.8985 71.2955 99.4173 71.4924 99.9166 71.792C100.421 72.0916 100.84 72.5437 101.173 73.1484C101.506 73.7531 101.672 74.5631 101.672 75.5784V84H99.7085V82.2691H99.6087C99.4755 82.5465 99.2536 82.8433 98.9429 83.1595C98.6322 83.4757 98.2189 83.7448 97.703 83.9667C97.187 84.1886 96.5573 84.2996 95.8139 84.2996ZM96.1135 82.5354C96.8902 82.5354 97.5449 82.3828 98.0775 82.0777C98.6156 81.7725 99.0206 81.3786 99.2924 80.896C99.5698 80.4133 99.7085 79.9057 99.7085 79.3731V77.5756C99.6253 77.6755 99.4422 77.767 99.1593 77.8502C98.8819 77.9279 98.5601 77.9972 98.194 78.0583C97.8334 78.1137 97.4811 78.1637 97.1371 78.2081C96.7987 78.2469 96.5241 78.2802 96.3132 78.3079C95.8028 78.3745 95.3257 78.4827 94.8819 78.6325C94.4436 78.7767 94.0886 78.9959 93.8167 79.2899C93.5504 79.5784 93.4173 79.9723 93.4173 80.4716C93.4173 81.154 93.6697 81.6699 94.1746 82.0194C94.685 82.3634 95.3313 82.5354 96.1135 82.5354Z" fill="#006879"/>
</svg>
