<svg width="127" height="211" viewBox="0 0 127 211" fill="none" xmlns="http://www.w3.org/2000/svg">
<path d="M16.0668 9.38859C16.7786 8.12428 16.1301 9.40612 16.5038 8.33669C16.6311 7.97218 16.9805 7.55458 17.0512 7.16736C17.0943 6.93189 16.9907 5.11747 17.0337 5.07171C17.2116 4.8826 18.4487 4.66721 18.8119 4.4733C19.0274 4.35828 19.3348 4.48651 19.5911 4.34974C19.784 4.24677 19.9525 4.09835 20.1454 3.99539C20.3173 3.9036 20.6524 3.95862 20.8131 3.87286C20.9066 3.82288 20.9471 3.69965 21.034 3.63796C21.2256 3.50193 21.6065 3.48612 21.8121 3.39799C21.9361 3.34488 22.0206 3.21518 22.1445 3.16208C22.282 3.10321 22.4448 3.1898 22.5903 3.15787C22.9643 3.07612 23.6113 3.02545 23.9256 2.91278C24.1614 2.82833 24.3502 2.62276 24.5914 2.55742C24.7746 2.50778 25.226 2.54894 25.3705 2.43385C25.4958 2.33391 25.5767 2.18148 25.7019 2.08154C25.8231 1.98483 26.7696 2.0718 27.0392 2.06934C26.7215 2.18921 27.1479 2.77617 26.9908 2.94318C26.9257 3.01238 26.8345 3.05066 26.7694 3.11987C26.703 3.19043 26.7637 3.32615 26.7161 3.41143C26.6895 3.45878 26.6344 3.48291 26.6057 3.52887C26.4678 3.74902 26.3779 5.3015 26.2894 5.68578C26.214 6.01302 26.0416 6.20215 25.9619 6.50381C25.8886 6.78096 25.9397 7.11323 25.8577 7.37801C25.852 7.39648 25.8101 7.36108 25.802 7.37853C25.753 7.48311 25.7856 7.61314 25.8052 7.72782C25.8196 7.81328 25.8896 7.87835 25.9186 7.95964C26.202 8.75192 26.3404 9.11967 26.8815 9.8138C26.9077 9.84742 26.9009 9.91064 26.9382 9.92971C27.0874 10.0059 27.3819 9.90597 27.5511 9.92376C27.6441 9.94231 27.7372 9.96087 27.8302 9.97942C27.8489 9.99865 27.8608 10.0307 27.8864 10.0371C28.0703 10.0834 28.5797 10.0048 28.7208 9.85485C28.879 9.68656 28.7959 9.69425 28.885 9.50403C28.9989 9.26071 28.8818 9.5663 28.996 9.44484C29.0925 9.34221 29.1077 9.17237 29.1592 8.97759C29.3554 8.23582 29.7517 7.5771 30.0332 6.8738C30.0453 6.84365 30.2597 6.35194 30.1398 6.29065C30.1064 6.27362 30.0645 6.30073 30.0284 6.2915C29.9503 6.27185 29.4456 6.01544 29.4125 5.94782C29.3041 5.72628 29.351 5.42142 29.239 5.19261C29.1621 5.0353 28.9034 4.84279 29.0112 4.61251C29.0295 4.57354 29.0931 4.58423 29.1222 4.55331C29.3335 4.32865 29.9134 4.0828 30.2322 4.01922C30.3432 3.99711 30.4539 3.97204 30.5661 3.95798C30.6214 3.9512 30.6836 3.98296 30.7333 3.95627C30.7702 3.93654 30.7589 3.87028 30.788 3.83933C30.8292 3.79554 30.8986 3.79774 30.9547 3.77961C31.101 3.73226 31.25 3.69403 31.3995 3.65913C31.5097 3.63338 31.6246 3.62991 31.7333 3.59789C31.8259 3.55825 31.9184 3.51858 32.0109 3.4789C32.0108 3.4595 31.9939 3.42952 32.0104 3.42071C32.1526 3.34481 32.7847 3.0628 33.0115 3.1787C33.0716 3.20945 33.0667 3.31684 33.1244 3.35231C33.1724 3.38187 33.2429 3.32234 33.2916 3.35063C33.3159 3.36486 33.7367 3.80947 33.7412 3.81226C33.7892 3.84174 33.8635 3.77617 33.9084 3.81056C33.9557 3.84698 33.9237 3.94167 33.9655 3.98468C34.0075 4.02771 34.0804 4.01444 34.1332 4.04137C34.2709 4.00783 34.2741 4.17132 34.3575 4.21395C34.54 4.30721 34.7906 4.36584 34.9729 4.49941C35.3279 4.75947 35.6377 4.98401 36.0375 5.18829C36.1063 5.22345 36.192 5.20931 36.2608 5.24447C36.6218 5.42891 36.4269 5.53033 36.5991 5.70711C36.7056 5.81648 36.7439 5.72896 36.8782 5.76276C36.9292 5.77564 36.9433 5.85407 36.9906 5.87818C37.1675 5.96861 37.6868 6.02422 37.7721 6.04569C38.3665 6.19516 38.9446 6.36239 39.5586 6.43688C39.8772 6.47551 40.2414 6.43095 40.5616 6.42773C40.5988 6.42739 40.647 6.45441 40.6731 6.42688C40.6861 6.41307 40.655 6.37496 40.6726 6.36869C41 6.25135 42.9797 6.44968 43.0696 6.46325C43.1468 6.47494 43.5563 6.61667 43.6287 6.69099C43.6765 6.74004 43.6856 6.82632 43.7416 6.86463C43.9821 7.02891 45.5923 7.18174 45.6948 7.19608C45.7569 7.2048 46.3247 7.35009 46.5316 7.30488C46.7298 7.2616 47.4793 6.63725 47.5278 6.48075C47.5392 6.44382 47.5154 6.40121 47.527 6.36432C47.575 6.20937 47.8954 5.98001 48.0246 5.89403C48.309 5.70467 49.575 5.36163 49.7461 5.17971C50.1164 5.36131 50.5088 5.56001 50.8102 5.86937C50.8951 5.95661 51.0788 6.35196 51.1493 6.44844C51.229 6.55748 51.3618 6.61991 51.4304 6.73695C51.4843 6.82904 51.8133 7.40818 51.882 7.43142C51.9174 7.44336 51.9635 7.40738 51.9935 7.43059C52.1049 7.51635 52.1771 7.79625 52.3312 7.83502C52.6894 7.9251 53.1329 7.91658 53.5023 7.94074C53.7431 7.9565 54.7038 7.75183 54.7859 8.16189C54.8286 8.37518 54.7715 8.65406 54.8474 8.85995C54.8682 8.91653 55.1228 9.39837 55.1871 9.49721C55.1976 9.5133 55.239 9.47774 55.2428 9.49672C55.4009 10.2867 55.0683 9.28496 55.3034 10.0783C55.3503 10.2366 55.9186 11.3491 55.927 11.3534C56.0271 11.4046 56.5449 11.7402 56.5991 11.7548C56.8535 11.8231 57.1207 11.8214 57.3802 11.8641C57.7106 11.9185 58.2848 11.7453 58.5503 11.8534C58.9125 12.0009 59.0049 12.4932 59.2825 12.7782C59.5275 13.0297 59.716 13.0592 60.0103 13.1791C60.206 13.2589 60.2923 13.5084 60.4599 13.6407C60.729 13.8531 61.1784 13.9743 61.4121 14.2142C61.4253 14.2278 61.3959 14.2639 61.4126 14.2724C61.446 14.2894 61.4948 14.2474 61.524 14.2715C61.7033 14.4187 61.7386 14.6681 61.8632 14.8506C61.9362 15.0692 62.1962 15.0872 62.3124 15.254C62.3575 15.3187 62.3289 15.4189 62.37 15.4863C62.47 15.6502 62.6604 15.7317 62.7635 15.8903C62.8295 15.9918 62.8165 16.1338 62.8779 16.2385C62.935 16.3362 63.1314 16.2516 63.2684 16.2931C63.3576 16.3202 63.4071 16.4283 63.4927 16.4657C63.5441 16.4882 63.6098 16.4387 63.6599 16.4641C63.8885 16.5809 63.9129 16.8606 64.0548 17.0426C64.2839 17.3364 64.4259 17.219 64.6707 17.3863C64.6863 17.3969 64.6579 17.431 64.6712 17.4445C64.756 17.5316 64.8492 17.6118 64.9517 17.6748C65.3463 17.9173 65.6578 18.0761 66.1268 18.2463C66.3373 18.3227 66.5752 18.2039 66.7954 18.2403C66.8616 18.2512 66.8972 18.3459 66.9635 18.3552C67.3133 18.4042 67.6756 18.2764 68.0222 18.3455C68.0738 18.3558 68.0907 18.4309 68.1347 18.461C68.1862 18.4961 68.6307 18.5008 68.6924 18.5141C69.2654 18.6369 69.7812 18.6934 70.3665 18.7899C70.6837 18.8421 70.9937 18.9834 71.3157 19.0141C71.4082 19.0229 71.5034 18.9913 71.5943 19.0115C71.6755 19.0297 71.7401 19.0961 71.8181 19.1259C72.1874 19.2667 72.6636 19.3294 73.0464 19.4058C74.4397 19.6837 71.7569 19.0491 74.2738 19.5692C74.5391 19.624 74.7922 19.7319 75.0558 19.7949C75.1838 19.8255 75.3192 19.8154 75.4464 19.8496C76.5066 20.1346 75.3265 19.9197 76.2846 20.133C76.4897 20.1787 77.1682 20.2646 77.4015 20.4139C77.4911 20.4712 77.5403 20.5817 77.6263 20.6447C77.7572 20.7406 77.9297 20.6838 78.0731 20.7571C78.3634 20.9054 78.5285 21.1347 78.8018 21.2744C78.8415 21.2946 79.6796 21.5649 79.6963 21.6155C79.8777 22.168 79.4045 21.3314 79.8664 21.9633C79.8776 21.9787 79.8502 22.013 79.8669 22.0214C79.9003 22.0385 79.945 22.0034 79.9783 22.0206C80.1137 22.0898 80.634 22.4705 80.7076 22.5961C80.7269 22.6292 80.6876 22.6805 80.7084 22.7125C80.7674 22.8033 80.8583 22.8664 80.9332 22.9433C80.9628 22.9737 81.0294 22.9604 81.0451 23.0005C81.1233 23.1996 81.0203 23.5219 81.1067 23.6985C81.1548 23.797 81.312 24.0247 81.3887 24.1035C81.4571 24.1738 81.5134 24.1296 81.5568 24.2184C81.6788 24.4679 81.5932 24.7834 81.7865 25.0313C81.8529 25.1164 81.9773 25.1583 82.0114 25.2621C82.0457 25.3666 81.98 25.507 82.0146 25.6114C82.0551 25.7346 82.1374 25.8387 82.1847 25.9592C82.2137 26.0332 82.2075 26.1203 82.2424 26.1915C82.2782 26.2648 82.3854 26.2868 82.411 26.3646C82.435 26.4381 82.3791 26.5284 82.4126 26.5975C82.421 26.6147 82.4551 26.5833 82.4683 26.597C82.508 26.6377 82.6161 27.0238 82.6394 27.0611C82.7263 27.2012 82.8487 27.3174 82.9214 27.4661C82.9503 27.5252 82.9263 27.8172 82.9805 27.8731C82.9937 27.8867 83.023 27.8589 83.0362 27.8726C83.0955 27.9334 83.0903 28.0436 83.1496 28.1044C83.1628 28.118 83.1968 28.0866 83.2053 28.1039C83.2619 28.2198 83.1781 28.1914 83.2069 28.2785C83.2938 28.5431 83.3517 28.8653 83.3814 29.1502C83.3935 29.2659 83.3563 29.3868 83.3846 29.4995C83.5137 30.0195 83.4928 29.1135 83.4999 29.9641C83.6875 30.5936 83.857 31.4047 83.3493 31.9445C83.291 32.0064 83.1856 32.001 83.1274 32.0629C83.0335 32.1627 83.0013 32.3144 82.9074 32.4142C82.8943 32.4281 82.8647 32.4009 82.8517 32.4147C82.6439 32.6357 82.4604 32.9482 82.2451 33.1771C82.1911 33.2345 82.0403 33.3867 81.9684 33.4125C81.9508 33.4184 81.9208 33.3956 81.9127 33.413C81.8964 33.4479 81.9223 33.4917 81.9135 33.5294C81.8782 33.6825 81.7405 33.789 81.6941 33.939C81.6785 33.9893 81.7022 34.0609 81.6957 34.1136C81.6389 34.5566 81.6725 34.4417 81.4234 34.8729C81.2298 35.2081 81.2782 35.2155 80.9815 35.3427C80.9643 35.3503 80.9388 35.3294 80.9258 35.3432C80.8738 35.3986 80.9506 35.5022 80.9274 35.576C80.8371 35.8678 80.4764 36.234 80.5452 36.511C80.7562 37.3611 81.3161 37 81.4998 37.3755C81.5225 37.422 81.4822 37.5016 81.5014 37.5502C81.5465 37.6652 81.8978 38.5342 81.9559 38.5939C82.0012 38.6404 82.5243 39.0429 82.627 38.8789C82.8235 38.5651 82.8314 38.1575 83.0083 37.8275C83.173 37.5202 83.6189 37.2914 83.7254 36.9477C83.7769 36.7816 83.6662 36.05 83.7723 35.8994C83.8225 35.8282 84.0215 35.7118 84.1047 35.6635C84.5658 35.3952 84.9027 35.1741 85.4386 35.2438C85.5906 35.2635 85.7333 35.3363 85.8853 35.3561C86.2057 35.3978 86.8055 35.3046 87.1122 35.4613C87.2799 35.547 87.3535 35.7139 87.5052 35.8071C87.9206 36.0623 87.5669 35.8704 87.7862 36.0956C87.8158 36.126 87.8847 36.1117 87.8981 36.1527C87.9641 36.3536 87.8816 37.3814 87.7979 37.4926C87.7566 37.5476 87.6786 37.5607 87.6317 37.6106C87.6187 37.6244 87.632 37.6494 87.6322 37.6688C87.6138 37.6884 87.5987 37.7121 87.577 37.7275C87.4769 37.7985 87.338 37.7966 87.2436 37.847C87.1586 37.8924 87.2009 37.9511 87.1336 38.0226C87.0529 38.1085 86.7003 38.2421 86.6341 38.2601C86.3613 38.3339 85.8691 38.2814 85.5759 38.3279C85.3964 38.3563 85.2792 38.4863 85.132 38.5648C85.0004 38.6351 84.7784 38.6462 84.6873 38.6853C84.6089 38.7189 83.9997 39.2904 83.9682 39.3323C83.9064 39.4144 83.8748 39.5211 83.8592 39.6244C83.8298 39.8193 83.8941 40.4392 84.0342 40.5542C84.0995 40.6079 84.1861 40.6253 84.258 40.6686C85.0749 41.1606 84.9003 41.1566 85.8251 41.4693C85.988 41.5244 86.1637 41.5293 86.3275 41.5812C86.4984 41.6352 87.0382 42.0164 87.2772 41.8636C87.3639 41.8082 87.7944 41.3301 87.8291 41.2182C87.8818 41.048 87.8657 40.8563 87.9361 40.6932C87.9794 40.5932 88.0834 40.5367 88.1571 40.4584C88.2676 40.3409 88.3632 40.206 88.4885 40.106C88.518 40.0825 88.5704 40.1286 88.5999 40.1052C88.6924 40.0314 88.8626 39.7821 88.9866 39.6941C89.0351 39.6596 89.1066 39.6716 89.1533 39.6344C89.2254 39.5769 89.2195 39.3517 89.2618 39.2841C89.3049 39.2152 89.3843 39.1768 89.4275 39.1079C89.4597 39.0566 89.4405 38.9766 89.4817 38.9328C89.5715 38.8373 89.601 39.0261 89.6484 38.8731C89.7094 38.6764 89.5097 38.7949 89.7012 38.5233C89.9093 38.2281 90.3193 38.1615 90.5878 37.933C90.8319 37.7254 91.1202 37.4014 91.4183 37.2851C91.5053 37.2511 91.6054 37.2993 91.6969 37.2825C91.8681 37.2511 92.1308 37.008 92.3074 36.9859C92.8921 36.9126 93.5375 37.2372 94.0382 37.3776C94.342 37.4628 95.0698 37.6286 95.3242 37.8898C95.7154 38.2914 95.356 38.1291 95.9415 38.4081C96.5523 38.6991 96.1883 38.4959 96.6678 38.6343C96.838 38.6835 96.8233 38.8144 96.8927 38.8652C97.0701 38.9951 97.4599 39.1354 97.6209 39.3242C98.1886 39.9902 97.5723 39.5039 98.3521 40.1326C98.4582 40.2181 98.5681 40.3009 98.6884 40.3624C98.7229 40.3801 99.0334 40.428 99.0794 40.4753C99.2496 40.65 99.0859 41.7335 99.1483 42.0465C99.1539 42.073 99.7857 42.9051 99.8247 42.9718C99.8271 42.976 100.284 43.7826 100.333 43.7822C100.386 43.7817 100.407 43.7039 100.443 43.6647C100.517 43.5865 100.6 43.5162 100.664 43.4298C100.708 43.3725 100.659 42.834 100.825 42.6133C101.045 42.3202 100.854 42.7586 100.992 42.6117C101.005 42.5978 100.976 42.5644 100.991 42.5535C101.085 42.4867 101.336 42.3435 101.435 42.3165C101.614 42.2681 101.859 42.3123 102.048 42.3106C102.519 42.3064 102.98 42.28 103.442 42.3561C103.535 42.3714 103.627 42.3302 103.72 42.3535C103.746 42.3603 103.751 42.4061 103.777 42.4112C103.85 42.4258 103.927 42.391 103.999 42.4095C104.018 42.4138 103.989 42.4517 104 42.4677C104.029 42.5131 104.07 42.5506 104.112 42.5831C104.291 42.7207 104.54 42.7404 104.728 42.8686C105.107 43.1277 104.86 43.0042 105.29 43.4456C105.332 43.4887 105.416 43.4593 105.457 43.5023C105.471 43.516 105.44 43.5546 105.458 43.5605C105.559 43.5946 105.692 43.5235 105.792 43.5571C105.999 43.6272 105.725 43.616 105.904 43.6143C107.579 43.4961 109.271 43.5482 110.951 43.5493C111.287 43.5495 112.05 43.4472 112.4 43.6668C112.559 43.7667 112.68 43.9294 112.846 44.0163C112.983 44.088 113.16 44.0506 113.291 44.1331C113.363 44.1778 113.344 44.3046 113.403 44.366C113.59 44.5623 113.937 44.668 114.071 44.9486C114.088 44.9833 114.038 45.0477 114.071 45.065C114.194 45.1292 114.386 45.0197 114.517 45.0654C115.324 45.347 114.341 45.0316 114.851 45.2984C115.096 45.4264 115.448 45.2648 115.631 45.6482C115.719 45.8333 115.582 46.1417 115.63 46.3468C115.68 46.5537 116.781 47.8222 116.855 47.8613C116.889 47.8786 116.941 47.8339 116.967 47.8613C117.143 48.0455 117.148 48.3545 117.301 48.5601C117.559 48.9069 117.856 49.2285 118.192 49.4922C118.515 49.7458 119.47 49.1987 119.752 49.493C119.811 49.5544 119.797 49.6738 119.863 49.726C119.894 49.7498 122.289 50.3456 122.426 50.3099C122.872 50.1937 123.637 50.0337 124.098 50.1946C124.133 50.2069 124.084 50.275 124.098 50.311C124.16 50.4722 124.268 50.6122 124.321 50.7769C124.366 50.9182 124.32 51.2011 124.32 51.359C124.32 51.8969 124.151 52.9869 124.43 53.4548C124.542 53.6411 124.727 53.7655 124.876 53.9208C125.013 54.0648 124.935 54.0373 125.099 54.0374C124.92 54.7117 125.335 57.1501 125.096 57.647C125.055 57.7331 124.49 58.6289 124.427 58.6944C124.174 58.9582 124.182 58.6248 123.981 59.0434C123.912 59.1864 123.938 59.366 123.869 59.509C123.735 59.7887 123.449 60.036 123.311 60.3236C122.773 61.4477 123.455 60.1066 123.2 60.9057C123.164 61.0175 122.987 61.1171 122.977 61.1384C122.647 61.8268 123.378 60.8896 122.865 61.604C122.71 61.8198 122.264 62.1598 122.196 62.3022C122.08 62.5432 122.118 62.6833 121.861 62.8841C121.402 63.2434 120.937 63.6154 120.523 64.0474C120.001 64.5917 121.27 63.8674 119.631 65.2112C119.408 65.3936 119.098 65.4165 118.85 65.5599C118.477 65.7762 118.352 66.1782 118.07 66.3744C118.039 66.3959 117.975 66.3396 117.958 66.3743C117.908 66.4784 118.037 66.6413 117.958 66.7236C117.932 66.7511 117.867 66.6912 117.846 66.7235C117.61 67.0937 117.664 67.636 117.4 68.0039C117.288 68.1591 117.07 68.2015 116.954 68.353C116.865 68.4693 116.998 68.5858 116.954 68.7022C116.798 69.1077 116.65 69.1041 116.507 69.4005C116.37 69.6872 116.831 69.2956 116.396 69.7497C116.165 69.9904 116.405 69.3816 116.173 69.866C116.125 69.9663 115.931 70.2349 115.838 70.3315C115.812 70.3589 115.764 70.3314 115.727 70.3314C115.689 70.3702 115.647 70.4039 115.615 70.4477C115.527 70.571 115.29 70.935 115.169 71.0296C115.075 71.1032 114.932 71.0778 114.835 71.1458C114.537 71.3526 115.281 71.1847 114.723 71.3786C114.653 71.403 114.562 71.3354 114.5 71.3784C114.365 71.4727 114.228 72.0626 114.165 72.1932C114.059 72.4154 113.826 72.5528 113.719 72.775C113.481 73.2712 113.62 76.6095 113.716 77.3158C113.743 77.5173 113.888 77.6225 113.939 77.7816C114.036 78.0865 114.124 80.1457 114.048 80.4596C114.003 80.6478 113.787 80.7468 113.714 80.9251C113.486 81.4793 113.692 81.4305 113.601 82.0893C113.591 82.1674 113.218 82.9406 113.155 83.1369C113.024 83.547 113.212 84.1805 113.043 84.534C112.896 84.8393 112.51 84.5988 112.374 84.8828C112.236 85.1706 112.447 85.7372 112.373 86.0471C112.326 86.2447 112.018 86.9535 111.815 87.0945C111.594 87.2485 111.53 87.1639 111.369 87.4436C111.309 87.5488 111.318 87.6876 111.258 87.7928C111.203 87.8868 111.074 87.9236 111.034 88.0255C110.993 88.1335 111.07 88.2643 111.034 88.3747C111.022 88.4116 110.935 88.3379 110.923 88.3747C110.84 88.6335 110.997 89.2285 110.811 89.4225C110.784 89.4499 110.711 89.3856 110.699 89.4224C110.576 89.8078 110.793 90.3071 110.698 90.7031C110.686 90.7563 110.624 90.7807 110.587 90.8194C110.55 90.9358 110.495 91.0476 110.475 91.1687C110.457 91.2835 110.525 91.4139 110.475 91.518C110.438 91.5956 110.326 91.5955 110.252 91.6342C110.215 91.7118 110.167 91.7847 110.14 91.8671C110.129 91.9039 110.14 91.9446 110.14 91.9835C110.103 92.1775 110.103 92.3837 110.029 92.5655C109.966 92.7168 109.744 92.7584 109.694 92.9146C109.659 93.025 109.744 93.1598 109.694 93.2639C109.422 93.8311 109.111 94.3285 108.801 94.8933C108.743 94.9998 108.755 95.1404 108.69 95.2425C108.602 95.3795 108.405 95.4354 108.355 95.5915C108.184 96.1255 108.14 96.1736 107.575 96.1732C107.069 96.309 107.365 97.4326 107.128 97.8029C106.79 98.3329 105.105 98.5071 104.564 98.7325C103.994 98.9705 103.607 99.2547 102.892 99.43C102.675 99.4832 102.445 99.4008 102.224 99.4295C102.141 99.4402 102.084 99.5459 102.001 99.5458C101.811 99.5457 101.631 99.4537 101.443 99.429C100.732 99.3356 99.8884 99.3792 99.2143 99.6604C99.0637 99.7232 98.2964 100.251 98.2108 100.475C98.1335 100.676 98.1888 100.869 98.099 101.057C98.0142 101.234 97.733 101.322 97.653 101.406C97.5942 101.467 97.6183 101.606 97.5414 101.639C96.7801 101.963 95.9901 102.212 95.2005 102.452C95.0221 102.506 94.8094 102.365 94.6433 102.452C93.9317 102.823 94.5837 102.535 94.4201 102.801C94.1022 103.317 93.8428 103.892 93.4162 104.314C93.1145 104.612 92.6537 104.665 92.3013 104.895C92.0552 105.055 91.8376 105.262 91.6323 105.477C91.5797 105.531 91.6959 105.67 91.6322 105.71C91.3745 105.871 90.997 105.924 90.7403 106.058C90.4858 106.191 89.0051 107.208 88.8449 107.338C88.2211 107.844 88.3976 109.811 88.3972 110.481C88.3969 110.878 88.5525 112.947 88.3956 113.275C88.1445 113.799 88.2717 113.494 88.172 114.323C88.0964 114.952 86.6667 116.3 86.3873 116.767C86.2551 116.987 86.2944 117.402 86.0526 117.465C85.9444 117.493 85.8207 117.419 85.7182 117.465C85.4148 117.6 85.0925 117.988 84.9376 118.279C84.5747 118.961 84.3037 119.954 84.1559 120.724C84.1339 120.838 84.1939 120.964 84.1557 121.073C84.0419 121.399 83.9049 121.724 83.7093 122.004C83.5693 122.205 83.2096 122.228 83.1518 122.47C83.1247 122.582 83.17 122.704 83.1516 122.819C83.0608 123.386 82.6921 124.188 82.4817 124.681C82.4237 124.817 82.092 125.175 82.0356 125.263C81.8868 125.496 81.7968 125.784 81.5893 125.961C81.3703 126.148 81.0478 126.152 80.809 126.31C80.5006 126.515 80.3246 126.904 80.0284 127.125C79.2476 127.706 78.435 128.11 77.7983 128.87C77.3832 129.364 77.5496 129.612 77.2403 130.15C76.9908 130.584 76.7037 130.993 76.4593 131.43C76.3095 131.698 76.332 132.318 76.2357 132.594C76.1504 132.839 75.9936 133.051 75.9009 133.293C75.3383 134.759 75.6384 134.266 74.8965 135.504C74.8524 135.578 74.8541 135.689 74.7849 135.737C74.7036 135.793 72.9624 135.796 72.6674 135.852C72.4216 135.898 72.046 136.035 71.887 136.201C71.8608 136.228 71.9202 136.3 71.887 136.317C71.8853 136.318 69.2252 136.419 68.8779 136.315C68.7491 136.277 68.6691 136.131 68.5437 136.082C68.2298 135.959 67.6178 136.005 67.3179 135.849C67.177 135.775 67.1149 135.59 66.9838 135.499C66.8861 135.431 66.7472 135.45 66.6495 135.382C66.6186 135.361 66.6759 135.293 66.6496 135.266C66.5709 135.183 66.4245 135.289 66.3153 135.266C65.9892 135.197 65.5045 135.138 65.2009 135.032C64.7201 134.864 64.5345 134.683 64.0868 134.449C63.845 134.323 62.8383 134.396 62.638 134.448C62.5242 134.478 62.4607 134.75 62.4149 134.797C62.3201 134.896 62.1469 134.909 62.0804 135.03C61.9863 135.202 62.0391 135.428 61.9686 135.612C61.9548 135.648 61.8834 135.585 61.8572 135.612C61.5239 135.96 62.4532 136.693 62.525 136.893C62.5771 137.039 62.4727 137.214 62.5247 137.359C62.5899 137.541 62.7559 137.663 62.8588 137.825C63.3094 138.532 62.5382 137.46 63.0813 138.407C63.1353 138.501 63.2709 138.536 63.3041 138.64C63.3659 138.834 63.3065 139.383 63.4149 139.572C63.5372 139.785 63.8401 139.831 63.9719 140.038C63.9925 140.07 63.9718 140.115 63.9718 140.154C64.0831 140.31 64.1746 140.483 64.3058 140.62C64.3782 140.696 64.8324 140.831 64.863 140.853C65.6319 141.417 66.3331 142.065 66.7562 142.95C66.8277 143.1 66.0951 144.627 65.8634 144.929C65.4533 145.464 65.3487 145.833 64.7481 146.209C64.5765 146.317 64.3624 146.334 64.1908 146.442C64.1589 146.462 64.2169 146.531 64.1907 146.558C63.7621 147.005 63.2654 147.448 62.7412 147.721C62.527 147.833 62.7123 148.025 62.518 148.187C62.0331 148.592 62.1541 148.328 61.6262 148.419C61.2653 148.482 60.9656 148.75 60.6229 148.884C59.9715 149.139 58.5274 148.657 57.8368 148.882C56.0075 149.478 57.0171 149.464 56.3876 149.464C55.7186 149.019 55.0382 149.113 54.2702 149.112C53.8786 149.112 52.6501 148.968 52.3756 149.11C52.3012 149.149 52.3067 149.269 52.264 149.343C51.9379 149.91 51.6466 150.375 51.8171 151.089C51.8777 151.343 52.1942 151.619 52.2624 151.905C52.3258 152.17 52.1459 152.594 52.2618 152.836C52.5267 153.391 52.3723 154.288 52.3719 154.932C52.3715 155.639 52.5324 156.505 51.7021 156.678C51.5738 156.705 49.7899 157.247 49.473 157.026C49.3419 156.934 49.2798 156.75 49.1388 156.676C49.0724 156.641 48.9778 156.719 48.916 156.676C48.7181 156.538 48.5525 156.354 48.359 156.21C48.2635 156.139 48.1078 156.18 48.0247 156.093C47.966 156.032 47.9721 155.922 47.9134 155.86C47.4611 155.387 46.5713 155.51 46.0191 155.51C45.7781 155.51 45.0298 155.386 44.7931 155.509C44.5286 155.647 44.993 156.37 45.0155 156.44C45.1167 156.759 45.0148 157.406 45.0146 157.721C45.0144 158.122 44.8832 158.269 44.7912 158.652C44.7219 158.941 44.699 160.41 44.9015 160.515C45.1317 160.636 45.5394 160.45 45.793 160.516C46.1359 160.606 46.1971 160.727 46.4615 160.866C46.5279 160.901 46.6264 160.817 46.6844 160.866C47.0235 161.15 47.0565 161.701 47.4639 161.914C47.6979 162.037 48.5492 161.86 48.2436 162.497C48.1538 162.684 45.5506 162.214 44.7887 162.611C44.5352 162.743 44.6767 163.53 44.6765 163.775C44.676 164.604 44.7982 165.614 44.452 166.337C44.2768 166.702 44.5752 167.346 44.4512 167.734C44.4088 167.866 44.2779 167.953 44.2281 168.083C44.2005 168.155 44.228 168.238 44.228 168.316C44.1907 168.471 44.1848 168.638 44.1162 168.781C44.0996 168.816 44.0214 168.747 44.0048 168.781C43.9715 168.851 44.0572 168.959 44.0046 169.014C43.7386 169.292 43.1997 169.496 42.8897 169.712C42.8022 169.773 42.7664 169.91 42.6667 169.945C42.5202 169.996 42.3477 169.973 42.2208 170.061C41.4183 170.619 40.0794 171.495 39.5446 172.388C39.4634 172.523 39.5118 172.716 39.4329 172.853C39.3901 172.928 39.256 172.897 39.2099 172.97C39.1687 173.034 39.243 173.133 39.2098 173.202C39.1815 173.261 38.8754 173.29 38.8751 173.784C38.8748 174.272 38.2943 176.579 38.4274 176.811C38.5228 176.978 38.6928 177.114 38.873 177.161C39.3179 177.277 39.882 177.367 40.433 177.511C40.7688 177.599 41.0337 177.942 41.3242 178.094C41.3906 178.129 41.4877 178.047 41.5471 178.094C41.6731 178.193 41.8108 178.296 41.8812 178.444C42.0778 178.855 41.6414 180.073 42.326 180.074C42.14 180.384 42.0012 180.732 41.7681 181.005C41.69 181.097 41.5277 181.048 41.4337 181.122C41.2853 181.238 40.9568 181.767 40.8759 181.936C40.5903 182.532 40.3018 183.759 39.6487 184.031C39.5065 184.09 39.3304 184.058 39.2029 184.147C39.0914 184.225 39.0869 184.412 38.9797 184.496C38.9203 184.543 38.8233 184.461 38.7568 184.496C38.7236 184.513 38.783 184.585 38.7568 184.613C38.5749 184.802 38.0905 184.81 37.9763 185.078C37.8223 185.439 37.8728 185.866 37.7527 186.242C37.675 186.485 37.4401 186.776 37.5293 187.057C37.5776 187.209 37.5721 187.379 37.6405 187.523C37.6571 187.557 37.7187 187.505 37.7519 187.523C38.1562 187.734 37.9207 188.16 37.7513 188.454C37.534 188.832 36.57 188.785 36.1909 188.686C36.089 188.659 36.0733 188.453 35.9682 188.453C35.548 188.453 35.8425 188.831 35.7449 189.035C35.6557 189.221 35.4103 189.326 35.2988 189.5C35.0274 189.925 34.654 190.35 34.4065 190.78C34.0666 190.863 34.3633 191.103 34.2947 191.246C34.2047 191.434 34.045 191.49 33.9601 191.712C33.8595 191.974 33.8578 192.274 33.7367 192.526C33.6897 192.625 33.5607 192.661 33.5137 192.759C33.4592 192.873 33.5133 193.329 33.5132 193.458C33.5131 193.626 33.388 194.492 33.5125 194.622C33.6212 194.736 33.7117 194.527 33.8467 194.739C33.8928 194.811 33.9209 194.894 33.9581 194.972C33.9951 195.127 33.9843 195.304 34.0692 195.437C34.1434 195.554 34.3177 195.563 34.4034 195.67C34.5628 195.87 34.5612 196.185 34.7373 196.369C35.0003 196.644 34.6791 195.72 34.9601 196.602C35.1151 197.089 34.989 197.72 35.0705 198.232C35.1877 198.97 35.1801 198.459 35.4042 199.28C35.5153 199.688 35.4397 199.934 35.515 200.328C35.5355 200.436 35.7045 200.457 35.7377 200.561C35.8122 200.795 35.6984 201.132 35.7372 201.376C35.853 202.105 35.7746 201.623 36.1825 202.192C36.2743 202.32 36.2252 202.514 36.2936 202.657C36.364 202.805 36.5294 202.878 36.6278 203.007C36.8171 203.254 37.5182 204.366 37.9642 204.521C38.0699 204.558 38.2058 204.457 38.2985 204.522C38.3859 204.583 38.4237 204.714 38.5213 204.755C38.8779 204.904 39.3864 204.746 39.7471 204.872C39.8966 204.924 39.9502 205.13 40.0812 205.221C40.2689 205.352 40.755 205.225 40.9727 205.339C41.1365 205.424 41.625 205.782 41.7526 205.805C41.8991 205.83 42.0518 205.779 42.1984 205.805C42.5089 205.859 43.0648 206.453 43.2008 206.737C42.4674 206.976 41.6497 206.733 40.9717 206.969C40.8446 207.013 40.7616 207.149 40.6372 207.201C40.5176 207.251 40.1781 207.215 40.0799 207.317C39.9647 207.437 39.7747 207.868 39.6337 208.015C39.5225 208.132 39.0703 208.254 38.9648 208.364C38.8963 208.436 38.891 208.636 38.7417 208.713C38.6087 208.783 38.4339 208.656 38.2959 208.713C38.1983 208.754 38.1603 208.885 38.0728 208.946C37.8684 209.088 36.7764 208.945 36.624 208.945C36.3349 208.945 35.7545 209.098 35.5096 208.944C35.3122 208.82 34.687 208.11 34.6187 207.896C34.5723 207.75 34.6886 207.435 34.619 207.314C34.5502 207.194 34.3919 207.165 34.2848 207.081C33.9436 206.813 34.4675 207.155 34.0621 206.731C33.9841 206.65 32.8311 206.751 32.502 206.614C31.2083 206.072 32.9516 206.732 31.6107 206.031C31.4738 205.959 31.3072 205.974 31.165 205.914C30.9129 205.809 30.6422 205.597 30.3852 205.448C30.0195 205.235 29.5253 205.077 29.1596 204.865C28.8534 204.687 28.4593 204.376 28.1571 204.166C27.9216 204.196 28.1148 203.981 28.0457 203.933C27.6906 203.685 27.2021 203.599 26.8201 203.466C26.3667 203.308 26.1754 203.133 25.8175 202.883C25.6247 202.749 25.2589 202.844 25.0374 202.766C24.5163 202.584 24.0039 202.367 23.4775 202.183C22.7184 201.918 22.4028 202.245 21.9177 201.484C21.8476 201.374 21.9048 199.128 21.9193 199.038C21.9703 198.72 22.0923 198.593 22.2541 198.34C22.3226 198.233 22.2139 198.001 22.2544 197.874C22.4261 197.337 22.3613 198.023 22.4777 197.176C22.5336 196.769 22.5509 194.373 22.4793 194.149C22.065 192.847 21.3582 192.597 20.2518 191.935C19.1644 191.285 19.5247 191.641 19.1377 191.236C19.4401 191.069 20.0625 190.819 20.2529 190.421C20.3035 190.316 20.2532 189.943 20.2533 189.839C20.2536 189.329 20.2716 188.245 20.0317 187.743C19.9487 187.57 19.7877 187.447 19.6976 187.277C18.8773 185.732 19.8637 187.392 19.3639 186.346C19.3041 186.221 19.2154 186.113 19.1412 185.996C18.9927 185.802 18.802 185.636 18.6958 185.414C18.5515 185.112 18.6532 184.211 18.5853 183.784C18.5297 183.434 18.2994 182.636 18.4748 182.27C18.742 181.713 19.4797 181.396 19.8131 180.874C19.8337 180.842 19.7869 180.785 19.8132 180.757C19.9887 180.574 20.3911 180.461 20.4822 180.176C20.5175 180.065 20.441 179.935 20.4824 179.826C20.6032 179.512 20.8171 179.248 20.8174 178.895C20.8176 178.51 20.8367 176.935 20.819 176.916C20.7243 176.817 20.5794 176.782 20.4848 176.683C20.2544 176.442 20.8372 176.693 20.3735 176.45C20.3403 176.433 20.2786 176.485 20.262 176.45C20.189 176.297 19.8317 175.27 20.04 175.053C20.3924 174.685 21.1244 175.343 21.3771 175.519C21.5238 175.622 22.7803 175.73 23.0488 175.52C23.2313 175.377 23.1894 174.994 23.2721 174.822C23.3192 174.723 23.4481 174.687 23.4952 174.589C23.9596 173.62 23.333 172.218 23.6087 171.213C23.718 170.814 23.8499 170.44 23.9438 170.048C24.1279 169.281 24.1216 170.655 24.3902 169.117C24.5082 168.441 24.2751 168.656 24.6136 168.302C25.0597 167.905 24.5682 167.343 24.7255 166.906C24.7909 166.724 24.9948 166.622 25.0602 166.44C25.1125 166.295 25.0359 166.128 25.0605 165.975C25.0742 165.889 25.1519 165.826 25.172 165.742C25.3546 164.981 25.0732 164.079 25.1737 163.297C25.2435 162.753 25.2529 162.194 25.3976 161.667C25.5822 160.993 25.6934 161.028 25.6214 160.27C25.4666 158.642 25.2825 158.689 23.3936 158.405C23.232 158.381 22.8362 158.483 22.7249 158.405C22.6474 158.351 22.7254 157.63 22.7255 157.474C22.7257 157.122 22.6196 155.885 22.7271 155.494C22.75 155.411 22.8981 155.446 22.95 155.378C23.1692 155.092 23.3274 154.761 23.5079 154.447C23.6474 154.204 23.9844 153.158 24.0661 152.817C24.2011 152.255 24.4845 151.215 24.2904 150.605C24.2573 150.501 24.1259 150.464 24.0677 150.372C23.9828 150.239 24.0186 150.053 23.9565 149.906C23.8554 149.668 23.71 149.451 23.6226 149.208C23.4826 148.817 23.6242 147.011 23.6242 146.413C23.6245 146.024 23.4103 145.509 23.5136 145.133C23.6778 144.534 24.3182 144.106 24.629 143.62C24.7212 143.475 24.7524 143.293 24.8522 143.154C24.8745 143.123 24.9346 143.178 24.9636 143.154C25.1278 143.017 25.2783 142.86 25.4097 142.689C25.9976 141.922 26.5984 140.907 26.9716 140.012C27.6812 138.31 27.3386 138.649 27.5305 137.451C28.099 133.902 27.4322 139.071 27.8662 135.239C28.0633 133.499 27.8216 135.146 28.2014 133.959C28.3894 133.371 28.118 132.595 28.203 131.979C28.3225 131.109 28.5382 130.575 28.5389 129.534C28.5759 129.263 28.6299 128.993 28.6501 128.719C28.7241 127.716 28.4321 126.706 28.5405 125.692C28.6281 124.874 28.8401 124.07 28.8764 123.247C28.9055 122.588 28.7241 121.908 28.878 121.268C28.9352 121.03 29.0737 120.814 29.1013 120.57C29.3311 118.541 28.8281 116.422 29.2167 114.399C29.3377 113.769 30.4456 112.533 30.6669 112.071C30.8566 111.676 30.8571 111.207 31.0021 110.791C31.4686 109.453 32.0716 108.342 32.4533 106.95C32.7305 105.939 32.4768 104.832 32.5667 103.806C32.5979 103.45 32.7157 103.108 32.7902 102.759C32.8277 102.332 32.8682 101.905 32.9025 101.478C33.0265 99.9353 32.812 98.3662 32.9058 96.8207C32.9666 95.8141 33.0993 94.8072 33.0191 93.7936C32.8962 93.4074 32.9078 93.567 32.9079 93.3278C32.9082 92.9009 32.9085 92.474 32.9087 92.0471C32.9089 91.8531 32.9742 91.6467 32.9091 91.465C32.746 91.0095 32.436 90.6255 32.2412 90.1838C32.2101 90.1133 32.2648 90.0246 32.2414 89.9509C31.8682 88.7787 31.1879 87.6825 30.6832 86.5734C29.8001 84.6326 30.5036 85.7551 29.5703 84.1276C29.3174 83.6867 29.5929 84.2211 29.3475 84.011C28.9609 83.6801 28.6237 83.2889 28.2336 82.9624C27.3172 82.1954 26.4422 81.4476 25.2255 81.4468C23.9792 81.656 22.6917 81.5614 21.4355 81.5606C21.1755 81.5604 20.9076 81.6262 20.6554 81.5601C20.3706 81.4854 20.6473 80.9174 20.5445 80.745C20.2275 80.2145 19.6973 79.7246 19.3195 79.2306C18.9661 78.7684 18.3491 78.6815 17.9827 78.2982C17.7302 78.0341 18.0494 78.0419 17.6487 77.8323C17.5117 77.7606 17.3342 77.798 17.203 77.7155C17.1318 77.6708 17.1377 77.5549 17.0917 77.4826C16.8629 77.1237 16.6462 77.0508 16.6464 76.6673C16.6465 76.5509 16.6818 76.4285 16.6466 76.318C16.3039 75.2416 16.3744 75.9426 15.7558 75.0367C15.713 74.974 15.7774 74.777 15.756 74.6874C15.3668 73.0561 15.9469 75.4783 15.4221 74.105C15.2876 73.7531 15.3991 72.9351 15.3116 72.5913C15.2087 72.1874 14.9633 71.8323 14.8665 71.4267C14.7104 70.7726 14.5427 70.0463 14.1991 69.447C13.9546 69.0206 13.544 68.7138 13.3082 68.2821C13.2714 68.2146 13.3318 68.1229 13.3083 68.0492C13.2586 67.893 13.0577 67.8394 12.9742 67.6997C12.6704 67.1911 12.4915 66.7287 12.0835 66.3019C11.2562 65.7119 11.6398 64.285 11.1937 63.507C11.0982 63.3406 10.9909 63.1784 10.8597 63.0411C10.7112 62.8858 10.7526 63.288 10.6368 62.9245C10.6134 62.8508 10.6369 62.7693 10.637 62.6917C10.5999 62.4976 10.5986 62.2921 10.5259 62.1094C9.0715 58.4561 10.9513 63.7473 9.74672 60.5953C9.68997 60.4467 9.704 60.2727 9.63558 60.1295C9.59844 60.0519 9.45879 60.0852 9.41276 60.013C9.12757 59.5654 9.51603 59.9959 9.19028 59.3142C9.00887 58.9346 8.31723 59.0409 8.18778 58.4985C8.16078 58.3855 8.23781 58.2534 8.188 58.1492C7.85692 57.4563 7.29439 56.862 6.9633 56.1691C6.89487 56.0259 6.92057 55.8464 6.85215 55.7033C6.83553 55.6685 6.7704 55.7265 6.7407 55.7032C6.60165 55.5941 5.95676 54.8786 5.84979 54.6547C5.5313 53.9882 5.02612 53.3271 4.5136 52.791C4.45489 52.7295 4.34058 52.7439 4.29078 52.6744C4.18008 52.52 4.2533 52.1889 4.06823 52.0921C3.94636 52.0283 3.73753 51.9791 3.62259 51.8589C3.53653 51.7689 3.56754 51.4135 3.51151 51.2767C3.4135 51.0373 3.30809 50.7997 3.17762 50.5779C2.87086 50.0563 2.4289 49.5416 2.28706 48.9473C2.14857 48.3669 2.5234 47.949 2.62234 47.4339C2.64423 47.3197 2.59542 47.1975 2.62256 47.0846C2.65929 46.9316 3.03734 46.8737 3.0685 46.8521C3.37865 46.6364 2.51505 46.757 3.40313 46.3866C3.47213 46.3578 3.56798 46.4352 3.62603 46.3867C3.88928 46.167 4.00733 45.8726 4.18371 45.6885C4.20998 45.6611 4.25795 45.6886 4.29513 45.6886C4.4066 45.6499 4.55901 45.6706 4.62955 45.5724C4.69652 45.4793 4.60271 45.3361 4.62977 45.2231C4.70031 44.9291 5.01865 44.7715 5.18745 44.5249C5.49195 44.0802 5.15624 44.5065 5.29919 44.0593C5.34192 43.9256 5.56537 43.8979 5.63368 43.8267C5.69749 43.7601 5.63395 43.365 5.63403 43.2445C5.63418 42.9993 5.70749 42.6223 5.5231 42.4294C5.47834 42.3826 5.25178 42.4512 5.18876 42.4292C4.99071 42.3601 3.89448 41.675 3.85197 41.4968C3.75044 41.0714 3.77244 40.6636 3.62989 40.216C3.70432 39.9443 3.79446 39.6769 3.8533 39.4011C3.9236 39.0716 3.72997 39.0658 3.63083 38.7024C3.59467 38.5697 3.63118 38.1657 3.63127 38.0038C3.6314 37.8104 3.79998 36.779 3.85503 36.6068C3.89744 36.4741 4.03958 36.3917 4.07815 36.2577C4.1538 35.9949 4.10686 35.703 4.19012 35.4427C4.25879 35.2281 4.42781 35.0632 4.5248 34.8608C4.61439 34.6739 4.63699 34.4526 4.74807 34.2788C4.852 34.1162 5.22996 34.0501 5.3056 33.8135C5.32911 33.7399 5.28217 33.6542 5.30575 33.5806C5.39124 33.3133 5.52251 33.6 5.64031 33.2316C5.65207 33.1947 5.60715 33.1325 5.64039 33.1151C5.70687 33.0805 5.80382 33.1618 5.86328 33.1153C6.24341 32.8179 6.59527 32.028 6.86724 31.6024C7.11047 31.2218 7.25166 31.0331 7.42507 30.6713C7.52093 30.4714 7.71779 30.5622 7.87108 30.3223C7.89168 30.2901 7.84025 30.2274 7.87113 30.2059C8.02881 30.0963 8.28048 30.2135 8.42846 30.0899C8.57358 29.9688 8.62199 29.7506 8.7631 29.6244C8.91507 29.4885 9.17891 29.5396 9.32046 29.3919C9.34673 29.3645 9.30392 29.3102 9.32053 29.2755C9.38021 29.151 9.98838 28.9273 9.98944 28.9266C10.4169 28.6591 10.8055 28.1533 11.1046 27.7631C11.5299 27.2085 11.4168 27.4839 11.7736 27.2979C11.848 27.2203 11.9223 27.1427 11.9967 27.0651C11.9967 27.0264 11.9705 26.9761 11.9967 26.9487C12.0555 26.8874 12.1609 26.8937 12.2197 26.8324C12.5335 26.8257 12.2482 26.57 12.3314 26.4832C12.3576 26.4558 12.4165 26.5108 12.4428 26.4833C12.7829 26.1285 12.7393 22.7904 12.5568 22.4084C12.3493 21.9742 12.7363 18.6078 12.56 17.8676C12.5077 17.648 12.3064 17.4954 12.2261 17.2852C12.1559 17.1014 12.1748 16.8908 12.115 16.703C11.9948 16.3256 11.5625 16.1342 11.4469 15.7711C11.4235 15.6974 11.4802 15.6077 11.447 15.5383C11.3188 15.2698 11.1122 16.3245 11.1128 15.3052C11.1129 15.2184 11.2693 15.2409 11.3358 15.1889C11.5502 15.0211 11.7904 14.8914 12.0048 14.7236C12.0345 14.7003 11.9882 14.6419 12.0049 14.6072C12.1114 14.385 12.2827 14.201 12.451 14.0254C12.5098 13.964 12.6279 13.9812 12.674 13.9091C12.724 13.8308 12.9079 12.9559 13.009 12.745C13.177 12.3946 14.1559 11.3904 14.4588 11.2324C14.5253 11.1978 14.6152 11.2672 14.6817 11.2326C14.9214 11.1076 14.9633 10.7551 15.1279 10.5343C15.2766 10.3792 15.4253 10.224 15.574 10.0689C15.6111 10.0689 15.6523 10.0863 15.6855 10.069C15.9106 9.95156 15.933 9.61096 16.0672 9.38859H16.0668ZM60.9268 197.377C61.0738 197.381 61.1969 197.198 61.317 197.144C61.3414 197.133 61.937 196.92 61.9858 196.912C62.4226 196.836 62.107 196.998 62.4874 196.854C63.2159 196.578 63.8199 196.026 64.5499 195.691C64.6597 195.641 65.0103 195.627 65.1073 195.459C65.1655 195.357 65.1032 195.209 65.1632 195.109C65.2401 194.981 65.3335 194.861 65.442 194.76C65.5294 194.679 65.7601 194.668 65.6651 194.469C65.6586 194.456 65.3908 194.469 65.3865 194.469C65.1662 194.469 65.7052 194.473 65.0522 194.411C64.6699 194.374 64.2656 194.41 63.882 194.41C63.6801 194.41 63.4045 194.456 63.2133 194.409C62.4262 194.219 63.1055 194.231 62.3776 194.176C61.9341 194.143 61.4837 194.208 61.0402 194.175C60.9275 194.167 60.8183 194.128 60.7059 194.117C60.4716 194.092 60.2119 194.165 59.9815 194.116C59.8754 194.094 59.9864 193.968 59.8144 194.058C59.366 194.292 59.6822 194.344 59.424 194.523C59.1466 194.716 58.7826 194.974 58.5877 195.279C58.5275 195.374 58.4928 195.486 58.4203 195.57C58.2819 195.731 57.7674 195.981 57.6956 196.094C57.6646 196.142 57.6955 196.21 57.6955 196.268C57.6954 196.466 57.677 196.657 57.8066 196.793C57.8329 196.82 57.882 196.783 57.9181 196.793C58.1981 196.866 57.98 196.825 58.2523 196.967C58.3657 197.027 58.5702 196.938 58.6981 196.968C59.1699 197.078 59.6582 197.143 60.1468 197.143C60.2809 197.144 60.4008 197.202 60.5368 197.202C60.869 197.202 61.0197 197.086 60.9268 197.377V197.377Z" stroke="#C80000" stroke-width="3.1" stroke-linecap="round" stroke-linejoin="round"/>
<path d="M31.0815 51.5577C30.9842 50.7368 30.59 50.0996 29.8988 49.646C29.2075 49.1923 28.3597 48.9655 27.3552 48.9655C26.6208 48.9655 25.9782 49.0843 25.4273 49.3219C24.8819 49.5596 24.4553 49.8863 24.1474 50.3021C23.845 50.7179 23.6938 51.1904 23.6938 51.7197C23.6938 52.1625 23.7991 52.5432 24.0097 52.8618C24.2257 53.1751 24.5012 53.437 24.836 53.6476C25.1708 53.8528 25.5218 54.0229 25.889 54.1579C26.2563 54.2875 26.5938 54.3928 26.9016 54.4738L28.5865 54.9275C29.0185 55.0409 29.4992 55.1975 30.0284 55.3973C30.563 55.5971 31.0733 55.8698 31.5594 56.2154C32.0508 56.5557 32.4558 56.9931 32.7745 57.5277C33.0931 58.0624 33.2524 58.7185 33.2524 59.4961C33.2524 60.3926 33.0175 61.2026 32.5476 61.9263C32.0832 62.6499 31.4028 63.2251 30.5063 63.6517C29.6153 64.0783 28.5325 64.2916 27.258 64.2916C26.07 64.2916 25.0412 64.0999 24.1717 63.7165C23.3077 63.3331 22.6273 62.7984 22.1304 62.1126C21.639 61.4267 21.3609 60.6302 21.2961 59.7229H23.3698C23.4238 60.3494 23.6344 60.8678 24.0016 61.2782C24.3743 61.6833 24.8441 61.9857 25.4111 62.1855C25.9836 62.3799 26.5992 62.4771 27.258 62.4771C28.0249 62.4771 28.7134 62.3529 29.3236 62.1045C29.9339 61.8507 30.4172 61.4997 30.7736 61.0514C31.1301 60.5978 31.3083 60.0686 31.3083 59.4637C31.3083 58.9129 31.1544 58.4647 30.8465 58.1191C30.5387 57.7734 30.1337 57.4926 29.6315 57.2766C29.1292 57.0606 28.5865 56.8716 28.0033 56.7096L25.962 56.1263C24.6659 55.7537 23.6398 55.2218 22.8838 54.5305C22.1277 53.8393 21.7497 52.9348 21.7497 51.8169C21.7497 50.888 22.0008 50.078 22.503 49.3867C23.0107 48.6901 23.6911 48.1501 24.5444 47.7666C25.403 47.3778 26.3616 47.1834 27.42 47.1834C28.4893 47.1834 29.4398 47.3751 30.2714 47.7585C31.1031 48.1366 31.7619 48.655 32.2479 49.3138C32.7393 49.9727 32.9986 50.7206 33.0256 51.5577H31.0815ZM41.3508 64.2592C40.2276 64.2592 39.242 63.9919 38.3942 63.4573C37.5517 62.9226 36.8929 62.1747 36.4176 61.2134C35.9478 60.2522 35.7129 59.1289 35.7129 57.8436C35.7129 56.5476 35.9478 55.4162 36.4176 54.4495C36.8929 53.4829 37.5517 52.7322 38.3942 52.1976C39.242 51.663 40.2276 51.3957 41.3508 51.3957C42.4741 51.3957 43.457 51.663 44.2994 52.1976C45.1473 52.7322 45.8061 53.4829 46.2759 54.4495C46.7511 55.4162 46.9888 56.5476 46.9888 57.8436C46.9888 59.1289 46.7511 60.2522 46.2759 61.2134C45.8061 62.1747 45.1473 62.9226 44.2994 63.4573C43.457 63.9919 42.4741 64.2592 41.3508 64.2592ZM41.3508 62.5419C42.2041 62.5419 42.9061 62.3232 43.457 61.8858C44.0078 61.4484 44.4155 60.8732 44.6801 60.1604C44.9447 59.4475 45.077 58.6753 45.077 57.8436C45.077 57.012 44.9447 56.237 44.6801 55.5188C44.4155 54.8006 44.0078 54.22 43.457 53.7772C42.9061 53.3344 42.2041 53.113 41.3508 53.113C40.4976 53.113 39.7955 53.3344 39.2447 53.7772C38.6939 54.22 38.2861 54.8006 38.0215 55.5188C37.7569 56.237 37.6246 57.012 37.6246 57.8436C37.6246 58.6753 37.7569 59.4475 38.0215 60.1604C38.2861 60.8732 38.6939 61.4484 39.2447 61.8858C39.7955 62.3232 40.4976 62.5419 41.3508 62.5419ZM57.7482 58.9129V51.5577H59.6599V64H57.7482V61.8939H57.6186C57.327 62.5257 56.8734 63.063 56.2577 63.5059C55.6421 63.9433 54.8644 64.162 53.9248 64.162C53.1471 64.162 52.4559 63.9919 51.8511 63.6517C51.2462 63.3061 50.771 62.7876 50.4254 62.0964C50.0798 61.3997 49.907 60.5222 49.907 59.4637V51.5577H51.8187V59.3341C51.8187 60.2414 52.0725 60.965 52.5801 61.5051C53.0931 62.0451 53.7466 62.3151 54.5404 62.3151C55.0157 62.3151 55.499 62.1936 55.9904 61.9506C56.4872 61.7076 56.9031 61.3349 57.2379 60.8327C57.5781 60.3305 57.7482 59.6905 57.7482 58.9129ZM68.5725 51.5577V53.1778H62.1245V51.5577H68.5725ZM64.0038 48.5767H65.9155V60.4358C65.9155 60.9758 65.9938 61.3808 66.1504 61.6509C66.3124 61.9155 66.5177 62.0937 66.7661 62.1855C67.0199 62.2719 67.2872 62.3151 67.568 62.3151C67.7786 62.3151 67.9514 62.3043 68.0864 62.2827C68.2215 62.2557 68.3295 62.2341 68.4105 62.2179L68.7993 63.9352C68.6697 63.9838 68.4888 64.0324 68.2566 64.081C68.0243 64.135 67.73 64.162 67.3736 64.162C66.8336 64.162 66.3043 64.0459 65.7859 63.8137C65.2729 63.5815 64.8463 63.2278 64.506 62.7525C64.1712 62.2773 64.0038 61.6779 64.0038 60.9542V48.5767ZM73.6272 56.5152V64H71.7155V47.4102H73.6272V53.5018H73.7892C74.0808 52.8591 74.5182 52.3488 75.1015 51.9708C75.6901 51.5874 76.4731 51.3957 77.4506 51.3957C78.2984 51.3957 79.041 51.5658 79.6782 51.906C80.3155 52.2408 80.8096 52.7565 81.1606 53.4532C81.517 54.1444 81.6952 55.0247 81.6952 56.0939V64H79.7835V56.2235C79.7835 55.2353 79.527 54.4711 79.014 53.9311C78.5064 53.3857 77.8016 53.113 76.8998 53.113C76.2733 53.113 75.7117 53.2453 75.2149 53.5099C74.7234 53.7745 74.3346 54.1606 74.0484 54.6683C73.7676 55.1759 73.6272 55.7915 73.6272 56.5152Z" fill="#006879"/>
<path d="M38.1939 86H36.4758L41.445 72.4668H43.1366L48.1059 86H46.3878L42.3437 74.6078H42.238L38.1939 86ZM38.8282 80.7136H45.7534V82.1674H38.8282V80.7136ZM50.0024 86V75.8501H51.509V77.436H51.6411C51.8526 76.8942 52.194 76.4735 52.6654 76.1739C53.1367 75.8699 53.7028 75.718 54.3636 75.718C55.0332 75.718 55.5905 75.8699 56.0355 76.1739C56.4848 76.4735 56.835 76.8942 57.0861 77.436H57.1919C57.4518 76.9118 57.8416 76.4955 58.3615 76.1871C58.8813 75.8743 59.5047 75.718 60.2315 75.718C61.139 75.718 61.8813 76.0021 62.4584 76.5704C63.0355 77.1343 63.3241 78.0131 63.3241 79.207V86H61.7646V79.207C61.7646 78.4581 61.5597 77.9228 61.15 77.6012C60.7404 77.2796 60.258 77.1188 59.7029 77.1188C58.9892 77.1188 58.4364 77.3347 58.0443 77.7664C57.6522 78.1937 57.4562 78.7356 57.4562 79.392V86H55.8703V79.0484C55.8703 78.4713 55.683 78.0065 55.3086 77.6541C54.9341 77.2973 54.4517 77.1188 53.8614 77.1188C53.4561 77.1188 53.0773 77.2268 52.7248 77.4426C52.3768 77.6585 52.0949 77.9581 51.879 78.3413C51.6676 78.7202 51.5618 79.1585 51.5618 79.6563V86H50.0024ZM70.431 86.2115C69.453 86.2115 68.6094 85.9956 67.9001 85.5639C67.1953 85.1277 66.6512 84.5198 66.2679 83.7401C65.8891 82.9559 65.6997 82.044 65.6997 81.0044C65.6997 79.9647 65.8891 79.0484 66.2679 78.2554C66.6512 77.4581 67.1843 76.8369 67.8671 76.392C68.5543 75.9426 69.3561 75.718 70.2724 75.718C70.801 75.718 71.3231 75.8061 71.8385 75.9823C72.3539 76.1585 72.8231 76.4448 73.246 76.8413C73.6689 77.2334 74.0059 77.7532 74.257 78.4008C74.5081 79.0484 74.6337 79.8457 74.6337 80.7929V81.4537H66.8098V80.1057H73.0478C73.0478 79.533 72.9332 79.022 72.7041 78.5726C72.4795 78.1233 72.1579 77.7686 71.7394 77.5087C71.3253 77.2488 70.8363 77.1188 70.2724 77.1188C69.6512 77.1188 69.1138 77.273 68.66 77.5814C68.2107 77.8854 67.8649 78.2819 67.6226 78.7708C67.3803 79.2598 67.2591 79.7841 67.2591 80.3436V81.2422C67.2591 82.0088 67.3913 82.6586 67.6556 83.1916C67.9243 83.7202 68.2966 84.1233 68.7724 84.4009C69.2482 84.674 69.801 84.8106 70.431 84.8106C70.8407 84.8106 71.2107 84.7533 71.5411 84.6388C71.8759 84.5198 72.1645 84.3436 72.4068 84.1101C72.6491 83.8722 72.8363 83.5771 72.9685 83.2246L74.4751 83.6476C74.3165 84.1586 74.05 84.6079 73.6755 84.9956C73.3011 85.3788 72.8385 85.6784 72.2878 85.8943C71.7372 86.1057 71.1182 86.2115 70.431 86.2115ZM77.0059 86V75.8501H78.5126V77.3832H78.6183C78.8033 76.881 79.1381 76.4735 79.6227 76.1607C80.1073 75.8479 80.6536 75.6915 81.2615 75.6915C81.376 75.6915 81.5192 75.6937 81.691 75.6981C81.8628 75.7025 81.9928 75.7091 82.0809 75.718V77.3039C82.028 77.2907 81.9069 77.2708 81.7174 77.2444C81.5324 77.2136 81.3364 77.1981 81.1293 77.1981C80.6359 77.1981 80.1954 77.3017 79.8077 77.5087C79.4245 77.7114 79.1205 77.9933 78.8958 78.3545C78.6756 78.7114 78.5654 79.1189 78.5654 79.577V86H77.0059ZM83.9295 86V75.8501H85.489V86H83.9295ZM84.7224 74.1585C84.4185 74.1585 84.1564 74.0549 83.9361 73.8479C83.7202 73.6408 83.6123 73.3919 83.6123 73.1012C83.6123 72.8104 83.7202 72.5615 83.9361 72.3545C84.1564 72.1474 84.4185 72.0439 84.7224 72.0439C85.0264 72.0439 85.2863 72.1474 85.5022 72.3545C85.7224 72.5615 85.8326 72.8104 85.8326 73.1012C85.8326 73.3919 85.7224 73.6408 85.5022 73.8479C85.2863 74.0549 85.0264 74.1585 84.7224 74.1585ZM92.4687 86.2115C91.5171 86.2115 90.6977 85.9868 90.0105 85.5374C89.3233 85.0881 88.7946 84.4691 88.4246 83.6806C88.0545 82.892 87.8695 81.9911 87.8695 80.9779C87.8695 79.9471 88.0589 79.0374 88.4378 78.2488C88.821 77.4559 89.3541 76.8369 90.0369 76.392C90.7242 75.9426 91.5259 75.718 92.4422 75.718C93.1559 75.718 93.7991 75.8501 94.3718 76.1144C94.9445 76.3788 95.4136 76.7488 95.7793 77.2246C96.1449 77.7004 96.3718 78.2554 96.4599 78.8898H94.9004C94.7815 78.4272 94.5171 78.0175 94.1075 77.6607C93.7022 77.2995 93.1559 77.1188 92.4687 77.1188C91.8607 77.1188 91.3277 77.2774 90.8695 77.5946C90.4158 77.9074 90.0612 78.3501 89.8056 78.9228C89.5545 79.4911 89.429 80.1585 89.429 80.9251C89.429 81.7092 89.5523 82.392 89.799 82.9735C90.0501 83.555 90.4026 84.0066 90.8563 84.3282C91.3145 84.6498 91.8519 84.8106 92.4687 84.8106C92.874 84.8106 93.2418 84.7401 93.5722 84.5991C93.9026 84.4581 94.1823 84.2555 94.4114 83.9912C94.6405 83.7268 94.8035 83.4097 94.9004 83.0396H96.4599C96.3718 83.6387 96.1537 84.1784 95.8057 84.6586C95.4621 85.1344 95.0061 85.5132 94.4379 85.7952C93.874 86.0727 93.2176 86.2115 92.4687 86.2115ZM101.726 86.2379C101.083 86.2379 100.5 86.1167 99.9754 85.8744C99.4511 85.6277 99.0348 85.2731 98.7264 84.8106C98.4181 84.3436 98.2639 83.7797 98.2639 83.1189C98.2639 82.5374 98.3784 82.066 98.6075 81.7048C98.8366 81.3392 99.1427 81.0528 99.526 80.8458C99.9093 80.6387 100.332 80.4845 100.795 80.3832C101.262 80.2775 101.731 80.1938 102.202 80.1321C102.819 80.0528 103.319 79.9933 103.702 79.9537C104.09 79.9096 104.372 79.8369 104.548 79.7356C104.729 79.6343 104.819 79.4581 104.819 79.207V79.1541C104.819 78.5021 104.641 77.9955 104.284 77.6343C103.931 77.273 103.396 77.0924 102.678 77.0924C101.934 77.0924 101.35 77.2554 100.927 77.5814C100.504 77.9074 100.207 78.2554 100.035 78.6255L98.5546 78.0968C98.819 77.4801 99.1714 76.9999 99.6119 76.6563C100.057 76.3083 100.541 76.066 101.066 75.9294C101.594 75.7884 102.114 75.718 102.625 75.718C102.951 75.718 103.326 75.7576 103.749 75.8369C104.176 75.9118 104.588 76.0682 104.984 76.3061C105.385 76.544 105.718 76.903 105.982 77.3832C106.246 77.8633 106.379 78.5065 106.379 79.3127V86H104.819V84.6255H104.74C104.634 84.8458 104.458 85.0815 104.211 85.3326C103.964 85.5837 103.636 85.7974 103.226 85.9736C102.817 86.1498 102.317 86.2379 101.726 86.2379ZM101.964 84.837C102.581 84.837 103.101 84.7158 103.524 84.4736C103.951 84.2313 104.273 83.9185 104.489 83.5352C104.709 83.152 104.819 82.7489 104.819 82.326V80.8986C104.753 80.9779 104.608 81.0506 104.383 81.1167C104.163 81.1784 103.907 81.2334 103.616 81.2819C103.33 81.3259 103.05 81.3656 102.777 81.4008C102.508 81.4317 102.29 81.4581 102.123 81.4801C101.718 81.533 101.339 81.6189 100.986 81.7378C100.638 81.8524 100.356 82.0264 100.141 82.2599C99.9291 82.4889 99.8234 82.8017 99.8234 83.1982C99.8234 83.7401 100.024 84.1498 100.425 84.4273C100.83 84.7004 101.343 84.837 101.964 84.837Z" fill="#006879"/>
</svg>
